SplineFontDB: 3.0
FontName: mInymeko
FullName: mIny/meko
FamilyName: mInymeko
Weight: Regular
Copyright: Copyright (c) 2017, ,,,
UComments: "2017-8-14: Created with FontForge (http://fontforge.org)"
Version: 001.000
ItalicAngle: 0
UnderlinePosition: -130
UnderlineWidth: 65
Ascent: 900
Descent: 400
InvalidEm: 0
LayerCount: 2
Layer: 0 0 "Back" 1
Layer: 1 0 "Fore" 0
XUID: [1021 881 2055310830 1797029]
StyleMap: 0x0000
FSType: 0
OS2Version: 0
OS2_WeightWidthSlopeOnly: 0
OS2_UseTypoMetrics: 1
CreationTime: 1502753165
ModificationTime: 1503862499
OS2TypoAscent: 0
OS2TypoAOffset: 1
OS2TypoDescent: 0
OS2TypoDOffset: 1
OS2TypoLinegap: 117
OS2WinAscent: 0
OS2WinAOffset: 1
OS2WinDescent: 0
OS2WinDOffset: 1
HheadAscent: 0
HheadAOffset: 1
HheadDescent: 0
HheadDOffset: 1
Lookup: 4 0 1 "'liga' Standard Ligatures in Latin lookup 0" { "'liga' Standard Ligatures in Latin lookup 0-1"  } ['liga' ('DFLT' <'dflt' > 'latn' <'dflt' > ) 'rlig' ('DFLT' <'dflt' > 'latn' <'dflt' > ) ]
MarkAttachClasses: 1
DEI: 91125
Encoding: ISO8859-1
UnicodeInterp: none
NameList: AGL For New Fonts
DisplaySize: -48
AntiAlias: 1
FitToEm: 0
WinInfo: 0 38 14
BeginPrivate: 0
EndPrivate
Grid
-1300 270.399414062 m 0
 2600 270.399414062 l 1024
  Named: "xheight/2"
-1300 523.899414062 m 0
 2600 523.899414062 l 1024
  Named: "xheight"
EndSplineSet
BeginChars: 438 240

StartChar: p
Encoding: 112 112 0
Width: 529
VWidth: 0
Flags: W
HStem: -23 66<111.075 302.954> 239 68<198.929 292> 482 66<140.554 314.392>
LayerCount: 2
Fore
SplineSet
421 427 m 1
 365 394 l 1
 326 446 306 482 230 482 c 0
 198 482 161 477 134 468 c 1
 119 452 113 432 119 408 c 0
 121 399 125 391 128 385 c 0
 169 332 242 318 329 307 c 1
 349 272 l 1
 292 239 l 1
 237 225 171 220 120 200 c 1
 104 186 89 167 80 142 c 0
 74 126 75 110 78 96 c 1
 109 62 170 43 230 43 c 0
 260 43 287 48 311 57 c 1
 329 72 348 91 364 112 c 1
 420 144 l 1
 440 109 l 1
 416 79 391 55 361 38 c 2
 361 38 360 38 359 38 c 2
 302 5 l 2
 272 -12 236 -23 193 -23 c 0
 125 -23 53 4 28 47 c 2
 9 80 l 2
 -2 98 -5 120 4 144 c 0
 17 180 41 204 69 220 c 2
 126 252 l 2
 137 258 147 265 160 269 c 1
 126 283 98 303 80 334 c 2
 61 367 l 2
 53 379 47 395 43 411 c 0
 34 445 52 469 82 486 c 2
 139 519 l 2
 173 539 220 548 266 548 c 0
 342 548 363 512 402 460 c 1
 421 427 l 1
EndSplineSet
Validated: 33
EndChar

StartChar: t
Encoding: 116 116 1
Width: 585
VWidth: 0
Flags: W
HStem: 226 68<239.938 378.37> 575 20G<22.0606 60> 575 20G<22.0606 60>
VStem: 14 64<129 266.573> 24 76<256.974 525> 425 75<-87.532 177.697>
LayerCount: 2
Fore
SplineSet
0 562 m 1xcc
 56 595 l 1
 64 590 76 589 79 583 c 2
 99 549 l 2
 100 548 100 546 100 544 c 0xcc
 100 387 81 258 78 129 c 1
 104 166 151 217 186 238 c 2
 243 271 l 2
 244 272 l 0
 269 286 293 294 320 294 c 0
 382 294 422 269 447 226 c 2
 467 193 l 2
 491 153 500 95 500 21 c 0
 500 -106 394 -214 269 -286 c 2
 212 -318 l 2
 166 -344 120 -366 73 -382 c 1
 53 -349 l 1
 109 -316 l 1
 146 -303 183 -288 221 -268 c 1
 331 -198 425 -96 425 22 c 0
 425 85 418 136 401 176 c 1
 376 208 337 226 283 226 c 0
 267 226 249 223 234 218 c 1
 167 164 115 67 90 -12 c 1
 34 -44 l 1
 14 -11 l 1xd4
 17 199 24 320 24 525 c 0
 23 525 21 528 20 529 c 2
 0 562 l 1xcc
EndSplineSet
Validated: 1
EndChar

StartChar: k
Encoding: 107 107 2
Width: 615
VWidth: 0
Flags: W
HStem: -288 66<82.3779 132.5> 60 58<221 346.5> 588 20G<168.455 214.176> 588 20G<168.455 214.176>
VStem: 0 76<-214.013 -5.01463> 145 76<-221.147 36 118 524> 463 75<251.113 399>
LayerCount: 2
Fore
SplineSet
118 508 m 1xee
 99 542 l 1
 117 555 128 562 146 575 c 2
 203 608 l 1
 222 574 l 1
 221 118 l 1
 270 131 322 131 363 145 c 0
 367 148 369 151 372 154 c 0
 441 228 455 296 463 399 c 1
 519 431 l 1
 538 398 l 1
 530 295 516 227 447 153 c 0
 436 141 425 132 413 126 c 2
 356 93 l 2
 316 69 269 68 221 60 c 1
 221 58 l 1
 221 -145 l 1
 215 -187 201 -230 171 -247 c 2
 115 -280 l 2
 105 -285 93 -288 80 -288 c 0
 57 -288 44 -278 35 -262 c 2
 15 -229 l 2
 -3 -198 0 -141 0 -95 c 0
 0 -21 42 24 106 61 c 2
 145 83 l 1
 145 91 l 1
 146 524 l 1
 118 508 l 1xee
145 36 m 1
 102 4 76 -38 76 -96 c 0
 76 -133 72 -176 82 -210 c 1
 90 -216 102 -222 117 -222 c 0
 118 -222 117 -222 119 -222 c 0
 132 -204 141 -173 145 -144 c 2
 145 36 l 1
EndSplineSet
Validated: 33
EndChar

StartChar: s
Encoding: 115 115 3
Width: 631
VWidth: 0
Flags: W
HStem: -23 67<147.797 231> 471 66<113.526 212.681>
VStem: 0 76<120.131 421.408> 233 75<-297.506 -22 50 331.411> 491 76<203.304 417.702>
LayerCount: 2
Fore
SplineSet
419 486 m 1
 476 519 l 1
 502 495 519 477 531 457 c 2
 550 422 l 2
 562 401 567 382 567 353 c 0
 567 233 515 109 410 48 c 2
 353 15 l 2
 352 14 l 0
 338 5 323 -1 308 -6 c 1
 310 -99 315 -190 321 -259 c 0
 322 -273 306 -306 295 -317 c 1
 238 -350 l 1
 219 -316 l 1
 230 -305 246 -272 245 -258 c 0
 239 -193 235 -110 233 -22 c 1
 224 -23 216 -23 207 -23 c 0
 135 -23 89 13 60 63 c 2
 40 96 l 2
 11 146 0 211 0 271 c 0
 0 355 31 470 80 498 c 2
 136 531 l 2
 144 535 151 537 159 537 c 0
 200 537 245 523 265 489 c 2
 285 455 l 1
 286 454 l 2
 290 446 294 437 295 427 c 0
 304 354 304 203 307 50 c 0
 308 50 308 50 309 50 c 0
 327 54 345 58 361 66 c 1
 448 131 491 244 491 354 c 0
 491 375 487 392 482 407 c 0
 471 421 457 436 439 453 c 1
 419 486 l 1
231 44 m 1
 228 199 228 353 219 428 c 0
 219 431 218 436 217 439 c 0
 195 461 163 470 129 471 c 1
 97 427 76 338 76 270 c 0
 76 217 84 161 106 113 c 1
 133 75 174 47 231 44 c 1
EndSplineSet
Validated: 33
EndChar

StartChar: h
Encoding: 104 104 4
Width: 546
VWidth: 0
Flags: W
HStem: -20 67<154.573 326.029> 478 66<155.486 324.794>
VStem: 0 76<125.921 398.628> 405 76<127.685 401.403>
LayerCount: 2
Fore
SplineSet
481 270 m 0
 481 169 447 77 375 36 c 2
 318 3 l 2
 292 -12 261 -20 224 -20 c 0
 145 -20 92 16 58 72 c 0
 57 73 l 2
 38 106 l 2
 12 152 0 209 0 273 c 0
 0 364 38 448 106 488 c 2
 162 520 l 2
 188 535 221 544 256 544 c 0
 336 544 393 508 427 450 c 2
 446 415 l 2
 469 375 481 325 481 270 c 0
405 271 m 0
 405 319 396 362 379 399 c 1
 344 448 292 478 219 478 c 0
 196 478 174 473 156 467 c 1
 104 423 76 350 76 272 c 0
 76 217 85 162 105 122 c 1
 139 74 189 47 261 47 c 0
 285 47 308 50 326 56 c 1
 380 104 405 184 405 271 c 0
EndSplineSet
Validated: 1
EndChar

StartChar: b
Encoding: 98 98 5
Width: 568
VWidth: 0
Flags: W
HStem: 491 66<152.08 311.364> 491 43<154 220.337>
VStem: -23 76<17 303.332> 401 76<17 302.178>
LayerCount: 2
Fore
SplineSet
-3 -16 m 1xb0
 -23 17 l 1
 -23 201 -27 429 98 502 c 2
 154 534 l 2
 155 534 l 0x70
 181 549 211 557 249 557 c 0
 324 557 373 523 403 470 c 2
 422 437 l 2
 422 436 l 2
 480 333 477 159 477 16 c 1
 420 -16 l 1
 401 17 l 1
 401 152 406 315 356 419 c 1
 326 462 279 491 212 491 c 0
 187 491 167 487 147 481 c 1
 49 394 53 187 53 16 c 1
 -3 -16 l 1xb0
EndSplineSet
Validated: 33
EndChar

StartChar: x
Encoding: 120 120 6
Width: 491
VWidth: 0
Flags: W
HStem: -13 67<118.941 276.195> 470 66<154.586 277.899>
VStem: 0 76<97.3193 387.648>
LayerCount: 2
Fore
SplineSet
399 414 m 1
 342 381 l 1
 292 436 256 470 186 470 c 0
 178 470 170 469 162 467 c 1
 112 423 76 345 76 270 c 0
 76 213 80 148 101 101 c 1
 124 72 156 54 205 54 c 0
 234 54 259 58 280 66 c 1
 297 80 312 95 326 116 c 1
 382 148 l 1
 402 115 l 1
 380 85 357 62 329 46 c 2
 329 46 329 46 328 46 c 2
 272 13 l 2
 243 -4 209 -13 168 -13 c 0
 112 -13 76 12 54 50 c 2
 35 83 l 2
 6 133 0 206 0 271 c 0
 0 360 52 453 115 489 c 2
 170 521 l 2
 187 531 206 536 223 536 c 0
 293 536 329 502 379 447 c 1
 399 414 l 1
EndSplineSet
Validated: 1
EndChar

StartChar: H
Encoding: 72 72 7
Width: 524
VWidth: 0
Flags: W
HStem: -20 67<113.035 257.59> 478 66<120.156 282.145>
VStem: 0 76<91.869 199.556> 313 76<337.086 438.476>
LayerCount: 2
Fore
SplineSet
32 417 m 1
 13 451 l 1
 31 463 48 474 64 484 c 2
 120 517 l 2
 121 517 121 518 121 518 c 0
 149 534 178 544 216 544 c 0
 273 544 331 522 356 479 c 2
 376 444 l 2
 384 430 389 415 389 398 c 0
 389 359 363 334 332 316 c 2
 275 284 l 2
 274 284 274 283 274 283 c 2
 244 266 209 253 183 239 c 2
 177 236 l 2
 176 236 176 235 176 235 c 2
 152 221 126 210 104 200 c 1
 87 185 76 168 76 143 c 0
 76 129 79 113 83 102 c 0
 112 66 159 47 208 47 c 0
 226 47 248 52 268 61 c 1
 305 87 336 118 359 145 c 1
 415 178 l 1
 434 143 l 1
 406 109 361 68 314 41 c 2
 259 9 l 2
 230 -8 198 -20 171 -20 c 0
 115 -20 62 8 36 52 c 2
 16 86 l 2
 6 103 0 123 0 145 c 0
 0 180 21 200 50 217 c 0
 50 217 50 218 51 218 c 2
 107 250 l 2
 137 267 175 280 210 300 c 2
 218 304 l 2
 235 314 258 323 280 333 c 1
 300 349 313 370 313 399 c 0
 313 410 311 420 308 429 c 0
 280 460 229 478 179 478 c 0
 152 478 129 473 108 464 c 0
 102 460 95 454 89 450 c 2
 32 417 l 1
EndSplineSet
Validated: 1
EndChar

StartChar: r
Encoding: 114 114 8
Width: 569
VWidth: 0
Flags: W
HStem: -21 67<164.097 321.946> 478 66<159.415 317.966> 976 20G<411 423.857>
VStem: -1 76<138.098 462> 413 76<140.157 387.756>
LayerCount: 2
Fore
SplineSet
432 961 m 1
 407 948 l 2
 326 899 280 852 228 766 c 0
 113 576 83 462 75 269 c 1
 18 236 l 1
 -1 270 l 1
 7 463 37 578 152 768 c 0
 206 858 255 905 343 956 c 2
 400 988 l 2
 404 990 409 994 413 996 c 2
 432 961 l 1
413 270 m 0
 413 310 404 349 387 385 c 1
 350 439 290 478 218 478 c 0
 197 478 177 474 159 468 c 1
 106 424 75 347 75 269 c 0
 75 221 85 173 105 132 c 1
 140 81 193 46 260 46 c 0
 283 46 302 48 323 56 c 1
 380 104 413 187 413 270 c 0
489 269 m 0
 489 174 445 79 370 36 c 2
 315 3 l 2
 288 -12 257 -21 223 -21 c 0
 149 -21 93 21 58 82 c 2
 39 116 l 1
 38 117 l 2
 13 161 -1 216 -1 270 c 0
 -1 360 40 448 110 488 c 2
 167 520 l 2
 193 535 223 544 255 544 c 0
 334 544 397 499 434 434 c 2
 454 401 l 2
 477 362 489 317 489 269 c 0
EndSplineSet
Validated: 5
EndChar

StartChar: l
Encoding: 108 108 9
Width: 614
VWidth: 0
Flags: W
HStem: -23 66<181.43 351.094> 469 66<145.292 335.097> 875 20G<89.375 136.515> 875 20G<89.375 136.515>
VStem: 68 76<508 862> 448 76<145.687 370.67>
LayerCount: 2
Fore
SplineSet
125 895 m 5xec
 144 862 l 5
 144 508 l 1
 179 524 214 535 261 535 c 0
 349 535 434 485 476 411 c 2
 495 376 l 2
 513 344 524 308 524 270 c 0
 524 176 477 78 401 34 c 2
 344 1 l 2
 317 -14 287 -23 255 -23 c 0
 151 -23 99 37 20 102 c 1
 0 135 l 1
 56 168 l 1
 135 103 187 43 291 43 c 0
 313 43 332 48 352 54 c 1
 412 103 448 188 448 271 c 0
 448 302 441 333 428 361 c 1
 384 425 305 469 224 469 c 0
 170 469 129 453 88 432 c 1
 68 466 l 1
 68 863 l 5
 125 895 l 5xec
EndSplineSet
Validated: 1
EndChar

StartChar: S
Encoding: 83 83 10
Width: 599
VWidth: 0
Flags: W
HStem: -23 66<159.534 327.037> 469 66<170.5 362.772>
VStem: -16 76<144.088 374.85> 364 76<522 871>
LayerCount: 2
Fore
SplineSet
420 904 m 5
 440 871 l 5
 440 465 l 1
 384 432 l 1
 343 453 301 469 247 469 c 0
 215 469 182 462 154 450 c 1
 98 408 60 343 60 270 c 0
 60 224 71 178 91 138 c 1
 129 82 186 43 254 43 c 0
 288 43 316 50 341 61 c 1
 371 83 398 108 432 135 c 1
 489 168 l 1
 508 134 l 1
 464 98 429 64 388 40 c 2
 332 8 l 2
 300 -10 264 -23 217 -23 c 0
 142 -23 81 23 44 87 c 0
 44 88 43 87 43 88 c 0
 24 121 l 2
 -2 165 -16 219 -16 271 c 0
 -16 353 35 427 105 468 c 2
 106 469 l 2
 162 502 l 2
 199 523 241 535 284 535 c 0
 314 535 339 530 364 522 c 1
 364 872 l 5
 420 904 l 5
EndSplineSet
Validated: 1
EndChar

StartChar: T
Encoding: 84 84 11
Width: 555
VWidth: 0
Flags: W
HStem: -17 67<160.128 307.686> 481 66<159.564 308.009> 890 20G<194.455 279>
VStem: 0 76<140.172 396.373> 389 76<135.534 559.012>
LayerCount: 2
Fore
SplineSet
172 877 m 5
 229 910 l 5
 329 836 230.901719912 919.497654665 298 828 c 4
 320 798 338 769 354 741 c 6
 374 707 l 5
 374 706 375 707 375 706 c 4
 452 573 470 457 465 272 c 5
 408 239 l 5
 389 274 l 5
 394 453 377 563 308 691 c 4
 295 712 277.971010872 737.979492304 261 762 c 4
 196 854 292 768 192 842 c 5
 172 877 l 5
254 547 m 4
 322 547 375 507 407 451 c 6
 427 417 l 6
 451 375 465 323 465 272 c 4
 465 178 427 80 354 37 c 6
 353 37 l 6
 298 4 l 6
 275 -9 248 -17 218 -17 c 4
 148 -17 95 24 61 81 c 4
 61 82 60 80 60 81 c 4
 60 82 l 5
 40 116 l 6
 14 162 0 218 0 274 c 4
 0 363 40 450 110 491 c 6
 112 492 l 6
 168 524 l 6
 193 538 223 547 254 547 c 4
217 481 m 4
 196 481 176 476 160 471 c 5
 106 425 76 349 76 272 c 4
 76 223 86 173 106 132 c 5
 140 83 191 50 255 50 c 4
 273 50 292 53 306 57 c 5
 361 106 389 192 389 274 c 4
 389 318 378 364 361 401 c 5
 327 449 279 481 217 481 c 4
EndSplineSet
Validated: 37
EndChar

StartChar: D
Encoding: 68 68 12
Width: 678
VWidth: 0
Flags: W
HStem: -4.99023 55.9805<224.086 401.184>
VStem: 4.51953 66.9619<-354.99 166.807 183.01 801.463> 482.52 66.9609<617.684 778.091> 544.52 66.9609<179.539 394.813>
LayerCount: 2
Fore
SplineSet
71.4814453125 166.806640625 m 5xd0
 71.48046875 -354.990234375 l 5
 19.51953125 -384.990234375 l 5
 4.51953125 -359.009765625 l 5
 4.51953125 170.545898438 l 5
 4.51953125 701.990234375 l 6
 4.51953125 757.990234375 12.51953125 794.990234375 68.51953125 834.990234375 c 4
 82.6201171875 845.0625 95.720703125 853.595703125 108.0703125 860.737304688 c 6
 160.032226562 890.737304688 l 6
 160.451171875 890.978515625 160.97265625 891.279296875 160.97265625 891.279296875 c 6
 259.743164062 947.873046875 310.309570312 915.616210938 440.48046875 869.990234375 c 4
 459.297851562 863.39453125 492.768554688 851.641601562 514.275390625 814.33203125 c 6
 529.275390625 788.3515625 l 6
 541.224609375 767.624023438 549.48046875 739.009765625 549.48046875 699.009765625 c 4xe0
 549.48046875 646.272460938 526.096679688 614.141601562 489.727539062 593.080078125 c 6
 437.765625 563.080078125 l 6
 437.44921875 562.897460938 437.052734375 562.669921875 437.052734375 562.669921875 c 6
 405.360351562 544.595703125 363.357421875 534.612304688 321.380859375 527.176757812 c 5
 423.526367188 513.734375 527.904296875 502.690429688 572.999023438 424.891601562 c 6
 588.002929688 398.905273438 l 6
 588.25 398.470703125 588.264648438 398.446289062 588.514648438 398.013671875 c 4
 603.138671875 372.362304688 611.48046875 339.508789062 611.48046875 297.009765625 c 4
 611.48046875 196.532226562 555.845703125 110.717773438 474.315429688 63.6416015625 c 6
 422.354492188 33.6416015625 l 6
 422.017578125 33.4462890625 421.595703125 33.2041015625 421.595703125 33.2041015625 c 4
 378.70703125 8.6728515625 329.68359375 -4.990234375 277.51953125 -4.990234375 c 4
 182.849609375 -4.990234375 128.4140625 68.1650390625 85.3583984375 142.770507812 c 6
 71.4814453125 166.806640625 l 5xd0
71.4814453125 183.009765625 m 5
 116.48046875 208.990234375 l 5
 127.984375 189.065429688 l 6
 169.786132812 118.604492188 223.944335938 50.990234375 314.481445312 50.990234375 c 4
 356.3515625 50.990234375 396.76953125 60.029296875 432.50390625 75.96484375 c 5
 499.684570312 124.93359375 544.51953125 202.98828125 544.51953125 292.990234375 c 4xd0
 544.51953125 328.815429688 538.905273438 356.833007812 528.05078125 381.188476562 c 5
 457.560546875 478.001953125 282.064453125 456.149414062 155.518554688 495.908203125 c 5
 140.518554688 521.889648438 l 5
 192.48046875 551.889648438 l 5
 273.077148438 575.55078125 374.063476562 577.938476562 445.5078125 605.318359375 c 5
 468.263671875 625.661132812 482.51953125 654.104492188 482.51953125 694.990234375 c 4
 482.51953125 726.95703125 477.538085938 750.750976562 469.083984375 770.736328125 c 5
 448.551757812 797.68359375 419.8515625 808.28515625 403.51953125 814.009765625 c 4
 284.400390625 855.76171875 231.915039062 886.274414062 148.180664062 847.846679688 c 4
 145.27734375 845.8828125 139.62890625 841.97265625 135.481445312 839.009765625 c 4
 79.48046875 799.009765625 71.4814453125 762.009765625 71.4814453125 706.009765625 c 6
 71.4814453125 183.009765625 l 5
EndSplineSet
Validated: 33
EndChar

StartChar: m
Encoding: 109 109 13
Width: 529
VWidth: 0
Flags: W
HStem: -25 66<138.512 326.84> 239 68<146 245.375> 482 66<138.158 299.361>
LayerCount: 2
Fore
SplineSet
37 394 m 1
 17 428 l 1
 41 459 58 484 84 499 c 2
 141 532 l 2
 142 533 l 0
 159 543 180 548 209 548 c 0
 275 548 346 529 370 489 c 2
 390 455 l 2
 390 454 l 0
 398 441 399 425 395 408 c 0
 383 361 359 334 325 314 c 2
 269 282 l 1
 269 282 390 223 404 199 c 2
 424 166 l 2
 428 158 431 151 434 142 c 0
 450 98 427 61 386 37 c 2
 329 4 l 2
 328 4 l 2
 294 -16 252 -25 209 -25 c 0
 123 -25 70 16 20 77 c 1
 0 112 l 1
 55 144 l 1
 105 83 160 41 246 41 c 0
 276 41 308 46 335 56 c 1
 360 79 372 109 359 144 c 0
 358 146 357 148 356 150 c 0
 303 218 196 216 110 239 c 1
 91 274 l 1
 146 307 l 2
 150 308 156 307 160 308 c 0
 202 313 240 320 274 333 c 1
 295 351 311 377 320 411 c 0
 322 421 322 430 321 438 c 0
 291 467 228 482 172 482 c 0
 157 482 144 480 133 478 c 1
 120 465 108 447 93 427 c 1
 37 394 l 1
EndSplineSet
Validated: 33
EndChar

StartChar: f
Encoding: 102 102 14
Width: 529
VWidth: 0
Flags: W
HStem: -25 66<112.108 300.072> 239 68<199.722 292> 482 66<141.153 306.481> 913 20G<84.0606 148>
LayerCount: 2
Fore
SplineSet
420 144 m 1
 440 109 l 1
 415 78 387 53 356 35 c 2
 300 2 l 2
 299 2 299 1 299 1 c 0
 269 -16 234 -25 193 -25 c 0
 125 -25 54 2 29 46 c 2
 10 79 l 2
 -1 97 -5 120 4 144 c 0
 17 180 41 204 69 220 c 2
 126 252 l 2
 127 252 127 252 127 252 c 2
 138 258 149 265 160 269 c 1
 124 283 98 303 80 334 c 2
 61 367 l 1
 61 368 l 2
 61 369 60 368 60 369 c 0
 54 381 47 396 43 411 c 0
 34 445 52 469 82 486 c 2
 139 519 l 2
 140 520 l 2
 174 540 220 548 266 548 c 0
 281 548 295 547 307 544 c 1
 296 587 286 631 265 672 c 0
 263 675 262 676 260 679 c 0
 223 730 141 836 81 867 c 1
 62 900 l 1
 118 933 l 1
 178 902 260 796 297 745 c 0
 302 737 308 730 312 722 c 2
 332 688 l 2
 372 619 377 547 401 474 c 0
 405 461 411 447 417 433 c 2
 422 426 l 2
 424 423 425 419 427 415 c 1
 370 382 l 1
 358 404 l 2
 349 416 341 426 333 436 c 0
 309 464 283 482 230 482 c 0
 198 482 162 478 134 468 c 1
 120 453 113 432 119 408 c 0
 121 399 125 394 128 385 c 0
 169 333 242 318 329 307 c 1
 349 272 l 1
 292 239 l 1
 237 225 173 221 120 200 c 1
 105 186 89 167 80 142 c 0
 74 125 74 110 78 95 c 1
 108 61 170 41 230 41 c 0
 259 41 285 45 308 54 c 1
 328 69 347 90 364 112 c 1
 420 144 l 1
EndSplineSet
Validated: 33
EndChar

StartChar: n
Encoding: 110 110 15
Width: 539
VWidth: 0
Flags: W
HStem: -18 66<155.364 312.928> 482 66<186.16 374>
VStem: 0 76<134.829 374.375> 26 76<623.738 873>
LayerCount: 2
Fore
SplineSet
468 96 m 1xe0
 412 64 l 2
 400 60 387 53 378 49 c 2
 323 16 l 2
 322 16 321 15 321 15 c 0
 287 -5 255 -18 208 -18 c 0
 142 -18 92 21 61 76 c 2
 41 109 l 2
 14 156 0 215 0 271 c 0xe0
 0 367 38 390 106 457 c 0
 115 466 123 473 133 478 c 2
 173 500 l 1
 152 505 135 512 115 525 c 0
 97 537 84 554 74 571 c 2
 54 604 l 2
 53 606 l 2
 30 646 26 695 26 743 c 0
 26 856 28 761 28 874 c 5
 84 907 l 5
 104 873 l 5
 104 760 102 855 102 742 c 0xd0
 102 701 106 659 121 622 c 0
 129 612 140 602 152 593 c 0
 232 540 319 574 411 548 c 1
 430 515 l 1
 374 482 l 1
 296 460 235 471 183 456 c 1
 183 456 183 457 182 456 c 0
 114 389 76 366 76 270 c 0
 76 220 85 169 107 125 c 1
 138 79 185 48 245 48 c 0
 284 48 313 58 341 73 c 2
 395 104 l 2
 411 114 428 123 448 131 c 1
 468 96 l 1xe0
EndSplineSet
Validated: 1
EndChar

StartChar: v
Encoding: 118 118 17
Width: 721
VWidth: 0
Flags: W
HStem: 796 21G<83.4848 114> 880 20G<135.061 180.176>
VStem: 0 76<434.158 508.495> 112 75<73.2366 368 577.633 807>
LayerCount: 2
Fore
SplineSet
95 796 m 5
 76 829 l 5
 90 843 99 853 113 867 c 5
 169 900 l 5
 188 866 l 5
 192 631 197 688 197 453 c 4
 197 442 194 430 186 420 c 5
 186 411 187 403 187 394 c 4
 189 292 195 213 195 94 c 4
 195 86 197 78 198 73 c 4
 236 35 311 28 373 34 c 4
 410 38 444 46 471 58 c 5
 506 83 532 114 555 145 c 5
 611 178 l 5
 630 144 l 5
 602 105 569 68 521 40 c 6
 521 40 520 39 519 39 c 6
 463 6 l 6
 428 -14 387 -29 336 -34 c 4
 267 -42 179 -29 150 22 c 6
 130 55 l 6
 124 66 119 80 119 95 c 4
 119 203 114 279 112 368 c 5
 105 365 l 6
 104 364 l 4
 95 360 88 356 79 356 c 4
 62 356 46 372 35 390 c 6
 15 424 l 5
 15 425 14 425 14 426 c 4
 5 442 0 462 0 477 c 4
 0 494 26 522 50 535 c 6
 106 568 l 6
 107 568 107 568 107 568 c 4
 112 571 117 573 121 574 c 5
 120 722 117 648 114 807 c 5
 95 796 l 5
110 424 m 5
 110 444 110 463 110 486 c 4
 110 490 108 498 107 503 c 4
 104 506 98 508 94 509 c 5
 83 498 76 486 76 476 c 4
 76 465 78 453 82 441 c 4
 90 432 99 426 110 424 c 5
EndSplineSet
Validated: 33
EndChar

StartChar: g
Encoding: 103 103 18
Width: 567
VWidth: 0
Flags: W
HStem: 649 21G<8.57143 55> 768 66<147.751 293.918>
VStem: 27 76<-275 308> 420 76<369.02 650.571>
LayerCount: 2
Fore
SplineSet
20 649 m 1
 0 684 l 1
 31 723 55 761 93 783 c 2
 150 816 l 2
 151 816 151 817 151 817 c 0
 171 828 192 834 220 834 c 0
 311 834 393 781 439 702 c 2
 458 668 l 1
 458 667 459 668 459 667 c 0
 483 625 496 576 496 523 c 0
 496 439 478 331 394 282 c 2
 338 249 l 2
 337 249 337 249 337 249 c 0
 328 245 321 240 312 237 c 0
 234 208 158 251 103 308 c 1
 103 -296 l 1
 47 -328 l 1
 36 -327 32 -325 21 -324 c 1
 1 -290 l 1
 27 -275 l 1
 27 417 l 1
 83 450 l 1
 86 444 l 2
 136 360 236 265 344 302 c 1
 406 355 420 449 420 524 c 0
 420 571 409 614 391 652 c 1
 343 721 267 768 183 768 c 0
 168 768 155 766 143 763 c 1
 119 741 99 710 76 681 c 1
 20 649 l 1
EndSplineSet
Validated: 33
EndChar

StartChar: N
Encoding: 78 78 19
Width: 747
VWidth: 0
Flags: W
HStem: -17 66<114.629 242.944 390.745 526.17> 517 20G<120 166.515> 517 20G<120 253>
VStem: 0 76<92.1527 391.25> 312 63<150.86 313> 581 75<101.381 469.429>
LayerCount: 2
Fore
SplineSet
155 537 m 1xdc
 174 504 l 1
 117 415 76 369 76 270 c 0
 76 210 81 140 103 90 c 1
 123 64 149 49 187 49 c 0
 207 49 224 51 237 54 c 1
 291 112 292 203 312 313 c 1
 348 346 l 1
 375 327 l 1
 369 253 329 145 389 79 c 1
 406 59 430 49 468 49 c 0
 489 49 508 52 522 56 c 1
 572 105 581 191 581 271 c 0
 581 407 543 531 483 640 c 1
 399 780 279 898 150 1002 c 1
 130 1036 l 1
 186 1068 l 1
 320 961 446 836 530 690 c 2
 549 656 l 2
 615 541 656 413 656 270 c 0
 656 178 646 78 573 36 c 2
 517 3 l 2
 494 -10 466 -17 431 -17 c 0
 384 -17 357 0 341 28 c 0
 340 28 l 2
 321 62 l 1
 321 63 l 1
 312 52 303 42 289 34 c 2
 288 34 l 2
 232 1 l 2
 211 -11 186 -17 151 -17 c 0
 107 -17 77 4 56 39 c 0
 56 40 l 2
 37 74 l 2
 7 126 0 204 0 271 c 0
 0 370 42 416 99 505 c 1
 155 537 l 1xdc
EndSplineSet
Validated: 33
EndChar

StartChar: d
Encoding: 100 100 20
Width: 706
VWidth: 0
Flags: W
HStem: -363 21G<227.824 273.545> 2 62<302 434.427> 473 68<320.26 418.817>
VStem: 224 76<-329 -8 64 341.425> 232 76<68.736 471.342> 541 75<112.139 319.166>
LayerCount: 2
Fore
SplineSet
300 2 m 1xf4
 298 -90 296 -187 296 -330 c 1
 239 -363 l 1
 220 -329 l 1
 220 -191 222 -97 224 -8 c 1xf4
 151 -16 80 -21 20 -27 c 1
 0 8 l 1
 56 40 l 1
 106 45 164 50 225 55 c 1
 228 159 232 265 232 427 c 0xec
 232 452 251 477 278 493 c 2
 278 493 279 494 280 494 c 2
 336 526 l 2
 350 535 367 541 382 541 c 0
 432 541 495 489 541 411 c 2
 560 377 l 2
 594 320 616 248 616 172 c 0
 616 137 596 112 560 91 c 0
 559 91 l 2
 504 58 l 2
 455 30 380 14 300 2 c 1xf4
302 64 m 1
 380 74 456 87 509 109 c 1
 530 126 541 147 541 173 c 0
 541 241 521 308 494 361 c 1
 450 430 393 473 346 473 c 0
 341 473 331 473 328 472 c 0
 315 458 308 442 308 426 c 0xec
 308 268 305 165 302 64 c 1
EndSplineSet
Validated: 1
EndChar

StartChar: Z
Encoding: 90 90 21
Width: 719
VWidth: 0
Flags: W
HStem: -23 66<190.566 363.032> 207 67<109.523 308.014> 469 66<157.292 348.828> 874 20G<101 148.121> 874 20G<101 148.121>
VStem: 80 76<508 861> 459 76<191.318 372.874>
LayerCount: 2
Fore
SplineSet
136 894 m 5xf6
 156 861 l 5
 156 508 l 1
 191 524 226 535 273 535 c 0
 361 535 444 485 486 411 c 2
 506 376 l 2
 524 344 535 308 535 270 c 0
 535 230 527 189 511 152 c 0
 511 151 510 151 510 150 c 0
 542 128 576 108 610 87 c 1
 629 53 l 1
 573 21 l 1
 538 42 505 62 471 84 c 1
 454 63 434 47 412 34 c 2
 356 1 l 2
 329 -14 298 -23 266 -23 c 0
 162 -23 78 46 30 102 c 0
 28 105 26 109 24 112 c 2
 4 145 l 2
 4 146 l 2
 -9 170 6 188 31 203 c 2
 88 235 l 2
 89 236 l 2
 133 261 207 274 230 274 c 0
 299 274 372 238 448 190 c 1
 456 217 459 244 459 271 c 0
 459 302 453 333 440 361 c 1
 396 425 317 469 236 469 c 0
 182 469 141 453 100 432 c 1
 80 466 l 1
 80 862 l 5
 136 894 l 5xf6
418 119 m 0
 340 168 265 207 193 207 c 0
 175 207 128 199 86 184 c 1
 80 176 76 169 76 159 c 1
 125 106 204 43 303 43 c 0
 325 43 344 48 364 54 c 1
 384 70 403 93 417 117 c 0
 417 117 418 118 418 119 c 0
EndSplineSet
Validated: 33
EndChar

StartChar: z
Encoding: 122 122 22
Width: 548
VWidth: 0
Flags: W
HStem: -18 66<151.017 293.905> 517 20G<21 68.1212> 517 20G<21 68.1212>
VStem: 0 76<218.355 504> 378 76<-176.371 74 213.001 498>
LayerCount: 2
Fore
SplineSet
56 537 m 1xd8
 76 504 l 1
 76 375 70 211 117 110 c 1
 145 71 186 48 244 48 c 0
 260 48 276 50 288 53 c 1
 374 139 355 345 378 499 c 1
 434 532 l 1
 454 498 l 1
 453 262 465 123 452 -106 c 0
 449 -170 394 -229 327 -268 c 2
 271 -300 l 2
 269 -300 l 2
 187 -347 86 -365 29 -327 c 1
 10 -294 l 1
 66 -261 l 1
 117 -295 202 -284 278 -248 c 1
 331 -211 373 -160 376 -105 c 0
 380 -40 380 18 381 74 c 1
 369 57 355 42 338 32 c 2
 282 0 l 2
 261 -12 237 -18 207 -18 c 0
 141 -18 97 12 69 60 c 2
 50 93 l 2
 -7 193 0 369 0 505 c 1
 56 537 l 1xd8
EndSplineSet
Validated: 33
EndChar

StartChar: G
Encoding: 71 71 23
Width: 617
VWidth: 0
Flags: W
HStem: -17 66<204.839 282.961> -4 53<230.843 281> 534 20G<22.0606 89.5> 534 20G<22.0606 89.5 221.375 293>
LayerCount: 2
Fore
SplineSet
0 521 m 1x80
 56 554 l 1
 123 478 198 423 262 363 c 1
 310 407 366 455 427 524 c 0
 462 563 454 602 436 645 c 0
 414 697 392 750 362 805 c 0
 328 860 285 920 220 989 c 1
 200 1023 l 1
 257 1055 l 1
 329 978 374 912 408 854 c 2
 428 820 l 2
 465 756 486 699 511 642 c 0
 529 599 537 562 502 523 c 0
 428 440 364 388 310 336 c 0
 307 333 303 329 300 326 c 0
 323 302 344 276 360 247 c 2
 379 212 l 2
 382 207 385 202 388 197 c 0
 418 139 391 59 337 28 c 2
 281 -4 l 2
 280 -4 l 0x60
 265 -13 248 -17 230 -17 c 0
 195 -17 165 7 147 38 c 2
 128 72 l 2
 128 73 127 72 127 73 c 0
 105 111 99 158 119 194 c 0
 142 236 169 270 198 301 c 0
 201 304 206 309 209 312 c 1
 149 366 82 417 20 486 c 1
 0 521 l 1x80
250 273 m 1
 229 249 211 223 195 193 c 0
 179 163 181 123 195 88 c 1
 213 65 238 49 266 49 c 0x80
 272 49 279 50 287 51 c 1
 322 88 336 148 312 197 c 0
 296 223 273 249 250 273 c 1
EndSplineSet
Validated: 33
EndChar

StartChar: A
Encoding: 65 65 24
Width: 709
VWidth: 0
Flags: W
HStem: -337 66<129.856 374.803> 469 66<56 361.25> 479 68<157.742 395>
VStem: 521 76<-112 37.0304>
LayerCount: 2
Fore
SplineSet
0 503 m 1xd0
 56 535 l 1xd0
 477 547 l 1
 496 512 l 1
 209 113 l 1
 233 127 l 2
 294 162 358 184 437 166 c 0
 487 154 522 123 545 84 c 2
 564 51 l 2
 564 50 l 2
 586 11 597 -34 597 -83 c 0
 597 -98 595 -114 592 -128 c 1
 612 -132 630 -136 651 -139 c 1
 671 -172 l 1
 614 -205 l 1
 596 -202 577 -198 559 -195 c 1
 542 -217 520 -234 495 -248 c 2
 439 -281 l 2
 362 -325 253 -340 157 -337 c 0
 118 -336 79 -303 57 -266 c 2
 38 -232 l 1
 38 -231 37 -232 37 -231 c 0
 17 -197 14 -160 41 -145 c 2
 98 -113 l 2
 99 -112 101 -110 103 -109 c 0
 248 -46 366 -78 519 -112 c 1
 520 -102 521 -92 521 -82 c 0
 521 -40 513 -1 497 35 c 1
 475 65 442 90 400 100 c 0
 333 116 276 101 222 74 c 0
 198 59 171 40 145 24 c 2
 89 -9 l 1
 69 25 l 1
 395 479 l 1xb0
 20 469 l 1
 0 503 l 1xd0
493 -181 m 1
 348 -149 235 -118 102 -162 c 1
 96 -176 96 -196 105 -217 c 1
 127 -246 160 -270 194 -271 c 0
 278 -274 371 -262 445 -230 c 1
 462 -217 481 -199 493 -181 c 1
EndSplineSet
Validated: 33
EndChar

StartChar: E
Encoding: 69 69 25
Width: 647
VWidth: 0
Flags: W
HStem: -334 66<192.367 372.193> 491 66<170.267 356.562>
VStem: 0 76<226.759 393.173>
LayerCount: 2
Fore
SplineSet
499 452 m 1
 443 419 l 1
 366 459 319 491 232 491 c 0
 209 491 188 487 168 479 c 1
 111 431 76 351 76 270 c 0
 76 259 77 247 80 238 c 0
 126 184 225 155 312 79 c 0
 378 22 470 -24 499 -76 c 2
 519 -109 l 2
 520 -110 l 0
 526 -121 529 -131 529 -142 c 0
 529 -146 529 -152 529 -156 c 1
 545 -161 561 -167 577 -171 c 1
 597 -205 l 1
 541 -237 l 1
 526 -233 510 -228 496 -224 c 1
 483 -239 466 -252 446 -263 c 2
 390 -296 l 2
 349 -320 298 -334 248 -334 c 0
 179 -334 73 -265 42 -211 c 2
 23 -177 l 2
 10 -154 9 -133 30 -121 c 2
 87 -89 l 2
 88 -88 l 0
 91 -86 94 -84 98 -83 c 0
 225 -40 334 -85 452 -129 c 1
 452 -128 452 -127 451 -125 c 0
 414 -82 333 -39 275 12 c 0
 180 94 70 123 32 187 c 2
 31 188 l 2
 12 222 l 2
 3 236 0 253 0 271 c 0
 0 365 45 456 119 499 c 2
 176 532 l 2
 203 548 234 557 269 557 c 0
 356 557 403 525 480 485 c 1
 499 452 l 1
436 -203 m 1
 320 -160 212 -113 91 -142 c 1
 90 -147 90 -154 92 -162 c 0
 132 -212 223 -268 285 -268 c 0
 323 -268 362 -260 398 -245 c 1
 412 -234 426 -219 436 -203 c 1
EndSplineSet
Validated: 33
EndChar

StartChar: I
Encoding: 73 73 26
Width: 572
VWidth: 0
Flags: W
HStem: -362 66<179.933 396.269> -9 66<140.395 318.223> 470 66<210.387 401>
VStem: 405 76<-286.528 40.8921> 418 76<-219.892 50>
LayerCount: 2
Fore
SplineSet
457 503 m 1xe8
 401 470 l 1
 334 486 253 478 184 447 c 1
 146 420 116 384 98 340 c 0
 70 273 69 190 98 126 c 1
 127 86 172 57 236 57 c 0
 323 57 456 138 472 110 c 2
 492 77 l 2
 493 76 l 0
 494 74 494 72 494 69 c 0xe8
 494 -55 481 -124 481 -248 c 0
 481 -277 467 -296 446 -308 c 2
 390 -340 l 2
 350 -363 280 -362 225 -362 c 0
 157 -362 104 -311 67 -247 c 2
 48 -213 l 1
 48 -212 47 -213 47 -212 c 0
 31 -185 19 -155 9 -126 c 1
 65 -93 l 1
 84 -127 l 2
 92 -151 102 -174 114 -197 c 0
 150 -252 199 -296 262 -296 c 0
 304 -296 354 -297 393 -287 c 1
 401 -277 405 -262 405 -246 c 0xf0
 405 -129 417 -62 418 50 c 1
 376 47 271 -9 199 -9 c 0
 127 -9 80 25 51 75 c 0
 50 76 l 2
 30 109 l 2
 -8 175 -8 268 22 341 c 0
 45 396 85 438 134 466 c 0
 134 466 134 467 135 467 c 2
 192 499 l 2
 268 542 362 554 438 536 c 1
 457 503 l 1xe8
EndSplineSet
Validated: 33
EndChar

StartChar: O
Encoding: 79 79 27
Width: 679
VWidth: 0
Flags: W
HStem: 593 20G<413 496.121> 593 20G<413 496.121>
VStem: 510 76<-126.775 359.268>
LayerCount: 2
Fore
SplineSet
504 580 m 1xa0
 447 547 l 1
 330 511 159 507 75 489 c 1
 75 488 75 488 75 488 c 1
 162 428 505 474 537 417 c 2
 557 384 l 2
 557 383 558 382 558 381 c 0
 582 321 583 238 586 145 c 0
 589 53 595 -47 568 -140 c 0
 566 -148 562 -153 554 -157 c 2
 497 -190 l 2
 432 -227 185 -118 31 -57 c 1
 12 -24 l 1
 68 9 l 1
 199 -43 399 -130 494 -131 c 1
 519 -41 513 57 510 146 c 0
 507 228 506 304 489 362 c 1
 417 405 68 360 24 437 c 2
 4 470 l 2
 1 475 -1 482 -1 490 c 0
 -1 498 5 503 14 508 c 2
 70 541 l 2
 127 575 342 571 484 613 c 1
 504 580 l 1xa0
EndSplineSet
Validated: 33
EndChar

StartChar: U
Encoding: 85 85 28
Width: 716
VWidth: 0
Flags: W
HStem: 458 66<55 299.091> 476 67<304.854 529>
VStem: 529 75<226.01 476>
LayerCount: 2
Fore
SplineSet
0 492 m 1xa0
 55 524 l 1xa0
 262 530 378 537 585 543 c 1
 604 509 l 1
 606 199 644 23 612 -285 c 0
 611 -290 610 -295 607 -297 c 2
 550 -329 l 2
 535 -337 497 -298 468 -288 c 1
 448 -255 l 1
 504 -222 l 1
 516 -226 528 -233 541 -242 c 1
 565 29 533 201 529 476 c 1x60
 336 470 220 464 20 458 c 1
 0 492 l 1xa0
EndSplineSet
Validated: 33
EndChar

StartChar: Y
Encoding: 89 89 29
Width: 721
VWidth: 0
Flags: W
HStem: -23 66<312.81 446.209> 528 20G<195.5 198.5 573.375 620.515> 528 20G<195.5 198.5 573.375 620.515>
VStem: 555 73<296.123 505>
LayerCount: 2
Fore
SplineSet
20 -15 m 1xd0
 0 18 l 1
 61 199 65 475 128 511 c 2
 183 544 l 2
 187 546 193 548 198 548 c 0
 199 548 202 547 203 545 c 2
 222 511 l 2
 222 510 l 2
 239 478 224 233 288 99 c 1
 312 65 345 43 388 43 c 0
 409 43 428 47 443 51 c 1
 534 137 523 341 552 506 c 1
 609 538 l 1
 628 505 l 1
 619 197 650 7 604 -285 c 0
 601 -306 593 -318 580 -326 c 2
 523 -359 l 2
 455 -398 276 -299 187 -271 c 1
 168 -237 l 1
 224 -205 l 1
 300 -229 442 -304 524 -301 c 1
 526 -297 529 -290 530 -284 c 0
 553 -141 556 -20 555 99 c 1
 540 71 520 45 493 30 c 2
 437 -2 l 2
 414 -15 386 -23 351 -23 c 0
 301 -23 267 6 242 48 c 2
 222 81 l 2
 172 168 162 319 157 415 c 1
 132 313 117 141 76 17 c 1
 20 -15 l 1xd0
EndSplineSet
Validated: 33
EndChar

StartChar: Drmoda
Encoding: 256 -1 30
Width: 1300
VWidth: 0
Flags: W
HStem: 550 218 558 21G<369.651 420>
VStem: 114 327
LayerCount: 2
Fore
SplineSet
133 550 m 5xa0
 114 584 l 5
 255 736 l 5
 311 768 l 5xa0
 421 624 l 5
 441 590 l 5
 385 558 l 5x60
 286 687 l 5
 190 583 l 5
 133 550 l 5xa0
EndSplineSet
Validated: 1
EndChar

StartChar: Drmode
Encoding: 257 -1 31
Width: 1300
VWidth: 0
Flags: W
HStem: 547 66<324 577>
VStem: 268 366
LayerCount: 2
Fore
SplineSet
268 581 m 5
 324 613 l 5
 614 615 l 5
 634 582 l 5
 577 549 l 5
 287 547 l 5
 268 581 l 5
EndSplineSet
Validated: 1
EndChar

StartChar: DrAa
Encoding: 258 -1 32
Width: 709
VWidth: 0
Flags: W
HStem: -337 66<129.856 374.803> 469 66<56 361.25> 479 68<157.742 395> 604 21G<121.824 167.545 369.651 418.939> 604 21G<121.824 167.545 369.651 418.939> 803 20G<276 326.172>
VStem: 521 76<-112 37.0304>
LayerCount: 2
Fore
SplineSet
133 604 m 5x96
 114 638 l 5
 255 791 l 5
 311 823 l 5
 421 678 l 5
 441 645 l 5
 385 612 l 5
 286 741 l 5
 190 637 l 5
 133 604 l 5x96
0 503 m 1
 56 535 l 1xc6
 477 547 l 1
 496 512 l 1
 209 113 l 1
 233 127 l 2
 294 162 358 184 437 166 c 0
 487 154 522 123 545 84 c 2
 564 51 l 2
 564 50 l 2
 586 11 597 -34 597 -83 c 0
 597 -98 595 -114 592 -128 c 1
 612 -132 630 -136 651 -139 c 1
 671 -172 l 1
 614 -205 l 1
 596 -202 577 -198 559 -195 c 1
 542 -217 520 -234 495 -248 c 2
 439 -281 l 2
 362 -325 253 -340 157 -337 c 0
 118 -336 79 -303 57 -266 c 2
 38 -232 l 1
 38 -231 37 -232 37 -231 c 0
 17 -197 14 -160 41 -145 c 2
 98 -113 l 2
 99 -112 101 -110 103 -109 c 0
 248 -46 366 -78 519 -112 c 1
 520 -102 521 -92 521 -82 c 0
 521 -40 513 -1 497 35 c 1
 475 65 442 90 400 100 c 0
 333 116 276 101 222 74 c 0
 198 59 171 40 145 24 c 2
 89 -9 l 1
 69 25 l 1
 395 479 l 1xa6
 20 469 l 1xc6
 0 503 l 1
493 -181 m 1
 348 -149 235 -118 102 -162 c 1
 96 -176 96 -196 105 -217 c 1
 127 -246 160 -270 194 -271 c 0
 278 -274 371 -262 445 -230 c 1
 462 -217 481 -199 493 -181 c 1
EndSplineSet
Validated: 33
Ligature2: "'liga' Standard Ligatures in Latin lookup 0-1" A a
EndChar

StartChar: DrDa
Encoding: 259 -1 33
Width: 678
VWidth: 0
Flags: W
HStem: -4.99023 55.9805<224.086 401.184>
VStem: 4.51953 66.9619<-354.99 166.807 183.01 801.463> 482.52 66.9609<617.684 778.091> 544.52 66.9609<179.539 394.813>
LayerCount: 2
Fore
SplineSet
71.4814453125 166.806640625 m 5xd0
 71.48046875 -354.990234375 l 5
 19.51953125 -384.990234375 l 5
 4.51953125 -359.009765625 l 5
 4.51953125 170.545898438 l 5
 4.51953125 701.990234375 l 6
 4.51953125 757.990234375 12.51953125 794.990234375 68.51953125 834.990234375 c 4
 82.6201171875 845.0625 95.720703125 853.595703125 108.0703125 860.737304688 c 6
 160.032226562 890.737304688 l 6
 160.451171875 890.978515625 160.97265625 891.279296875 160.97265625 891.279296875 c 6
 259.743164062 947.873046875 310.309570312 915.616210938 440.48046875 869.990234375 c 4
 459.297851562 863.39453125 492.768554688 851.641601562 514.275390625 814.33203125 c 6
 529.275390625 788.3515625 l 6
 541.224609375 767.624023438 549.48046875 739.009765625 549.48046875 699.009765625 c 4xe0
 549.48046875 646.272460938 526.096679688 614.141601562 489.727539062 593.080078125 c 6
 437.765625 563.080078125 l 6
 437.44921875 562.897460938 437.052734375 562.669921875 437.052734375 562.669921875 c 6
 405.360351562 544.595703125 363.357421875 534.612304688 321.380859375 527.176757812 c 5
 423.526367188 513.734375 527.904296875 502.690429688 572.999023438 424.891601562 c 6
 588.002929688 398.905273438 l 6
 588.25 398.470703125 588.264648438 398.446289062 588.514648438 398.013671875 c 4
 603.138671875 372.362304688 611.48046875 339.508789062 611.48046875 297.009765625 c 4
 611.48046875 196.532226562 555.845703125 110.717773438 474.315429688 63.6416015625 c 6
 422.354492188 33.6416015625 l 6
 422.017578125 33.4462890625 421.595703125 33.2041015625 421.595703125 33.2041015625 c 4
 378.70703125 8.6728515625 329.68359375 -4.990234375 277.51953125 -4.990234375 c 4
 182.849609375 -4.990234375 128.4140625 68.1650390625 85.3583984375 142.770507812 c 6
 71.4814453125 166.806640625 l 5xd0
71.4814453125 183.009765625 m 5
 116.48046875 208.990234375 l 5
 127.984375 189.065429688 l 6
 169.786132812 118.604492188 223.944335938 50.990234375 314.481445312 50.990234375 c 4
 356.3515625 50.990234375 396.76953125 60.029296875 432.50390625 75.96484375 c 5
 499.684570312 124.93359375 544.51953125 202.98828125 544.51953125 292.990234375 c 4xd0
 544.51953125 328.815429688 538.905273438 356.833007812 528.05078125 381.188476562 c 5
 457.560546875 478.001953125 282.064453125 456.149414062 155.518554688 495.908203125 c 5
 140.518554688 521.889648438 l 5
 192.48046875 551.889648438 l 5
 273.077148438 575.55078125 374.063476562 577.938476562 445.5078125 605.318359375 c 5
 468.263671875 625.661132812 482.51953125 654.104492188 482.51953125 694.990234375 c 4
 482.51953125 726.95703125 477.538085938 750.750976562 469.083984375 770.736328125 c 5
 448.551757812 797.68359375 419.8515625 808.28515625 403.51953125 814.009765625 c 4
 284.400390625 855.76171875 231.915039062 886.274414062 148.180664062 847.846679688 c 4
 145.27734375 845.8828125 139.62890625 841.97265625 135.481445312 839.009765625 c 4
 79.48046875 799.009765625 71.4814453125 762.009765625 71.4814453125 706.009765625 c 6
 71.4814453125 183.009765625 l 5
133 -308 m 1
 114 -274 l 1
 255 -122 l 1
 311 -90 l 1
 421 -234 l 1
 441 -268 l 1
 385 -300 l 1
 286 -171 l 1
 190 -275 l 1
 133 -308 l 1
EndSplineSet
Validated: 33
LCarets2: 1 0
Ligature2: "'liga' Standard Ligatures in Latin lookup 0-1" D a
EndChar

StartChar: DrEa
Encoding: 260 -1 34
Width: 647
VWidth: 0
Flags: W
HStem: -334 66<192.367 372.193> 491 66<170.267 356.562> 592 21G<121.485 168.625 369.651 418.939> 592 21G<121.485 168.625 369.651 418.939> 790 20G<276 326.172>
VStem: 0 76<226.759 393.173>
LayerCount: 2
Fore
SplineSet
133 592 m 5xec
 114 625 l 5
 255 778 l 5
 311 810 l 5
 421 665 l 5
 441 632 l 5
 385 599 l 5
 286 728 l 5
 190 624 l 5
 133 592 l 5xec
499 452 m 1
 443 419 l 1
 366 459 319 491 232 491 c 0
 209 491 188 487 168 479 c 1
 111 431 76 351 76 270 c 0
 76 259 77 247 80 238 c 0
 126 184 225 155 312 79 c 0
 378 22 470 -24 499 -76 c 2
 519 -109 l 2
 520 -110 l 0
 526 -121 529 -131 529 -142 c 0
 529 -146 529 -152 529 -156 c 1
 545 -161 561 -167 577 -171 c 1
 597 -205 l 1
 541 -237 l 1
 526 -233 510 -228 496 -224 c 1
 483 -239 466 -252 446 -263 c 2
 390 -296 l 2
 349 -320 298 -334 248 -334 c 0
 179 -334 73 -265 42 -211 c 2
 23 -177 l 2
 10 -154 9 -133 30 -121 c 2
 87 -89 l 2
 88 -88 l 0
 91 -86 94 -84 98 -83 c 0
 225 -40 334 -85 452 -129 c 1
 452 -128 452 -127 451 -125 c 0
 414 -82 333 -39 275 12 c 0
 180 94 70 123 32 187 c 2
 31 188 l 2
 12 222 l 2
 3 236 0 253 0 271 c 0
 0 365 45 456 119 499 c 2
 176 532 l 2
 203 548 234 557 269 557 c 0
 356 557 403 525 480 485 c 1
 499 452 l 1
436 -203 m 1
 320 -160 212 -113 91 -142 c 1
 90 -147 90 -154 92 -162 c 0
 132 -212 223 -268 285 -268 c 0
 323 -268 362 -260 398 -245 c 1
 412 -234 426 -219 436 -203 c 1
EndSplineSet
Validated: 33
Ligature2: "'liga' Standard Ligatures in Latin lookup 0-1" E a
EndChar

StartChar: DrGa
Encoding: 261 -1 35
Width: 617
VWidth: 0
Flags: W
HStem: -17 66<204.839 282.961> -4 53<230.843 281> 534 20G<22.0606 89.5> 534 20G<22.0606 89.5 221.375 293>
LayerCount: 2
Fore
SplineSet
133 -246 m 1x00
 114 -212 l 1
 255 -60 l 1
 311 -27 l 1
 421 -171 l 1
 441 -206 l 1
 385 -238 l 1
 286 -109 l 1
 190 -213 l 1
 133 -246 l 1x00
0 521 m 1
 56 554 l 1
 123 478 198 423 262 363 c 1
 310 407 366 455 427 524 c 0
 462 563 454 602 436 645 c 0
 414 697 392 750 362 805 c 0
 328 860 285 920 220 989 c 1
 200 1023 l 1
 257 1055 l 1
 329 978 374 912 408 854 c 2
 428 820 l 2
 465 756 486 699 511 642 c 0
 529 599 537 562 502 523 c 0
 428 440 364 388 310 336 c 0
 307 333 303 329 300 326 c 0
 323 302 344 276 360 247 c 2
 379 212 l 2
 382 207 385 202 388 197 c 0
 418 139 391 59 337 28 c 2
 281 -4 l 2
 280 -4 l 0x60
 265 -13 248 -17 230 -17 c 0x80
 195 -17 165 7 147 38 c 2
 128 72 l 2
 128 73 127 72 127 73 c 0
 105 111 99 158 119 194 c 0
 142 236 169 270 198 301 c 0
 201 304 206 309 209 312 c 1
 149 366 82 417 20 486 c 1
 0 521 l 1
250 273 m 1
 229 249 211 223 195 193 c 0
 179 163 181 123 195 88 c 1
 213 65 238 49 266 49 c 0x80
 272 49 279 50 287 51 c 1
 322 88 336 148 312 197 c 0
 296 223 273 249 250 273 c 1
EndSplineSet
Validated: 33
Ligature2: "'liga' Standard Ligatures in Latin lookup 0-1" G a
EndChar

StartChar: DrHa
Encoding: 262 -1 36
Width: 524
VWidth: 0
Flags: W
HStem: -20 67<113.035 257.59> 478 66<120.156 282.145> 628 21G<66.2353 111.333 313.651 363.545> 826 20G<219.375 270.417>
VStem: 0 76<91.869 199.556> 313 76<337.086 438.476>
LayerCount: 2
Fore
SplineSet
78 628 m 5
 58 662 l 5
 198 814 l 5
 255 846 l 5
 366 702 l 5
 386 669 l 5
 329 636 l 5
 230 765 l 5
 133 661 l 5
 78 628 l 5
32 417 m 1
 13 451 l 1
 31 463 48 474 64 484 c 2
 120 517 l 2
 121 517 121 518 121 518 c 0
 149 534 178 544 216 544 c 0
 273 544 331 522 356 479 c 2
 376 444 l 2
 384 430 389 415 389 398 c 0
 389 359 363 334 332 316 c 2
 275 284 l 2
 274 284 274 283 274 283 c 2
 244 266 209 253 183 239 c 2
 177 236 l 2
 176 236 176 235 176 235 c 2
 152 221 126 210 104 200 c 1
 87 185 76 168 76 143 c 0
 76 129 79 113 83 102 c 0
 112 66 159 47 208 47 c 0
 226 47 248 52 268 61 c 1
 305 87 336 118 359 145 c 1
 415 178 l 1
 434 143 l 1
 406 109 361 68 314 41 c 2
 259 9 l 2
 230 -8 198 -20 171 -20 c 0
 115 -20 62 8 36 52 c 2
 16 86 l 2
 6 103 0 123 0 145 c 0
 0 180 21 200 50 217 c 0
 50 217 50 218 51 218 c 2
 107 250 l 2
 137 267 175 280 210 300 c 2
 218 304 l 2
 235 314 258 323 280 333 c 1
 300 349 313 370 313 399 c 0
 313 410 311 420 308 429 c 0
 280 460 229 478 179 478 c 0
 152 478 129 473 108 464 c 0
 102 460 95 454 89 450 c 2
 32 417 l 1
EndSplineSet
Validated: 1
LCarets2: 1 0
Ligature2: "'liga' Standard Ligatures in Latin lookup 0-1" H a
EndChar

StartChar: DrIa
Encoding: 263 -1 37
Width: 572
VWidth: 0
Flags: W
HStem: -362 66<179.933 396.269> -9 66<140.395 318.223> 470 66<210.387 401> 592 21G<121.485 168.625 369.651 418.939> 592 21G<121.485 168.625 369.651 418.939> 790 20G<276 326.172>
VStem: 405 76<-286.528 40.8921> 418 76<-219.892 50>
LayerCount: 2
Fore
SplineSet
133 592 m 5xf4
 114 625 l 5
 255 778 l 5
 311 810 l 5
 421 665 l 5
 441 632 l 5
 385 599 l 5
 286 728 l 5
 190 624 l 5
 133 592 l 5xf4
457 503 m 1
 401 470 l 1
 334 486 253 478 184 447 c 1
 146 420 116 384 98 340 c 0
 70 273 69 190 98 126 c 1
 127 86 172 57 236 57 c 0
 323 57 456 138 472 110 c 2
 492 77 l 2
 493 76 l 0
 494 74 494 72 494 69 c 0xe5
 494 -55 481 -124 481 -248 c 0
 481 -277 467 -296 446 -308 c 2
 390 -340 l 2
 350 -363 280 -362 225 -362 c 0
 157 -362 104 -311 67 -247 c 2
 48 -213 l 1
 48 -212 47 -213 47 -212 c 0
 31 -185 19 -155 9 -126 c 1
 65 -93 l 1
 84 -127 l 2
 92 -151 102 -174 114 -197 c 0
 150 -252 199 -296 262 -296 c 0
 304 -296 354 -297 393 -287 c 1
 401 -277 405 -262 405 -246 c 0xe6
 405 -129 417 -62 418 50 c 1xe5
 376 47 271 -9 199 -9 c 0
 127 -9 80 25 51 75 c 0
 50 76 l 2
 30 109 l 2
 -8 175 -8 268 22 341 c 0
 45 396 85 438 134 466 c 0
 134 466 134 467 135 467 c 2
 192 499 l 2
 268 542 362 554 438 536 c 1
 457 503 l 1
EndSplineSet
Validated: 33
Ligature2: "'liga' Standard Ligatures in Latin lookup 0-1" I a
EndChar

StartChar: DrNa
Encoding: 264 -1 38
Width: 747
VWidth: 0
Flags: W
HStem: -17 66<114.629 242.944 390.745 526.17> 517 20G<120 166.515> 517 20G<120 253>
VStem: 0 76<92.1527 391.25> 312 63<150.86 313> 581 75<101.381 469.429>
LayerCount: 2
Fore
SplineSet
140 -238 m 5x9c
 120 -204 l 5
 261 -52 l 5
 317 -20 l 5
 428 -164 l 5
 447 -197 l 5
 391 -230 l 5
 292 -102 l 5
 196 -206 l 5
 140 -238 l 5x9c
155 537 m 1xdc
 174 504 l 1
 117 415 76 369 76 270 c 0
 76 210 81 140 103 90 c 1
 123 64 149 49 187 49 c 0
 207 49 224 51 237 54 c 1
 291 112 292 203 312 313 c 1
 348 346 l 1
 375 327 l 1
 369 253 329 145 389 79 c 1
 406 59 430 49 468 49 c 0
 489 49 508 52 522 56 c 1
 572 105 581 191 581 271 c 0
 581 407 543 531 483 640 c 1
 399 780 279 898 150 1002 c 1
 130 1036 l 1
 186 1068 l 1
 320 961 446 836 530 690 c 2
 549 656 l 2
 615 541 656 413 656 270 c 0
 656 178 646 78 573 36 c 2
 517 3 l 2
 494 -10 466 -17 431 -17 c 0
 384 -17 357 0 341 28 c 0
 340 28 l 2
 321 62 l 1
 321 63 l 1
 312 52 303 42 289 34 c 2
 288 34 l 2
 232 1 l 2
 211 -11 186 -17 151 -17 c 0
 107 -17 77 4 56 39 c 0
 56 40 l 2
 37 74 l 2
 7 126 0 204 0 271 c 0
 0 370 42 416 99 505 c 1
 155 537 l 1xdc
EndSplineSet
Validated: 33
Ligature2: "'liga' Standard Ligatures in Latin lookup 0-1" N a
EndChar

StartChar: DrOa
Encoding: 265 -1 39
Width: 679
VWidth: 0
Flags: W
HStem: 593 20G<413 496.121> 644 21G<121.485 168.625 369.651 418.939> 842 20G<276 326.172 413 496.121>
VStem: 510 76<-126.775 359.268>
LayerCount: 2
Fore
SplineSet
133 644 m 5
 114 677 l 5
 255 830 l 5
 311 862 l 5
 421 717 l 5
 441 684 l 5
 385 651 l 5
 286 780 l 5
 190 676 l 5
 133 644 l 5
504 580 m 1
 447 547 l 1
 330 511 159 507 75 489 c 1
 75 488 75 488 75 488 c 1
 162 428 505 474 537 417 c 2
 557 384 l 2
 557 383 558 382 558 381 c 0
 582 321 583 238 586 145 c 0
 589 53 595 -47 568 -140 c 0
 566 -148 562 -153 554 -157 c 2
 497 -190 l 2
 432 -227 185 -118 31 -57 c 1
 12 -24 l 1
 68 9 l 1
 199 -43 399 -130 494 -131 c 1
 519 -41 513 57 510 146 c 0
 507 228 506 304 489 362 c 1
 417 405 68 360 24 437 c 2
 4 470 l 2
 1 475 -1 482 -1 490 c 0
 -1 498 5 503 14 508 c 2
 70 541 l 2
 127 575 342 571 484 613 c 1
 504 580 l 1
EndSplineSet
Validated: 33
Ligature2: "'liga' Standard Ligatures in Latin lookup 0-1" O a
EndChar

StartChar: DrSa
Encoding: 266 -1 40
Width: 599
VWidth: 0
Flags: W
HStem: -23 66<159.534 327.037> 469 66<170.5 362.772> 599 21G<36.2353 81.9394 283.651 334> 599 21G<36.2353 81.9394 283.651 334> 798 20G<190.667 239.556 385 432.121> 874 20G<385 432.121>
VStem: -16 76<144.088 374.85> 364 76<522 861>
LayerCount: 2
Fore
SplineSet
48 599 m 1xef
 28 633 l 1
 169 785 l 1
 224 818 l 1
 336 674 l 1
 355 639 l 1
 299 607 l 1
 200 736 l 1
 104 632 l 1
 48 599 l 1xef
420 894 m 5
 440 861 l 5
 440 465 l 1
 384 432 l 1
 343 453 301 469 247 469 c 0
 215 469 182 462 154 450 c 1
 98 408 60 343 60 270 c 0
 60 224 71 178 91 138 c 1
 129 82 186 43 254 43 c 0
 288 43 316 50 341 61 c 1
 371 83 398 108 432 135 c 1
 489 168 l 1
 508 134 l 1
 464 98 429 64 388 40 c 2
 332 8 l 2
 300 -10 264 -23 217 -23 c 0
 142 -23 81 23 44 87 c 0
 44 88 43 87 43 88 c 0
 24 121 l 2
 -2 165 -16 219 -16 271 c 0
 -16 353 35 427 105 468 c 2
 106 469 l 2
 162 502 l 2
 199 523 241 535 284 535 c 0
 314 535 339 530 364 522 c 1
 364 862 l 5
 420 894 l 5
EndSplineSet
Validated: 1
LCarets2: 1 0
Ligature2: "'liga' Standard Ligatures in Latin lookup 0-1" S a
EndChar

StartChar: DrTa
Encoding: 267 -1 41
Width: 555
VWidth: 0
Flags: W
HStem: -17 67<160.128 307.686> 481 66<159.564 308.009> 890 20G<194.455 279>
VStem: 0 76<140.172 396.373> 389 76<135.534 559.012>
LayerCount: 2
Fore
SplineSet
172 877 m 5
 229 910 l 5
 329 836 230.901719912 919.497654665 298 828 c 4
 320 798 338 769 354 741 c 6
 374 707 l 5
 374 706 375 707 375 706 c 4
 452 573 470 457 465 272 c 5
 408 239 l 5
 389 274 l 5
 394 453 377 563 308 691 c 4
 295 712 277.971010872 737.979492304 261 762 c 4
 196 854 292 768 192 842 c 5
 172 877 l 5
254 547 m 4
 322 547 375 507 407 451 c 6
 427 417 l 6
 451 375 465 323 465 272 c 4
 465 178 427 80 354 37 c 6
 353 37 l 6
 298 4 l 6
 275 -9 248 -17 218 -17 c 4
 148 -17 95 24 61 81 c 4
 61 82 60 80 60 81 c 4
 60 82 l 5
 40 116 l 6
 14 162 0 218 0 274 c 4
 0 363 40 450 110 491 c 6
 112 492 l 6
 168 524 l 6
 193 538 223 547 254 547 c 4
217 481 m 4
 196 481 176 476 160 471 c 5
 106 425 76 349 76 272 c 4
 76 223 86 173 106 132 c 5
 140 83 191 50 255 50 c 4
 273 50 292 53 306 57 c 5
 361 106 389 192 389 274 c 4
 389 318 378 364 361 401 c 5
 327 449 279 481 217 481 c 4
81 -256 m 1
 62 -222 l 1
 203 -70 l 1
 259 -38 l 1
 369 -182 l 1
 389 -216 l 1
 333 -248 l 1
 234 -119 l 1
 138 -223 l 1
 81 -256 l 1
EndSplineSet
Validated: 37
LCarets2: 1 0
Ligature2: "'liga' Standard Ligatures in Latin lookup 0-1" T a
EndChar

StartChar: DrUa
Encoding: 268 -1 42
Width: 716
VWidth: 0
Flags: W
HStem: 458 66<55 299.091> 476 67<304.854 529> 581 21G<140.235 187 387.531 436.939> 581 21G<140.235 187 387.531 436.939> 780 20G<294.667 343.448>
VStem: 529 75<226.01 476>
LayerCount: 2
Fore
SplineSet
152 581 m 5x2c
 132 615 l 5
 273 767 l 5
 328 800 l 5
 440 655 l 5
 459 622 l 5
 403 589 l 5
 304 717 l 5
 208 613 l 5
 152 581 l 5x2c
0 492 m 1
 55 524 l 1x8c
 262 530 378 537 585 543 c 1
 604 509 l 1
 606 199 644 23 612 -285 c 0
 611 -290 610 -295 607 -297 c 2
 550 -329 l 2
 535 -337 497 -298 468 -288 c 1
 448 -255 l 1
 504 -222 l 1
 516 -226 528 -233 541 -242 c 1
 565 29 533 201 529 476 c 1x4c
 336 470 220 464 20 458 c 1x8c
 0 492 l 1
EndSplineSet
Validated: 33
Ligature2: "'liga' Standard Ligatures in Latin lookup 0-1" U a
EndChar

StartChar: DrYa
Encoding: 269 -1 43
Width: 721
VWidth: 0
Flags: W
HStem: -23 66<312.81 446.209> 528 20G<195.5 198.5 573.375 620.515> 548 251G<195.5 198.5 383.061 432.556 573.375 620.515> 600 21G<229.143 273.939 476.375 527> 600 21G<229.143 273.939 476.375 527>
VStem: 555 73<296.123 505>
LayerCount: 2
Fore
SplineSet
240 600 m 5x94
 221 635 l 5
 361 786 l 5
 417 819 l 5
 529 675 l 5
 548 641 l 5
 492 609 l 5
 392 737 l 5
 296 633 l 5
 240 600 l 5x94
20 -15 m 1
 0 18 l 1
 61 199 65 475 128 511 c 2
 183 544 l 2
 187 546 193 548 198 548 c 0xc4
 199 548 202 547 203 545 c 2
 222 511 l 2
 222 510 l 2
 239 478 224 233 288 99 c 1
 312 65 345 43 388 43 c 0
 409 43 428 47 443 51 c 1
 534 137 523 341 552 506 c 1
 609 538 l 1
 628 505 l 1
 619 197 650 7 604 -285 c 0
 601 -306 593 -318 580 -326 c 2
 523 -359 l 2
 455 -398 276 -299 187 -271 c 1
 168 -237 l 1
 224 -205 l 1
 300 -229 442 -304 524 -301 c 1
 526 -297 529 -290 530 -284 c 0
 553 -141 556 -20 555 99 c 1
 540 71 520 45 493 30 c 2
 437 -2 l 2
 414 -15 386 -23 351 -23 c 0
 301 -23 267 6 242 48 c 2
 222 81 l 2
 172 168 162 319 157 415 c 1
 132 313 117 141 76 17 c 1
 20 -15 l 1
EndSplineSet
Validated: 33
Ligature2: "'liga' Standard Ligatures in Latin lookup 0-1" Y a
EndChar

StartChar: DrZa
Encoding: 270 -1 44
Width: 719
VWidth: 0
Flags: W
HStem: -23 66<190.566 363.032> 207 67<109.523 308.014> 469 66<157.292 348.828> 628 21G<174.824 220.545 423.496 473.375> 826 68G<101 148.121 329 379.278> 874 20G<101 148.121>
VStem: 80 76<508 861> 459 76<191.318 372.874>
LayerCount: 2
Fore
SplineSet
186 628 m 1xf3
 167 662 l 1
 308 814 l 1
 364 846 l 1
 474 702 l 1
 494 668 l 1
 439 636 l 1
 339 765 l 1
 243 661 l 1
 186 628 l 1xf3
136 894 m 5xfb
 156 861 l 5
 156 508 l 1
 191 524 226 535 273 535 c 0
 361 535 444 485 486 411 c 2
 506 376 l 2
 524 344 535 308 535 270 c 0
 535 230 527 189 511 152 c 0
 511 151 510 151 510 150 c 0
 542 128 576 108 610 87 c 1
 629 53 l 1
 573 21 l 1
 538 42 505 62 471 84 c 1
 454 63 434 47 412 34 c 2
 356 1 l 2
 329 -14 298 -23 266 -23 c 0
 162 -23 78 46 30 102 c 0
 28 105 26 109 24 112 c 2
 4 145 l 2
 4 146 l 2
 -9 170 6 188 31 203 c 2
 88 235 l 2
 89 236 l 2
 133 261 207 274 230 274 c 0
 299 274 372 238 448 190 c 1
 456 217 459 244 459 271 c 0
 459 302 453 333 440 361 c 1
 396 425 317 469 236 469 c 0
 182 469 141 453 100 432 c 1
 80 466 l 1
 80 862 l 5
 136 894 l 5xfb
418 119 m 0
 340 168 265 207 193 207 c 0
 175 207 128 199 86 184 c 1
 80 176 76 169 76 159 c 1
 125 106 204 43 303 43 c 0
 325 43 344 48 364 54 c 1
 384 70 403 93 417 117 c 0
 417 117 418 118 418 119 c 0
EndSplineSet
Validated: 33
LCarets2: 1 0
Ligature2: "'liga' Standard Ligatures in Latin lookup 0-1" Z a
EndChar

StartChar: Drba
Encoding: 271 -1 45
Width: 568
VWidth: 0
Flags: W
HStem: 491 66<152.08 311.364> 491 43<154 220.337> 617 21G<80.8235 125.939 327.651 378.625> 815 20G<233.375 284.417>
VStem: -23 76<17 303.332> 401 76<17 302.178>
LayerCount: 2
Fore
SplineSet
92 617 m 5x3c
 73 651 l 5
 212 803 l 5
 269 835 l 5
 380 691 l 5
 400 657 l 5
 343 625 l 5
 244 754 l 5
 148 650 l 5
 92 617 l 5x3c
-3 -16 m 1
 -23 17 l 1
 -23 201 -27 429 98 502 c 2
 154 534 l 2
 155 534 l 0x7c
 181 549 211 557 249 557 c 0
 324 557 373 523 403 470 c 2
 422 437 l 2
 422 436 l 2
 480 333 477 159 477 16 c 1
 420 -16 l 1
 401 17 l 1
 401 152 406 315 356 419 c 1
 326 462 279 491 212 491 c 0xbc
 187 491 167 487 147 481 c 1
 49 394 53 187 53 16 c 1
 -3 -16 l 1
EndSplineSet
Validated: 33
LCarets2: 1 0
Ligature2: "'liga' Standard Ligatures in Latin lookup 0-1" b a
EndChar

StartChar: Drda
Encoding: 272 -1 46
Width: 706
VWidth: 0
Flags: W
HStem: -363 21G<227.824 273.545> 2 62<302 434.427> 473 68<320.26 418.817> 593 21G<158.485 205 405.651 455.545> 593 21G<158.485 205 405.651 455.545> 791 20G<311.375 362.417>
VStem: 224 76<-329 -8 64 341.425> 232 76<68.736 471.342> 541 75<112.139 319.166>
LayerCount: 2
Fore
SplineSet
170 593 m 5xf480
 151 626 l 5
 290 779 l 5
 347 811 l 5
 458 667 l 5
 478 633 l 5
 421 600 l 5
 322 729 l 5
 226 625 l 5
 170 593 l 5xf480
300 2 m 1xe680
 298 -90 296 -187 296 -330 c 1
 239 -363 l 1
 220 -329 l 1
 220 -191 222 -97 224 -8 c 1xe680
 151 -16 80 -21 20 -27 c 1
 0 8 l 1
 56 40 l 1
 106 45 164 50 225 55 c 1
 228 159 232 265 232 427 c 0xe580
 232 452 251 477 278 493 c 2
 278 493 279 494 280 494 c 2
 336 526 l 2
 350 535 367 541 382 541 c 0
 432 541 495 489 541 411 c 2
 560 377 l 2
 594 320 616 248 616 172 c 0
 616 137 596 112 560 91 c 0
 559 91 l 2
 504 58 l 2
 455 30 380 14 300 2 c 1xe680
302 64 m 1
 380 74 456 87 509 109 c 1
 530 126 541 147 541 173 c 0
 541 241 521 308 494 361 c 1
 450 430 393 473 346 473 c 0
 341 473 331 473 328 472 c 0
 315 458 308 442 308 426 c 0xe580
 308 268 305 165 302 64 c 1
EndSplineSet
Validated: 1
Ligature2: "'liga' Standard Ligatures in Latin lookup 0-1" d a
EndChar

StartChar: Drfa
Encoding: 273 -1 47
Width: 529
VWidth: 0
Flags: W
HStem: -25 66<112.108 300.072> 239 68<199.722 292> 482 66<141.153 306.481> 913 20G<84.0606 148>
LayerCount: 2
Fore
SplineSet
120 -243 m 5
 101 -209 l 5
 242 -57 l 5
 298 -25 l 5
 408 -169 l 5
 428 -203 l 5
 372 -235 l 5
 273 -106 l 5
 177 -210 l 5
 120 -243 l 5
420 144 m 1
 440 109 l 1
 415 78 387 53 356 35 c 2
 300 2 l 2
 299 2 299 1 299 1 c 0
 269 -16 234 -25 193 -25 c 0
 125 -25 54 2 29 46 c 2
 10 79 l 2
 -1 97 -5 120 4 144 c 0
 17 180 41 204 69 220 c 2
 126 252 l 2
 127 252 127 252 127 252 c 2
 138 258 149 265 160 269 c 1
 124 283 98 303 80 334 c 2
 61 367 l 1
 61 368 l 2
 61 369 60 368 60 369 c 0
 54 381 47 396 43 411 c 0
 34 445 52 469 82 486 c 2
 139 519 l 2
 140 520 l 2
 174 540 220 548 266 548 c 0
 281 548 295 547 307 544 c 1
 296 587 286 631 265 672 c 0
 263 675 262 676 260 679 c 0
 223 730 141 836 81 867 c 1
 62 900 l 1
 118 933 l 1
 178 902 260 796 297 745 c 0
 302 737 308 730 312 722 c 2
 332 688 l 2
 372 619 377 547 401 474 c 0
 405 461 411 447 417 433 c 2
 422 426 l 2
 424 423 425 419 427 415 c 1
 370 382 l 1
 358 404 l 2
 349 416 341 426 333 436 c 0
 309 464 283 482 230 482 c 0
 198 482 162 478 134 468 c 1
 120 453 113 432 119 408 c 0
 121 399 125 394 128 385 c 0
 169 333 242 318 329 307 c 1
 349 272 l 1
 292 239 l 1
 237 225 173 221 120 200 c 1
 105 186 89 167 80 142 c 0
 74 125 74 110 78 95 c 1
 108 61 170 41 230 41 c 0
 259 41 285 45 308 54 c 1
 328 69 347 90 364 112 c 1
 420 144 l 1
EndSplineSet
Validated: 33
Ligature2: "'liga' Standard Ligatures in Latin lookup 0-1" f a
EndChar

StartChar: Drga
Encoding: 274 -1 48
Width: 567
VWidth: 0
Flags: W
HStem: 649 21G<8.57143 55> 768 66<147.751 293.918>
VStem: 27 76<-275 308> 420 76<369.02 650.571>
LayerCount: 2
Fore
SplineSet
147 -100 m 5
 128 -66 l 5
 269 86 l 5
 325 118 l 5
 436 -26 l 5
 455 -60 l 5
 400 -92 l 5
 300 37 l 5
 204 -67 l 5
 147 -100 l 5
20 649 m 1
 0 684 l 1
 31 723 55 761 93 783 c 2
 150 816 l 2
 151 816 151 817 151 817 c 0
 171 828 192 834 220 834 c 0
 311 834 393 781 439 702 c 2
 458 668 l 1
 458 667 459 668 459 667 c 0
 483 625 496 576 496 523 c 0
 496 439 478 331 394 282 c 2
 338 249 l 2
 337 249 337 249 337 249 c 0
 328 245 321 240 312 237 c 0
 234 208 158 251 103 308 c 1
 103 -296 l 1
 47 -328 l 1
 36 -327 32 -325 21 -324 c 1
 1 -290 l 1
 27 -275 l 1
 27 417 l 1
 83 450 l 1
 86 444 l 2
 136 360 236 265 344 302 c 1
 406 355 420 449 420 524 c 0
 420 571 409 614 391 652 c 1
 343 721 267 768 183 768 c 0
 168 768 155 766 143 763 c 1
 119 741 99 710 76 681 c 1
 20 649 l 1
EndSplineSet
Validated: 33
Ligature2: "'liga' Standard Ligatures in Latin lookup 0-1" g a
EndChar

StartChar: Drha
Encoding: 275 -1 49
Width: 546
VWidth: 0
Flags: W
HStem: -20 67<154.573 326.029> 478 66<155.486 324.794> 635 21G<82.8235 128.545 330.651 379.939> 833 20G<237 287.278>
VStem: 0 76<125.921 398.628> 405 76<127.685 401.403>
LayerCount: 2
Fore
SplineSet
94 635 m 5
 75 669 l 5
 216 821 l 5
 272 853 l 5
 382 709 l 5
 402 676 l 5
 346 643 l 5
 247 772 l 5
 151 668 l 5
 94 635 l 5
481 270 m 0
 481 169 447 77 375 36 c 2
 318 3 l 2
 292 -12 261 -20 224 -20 c 0
 145 -20 92 16 58 72 c 0
 57 73 l 2
 38 106 l 2
 12 152 0 209 0 273 c 0
 0 364 38 448 106 488 c 2
 162 520 l 2
 188 535 221 544 256 544 c 0
 336 544 393 508 427 450 c 2
 446 415 l 2
 469 375 481 325 481 270 c 0
405 271 m 0
 405 319 396 362 379 399 c 1
 344 448 292 478 219 478 c 0
 196 478 174 473 156 467 c 1
 104 423 76 350 76 272 c 0
 76 217 85 162 105 122 c 1
 139 74 189 47 261 47 c 0
 285 47 308 50 326 56 c 1
 380 104 405 184 405 271 c 0
EndSplineSet
Validated: 1
LCarets2: 1 0
Ligature2: "'liga' Standard Ligatures in Latin lookup 0-1" a
Ligature2: "'liga' Standard Ligatures in Latin lookup 0-1" h a
EndChar

StartChar: Drka
Encoding: 276 -1 50
Width: 615
VWidth: 0
Flags: W
HStem: -288 66<82.3779 132.5> 60 58<221 346.5> 588 20G<168.455 214.176> 608 218G<168.455 214.176 279 329.556> 628 21G<126.235 171.939 373.496 424>
VStem: 0 76<-214.013 -5.01463> 145 76<-221.147 36 118 524> 463 75<251.113 399>
LayerCount: 2
Fore
SplineSet
138 628 m 5xcf
 118 662 l 5
 258 814 l 5
 314 846 l 5
 426 702 l 5
 445 668 l 5
 389 636 l 5
 289 765 l 5
 194 661 l 5
 138 628 l 5xcf
118 508 m 1
 99 542 l 1
 117 555 128 562 146 575 c 2
 203 608 l 1xe7
 222 574 l 1
 221 118 l 1
 270 131 322 131 363 145 c 0
 367 148 369 151 372 154 c 0
 441 228 455 296 463 399 c 1
 519 431 l 1
 538 398 l 1
 530 295 516 227 447 153 c 0
 436 141 425 132 413 126 c 2
 356 93 l 2
 316 69 269 68 221 60 c 1
 221 58 l 1
 221 -145 l 1
 215 -187 201 -230 171 -247 c 2
 115 -280 l 2
 105 -285 93 -288 80 -288 c 0
 57 -288 44 -278 35 -262 c 2
 15 -229 l 2
 -3 -198 0 -141 0 -95 c 0
 0 -21 42 24 106 61 c 2
 145 83 l 1
 145 91 l 1
 146 524 l 1
 118 508 l 1
145 36 m 1
 102 4 76 -38 76 -96 c 0
 76 -133 72 -176 82 -210 c 1
 90 -216 102 -222 117 -222 c 0
 118 -222 117 -222 119 -222 c 0
 132 -204 141 -173 145 -144 c 2
 145 36 l 1
EndSplineSet
Validated: 33
Ligature2: "'liga' Standard Ligatures in Latin lookup 0-1" k a
EndChar

StartChar: Drla
Encoding: 277 -1 51
Width: 614
VWidth: 0
Flags: W
HStem: -23 66<181.43 351.094> 469 66<145.292 335.097> 576 21G<170.235 215.333 417.651 468.625> 576 21G<170.235 215.333 417.651 468.625> 875 20G<89.375 136.515> 875 20G<89.375 136.515 323.375 374.417>
VStem: 68 76<508 862> 448 76<145.687 370.67>
LayerCount: 2
Fore
SplineSet
125 895 m 5xcb
 144 862 l 5
 144 508 l 5
 179 524 214 535 261 535 c 4
 349 535 434 485 476 411 c 6
 495 376 l 6
 513 344 524 308 524 270 c 4
 524 176 477 78 401 34 c 6
 344 1 l 6
 317 -14 287 -23 255 -23 c 4
 151 -23 99 37 20 102 c 5
 0 135 l 5
 56 168 l 5
 135 103 187 43 291 43 c 4
 313 43 332 48 352 54 c 5
 412 103 448 188 448 271 c 4
 448 302 441 333 428 361 c 5
 384 425 305 469 224 469 c 4
 170 469 129 453 88 432 c 5
 68 466 l 5
 68 863 l 5
 125 895 l 5xcb
182 576 m 1xe3
 162 610 l 1
 302 762 l 1
 359 794 l 1
 470 650 l 1
 490 616 l 1
 433 584 l 1
 334 713 l 1
 237 609 l 1
 182 576 l 1xe3
EndSplineSet
Validated: 1
LCarets2: 1 0
Ligature2: "'liga' Standard Ligatures in Latin lookup 0-1" l a
EndChar

StartChar: Drma
Encoding: 278 -1 52
Width: 529
VWidth: 0
Flags: W
HStem: -25 66<138.512 326.84> 239 68<146 245.375> 482 66<138.158 299.361> 615 21G<57.1429 102.545 304.531 355> 814 20G<211 261.278>
LayerCount: 2
Fore
SplineSet
68 615 m 5
 49 650 l 5
 190 802 l 5
 246 834 l 5
 356 690 l 5
 376 656 l 5
 320 624 l 5
 221 752 l 5
 125 648 l 5
 68 615 l 5
37 394 m 1
 17 428 l 1
 41 459 58 484 84 499 c 2
 141 532 l 2
 142 533 l 0
 159 543 180 548 209 548 c 0
 275 548 346 529 370 489 c 2
 390 455 l 2
 390 454 l 0
 398 441 399 425 395 408 c 0
 383 361 359 334 325 314 c 2
 269 282 l 1
 269 282 390 223 404 199 c 2
 424 166 l 2
 428 158 431 151 434 142 c 0
 450 98 427 61 386 37 c 2
 329 4 l 2
 328 4 l 2
 294 -16 252 -25 209 -25 c 0
 123 -25 70 16 20 77 c 1
 0 112 l 1
 55 144 l 1
 105 83 160 41 246 41 c 0
 276 41 308 46 335 56 c 1
 360 79 372 109 359 144 c 0
 358 146 357 148 356 150 c 0
 303 218 196 216 110 239 c 1
 91 274 l 1
 146 307 l 2
 150 308 156 307 160 308 c 0
 202 313 240 320 274 333 c 1
 295 351 311 377 320 411 c 0
 322 421 322 430 321 438 c 0
 291 467 228 482 172 482 c 0
 157 482 144 480 133 478 c 1
 120 465 108 447 93 427 c 1
 37 394 l 1
EndSplineSet
Validated: 33
LCarets2: 1 0
Ligature2: "'liga' Standard Ligatures in Latin lookup 0-1" m a
EndChar

StartChar: Drna
Encoding: 279 -1 53
Width: 539
VWidth: 0
Flags: W
HStem: -18 66<155.364 312.928> 482 66<186.16 374> 659 21G<129.235 176 377.531 426.333> 858 20G<284.061 333.31>
VStem: 0 76<134.829 374.375> 26 76<623.738 873>
LayerCount: 2
Fore
SplineSet
468 96 m 5xf8
 412 64 l 6
 400 60 387 53 378 49 c 6
 323 16 l 6
 322 16 321 15 321 15 c 4
 287 -5 255 -18 208 -18 c 4
 142 -18 92 21 61 76 c 6
 41 109 l 6
 14 156 0 215 0 271 c 4xf8
 0 367 38 390 106 457 c 4
 115 466 123 473 133 478 c 6
 173 500 l 5
 152 505 135 512 115 525 c 4
 97 537 84 554 74 571 c 6
 54 604 l 6
 53 606 l 6
 30 646 26 695 26 743 c 4
 26 856 28 761 28 874 c 5
 84 907 l 5
 104 873 l 5
 104 760 102 855 102 742 c 4xf4
 102 701 106 659 121 622 c 4
 129 612 140 602 152 593 c 4
 232 540 319 574 411 548 c 5
 430 515 l 5
 374 482 l 5
 296 460 235 471 183 456 c 5
 183 456 183 457 182 456 c 4
 114 389 76 366 76 270 c 4
 76 220 85 169 107 125 c 5
 138 79 185 48 245 48 c 4
 284 48 313 58 341 73 c 6
 395 104 l 6
 411 114 428 123 448 131 c 5
 468 96 l 5xf8
141 659 m 1
 121 693 l 1
 262 845 l 1
 318 878 l 1
 429 733 l 1
 448 700 l 1
 393 667 l 1
 294 795 l 1
 197 691 l 1
 141 659 l 1
EndSplineSet
Validated: 1
LCarets2: 1 0
Ligature2: "'liga' Standard Ligatures in Latin lookup 0-1" n a
EndChar

StartChar: Drpa
Encoding: 280 -1 54
Width: 529
VWidth: 0
Flags: W
HStem: -23 66<111.075 302.954> 239 68<198.929 292> 482 66<140.554 314.392> 615 21G<74.1429 119.545 321.531 372> 814 20G<228 278.278>
LayerCount: 2
Fore
SplineSet
85 615 m 5
 66 650 l 5
 207 802 l 5
 263 834 l 5
 373 690 l 5
 393 656 l 5
 337 624 l 5
 238 752 l 5
 142 648 l 5
 85 615 l 5
421 427 m 1
 365 394 l 1
 326 446 306 482 230 482 c 0
 198 482 161 477 134 468 c 1
 119 452 113 432 119 408 c 0
 121 399 125 391 128 385 c 0
 169 332 242 318 329 307 c 1
 349 272 l 1
 292 239 l 1
 237 225 171 220 120 200 c 1
 104 186 89 167 80 142 c 0
 74 126 75 110 78 96 c 1
 109 62 170 43 230 43 c 0
 260 43 287 48 311 57 c 1
 329 72 348 91 364 112 c 1
 420 144 l 1
 440 109 l 1
 416 79 391 55 361 38 c 2
 361 38 360 38 359 38 c 2
 302 5 l 2
 272 -12 236 -23 193 -23 c 0
 125 -23 53 4 28 47 c 2
 9 80 l 2
 -2 98 -5 120 4 144 c 0
 17 180 41 204 69 220 c 2
 126 252 l 2
 137 258 147 265 160 269 c 1
 126 283 98 303 80 334 c 2
 61 367 l 2
 53 379 47 395 43 411 c 0
 34 445 52 469 82 486 c 2
 139 519 l 2
 173 539 220 548 266 548 c 0
 342 548 363 512 402 460 c 1
 421 427 l 1
EndSplineSet
Validated: 33
LCarets2: 1 0
Ligature2: "'liga' Standard Ligatures in Latin lookup 0-1" p a
EndChar

StartChar: Drra
Encoding: 281 -1 55
Width: 569
VWidth: 0
Flags: W
HStem: -21 67<164.097 321.946> 478 66<159.415 317.966> 976 20G<411 423.857>
VStem: -1 76<138.098 462> 413 76<140.157 387.756>
LayerCount: 2
Fore
SplineSet
133 -243 m 5
 114 -209 l 5
 255 -57 l 5
 311 -25 l 5
 421 -169 l 5
 441 -203 l 5
 385 -235 l 5
 286 -106 l 5
 190 -210 l 5
 133 -243 l 5
432 961 m 1
 407 948 l 2
 326 899 280 852 228 766 c 0
 113 576 83 462 75 269 c 1
 18 236 l 1
 -1 270 l 1
 7 463 37 578 152 768 c 0
 206 858 255 905 343 956 c 2
 400 988 l 2
 404 990 409 994 413 996 c 2
 432 961 l 1
413 270 m 0
 413 310 404 349 387 385 c 1
 350 439 290 478 218 478 c 0
 197 478 177 474 159 468 c 1
 106 424 75 347 75 269 c 0
 75 221 85 173 105 132 c 1
 140 81 193 46 260 46 c 0
 283 46 302 48 323 56 c 1
 380 104 413 187 413 270 c 0
489 269 m 0
 489 174 445 79 370 36 c 2
 315 3 l 2
 288 -12 257 -21 223 -21 c 0
 149 -21 93 21 58 82 c 2
 39 116 l 1
 38 117 l 2
 13 161 -1 216 -1 270 c 0
 -1 360 40 448 110 488 c 2
 167 520 l 2
 193 535 223 544 255 544 c 0
 334 544 397 499 434 434 c 2
 454 401 l 2
 477 362 489 317 489 269 c 0
EndSplineSet
Validated: 5
LCarets2: 1 0
Ligature2: "'liga' Standard Ligatures in Latin lookup 0-1" r a
EndChar

StartChar: Drsa
Encoding: 282 -1 56
Width: 631
VWidth: 0
Flags: W
HStem: -23 67<147.797 231> 471 66<113.526 212.681> 570 21G<121.485 168.625 369.651 418.939> 570 21G<121.485 168.625 369.651 418.939> 768 20G<277.061 326.278>
VStem: 0 76<120.131 421.408> 233 75<-297.506 -22 50 331.411> 491 76<203.304 417.702>
LayerCount: 2
Fore
SplineSet
133 570 m 5xef
 114 603 l 5
 255 755 l 5
 311 788 l 5
 421 644 l 5
 441 610 l 5
 385 577 l 5
 286 706 l 5
 190 602 l 5
 133 570 l 5xef
419 486 m 1
 476 519 l 1
 502 495 519 477 531 457 c 2
 550 422 l 2
 562 401 567 382 567 353 c 0
 567 233 515 109 410 48 c 2
 353 15 l 2
 352 14 l 0
 338 5 323 -1 308 -6 c 1
 310 -99 315 -190 321 -259 c 0
 322 -273 306 -306 295 -317 c 1
 238 -350 l 1
 219 -316 l 1
 230 -305 246 -272 245 -258 c 0
 239 -193 235 -110 233 -22 c 1
 224 -23 216 -23 207 -23 c 0
 135 -23 89 13 60 63 c 2
 40 96 l 2
 11 146 0 211 0 271 c 0
 0 355 31 470 80 498 c 2
 136 531 l 2
 144 535 151 537 159 537 c 0
 200 537 245 523 265 489 c 2
 285 455 l 1
 286 454 l 2
 290 446 294 437 295 427 c 0
 304 354 304 203 307 50 c 0
 308 50 308 50 309 50 c 0
 327 54 345 58 361 66 c 1
 448 131 491 244 491 354 c 0
 491 375 487 392 482 407 c 0
 471 421 457 436 439 453 c 1
 419 486 l 1
231 44 m 1
 228 199 228 353 219 428 c 0
 219 431 218 436 217 439 c 0
 195 461 163 470 129 471 c 1
 97 427 76 338 76 270 c 0
 76 217 84 161 106 113 c 1
 133 75 174 47 231 44 c 1
EndSplineSet
Validated: 33
Ligature2: "'liga' Standard Ligatures in Latin lookup 0-1" s a
EndChar

StartChar: Drta
Encoding: 283 -1 57
Width: 585
VWidth: 0
Flags: W
HStem: 226 68<239.938 378.37> 575 20G<22.0606 60> 576 21G<131.824 176.333 378.651 429.625> 576 21G<131.824 176.333 378.651 429.625> 595 179G<22.0606 60 284.375 335.417>
VStem: 14 64<129 266.573> 24 76<256.974 525> 425 75<-87.532 177.697>
LayerCount: 2
Fore
SplineSet
143 576 m 5xa1
 124 610 l 5
 263 762 l 5
 320 794 l 5
 431 650 l 5
 451 616 l 5
 394 584 l 5
 295 713 l 5
 198 609 l 5
 143 576 l 5xa1
0 562 m 1
 56 595 l 1
 64 590 76 589 79 583 c 2
 99 549 l 2
 100 548 100 546 100 544 c 0xc3
 100 387 81 258 78 129 c 1
 104 166 151 217 186 238 c 2
 243 271 l 2
 244 272 l 0
 269 286 293 294 320 294 c 0
 382 294 422 269 447 226 c 2
 467 193 l 2
 491 153 500 95 500 21 c 0
 500 -106 394 -214 269 -286 c 2
 212 -318 l 2
 166 -344 120 -366 73 -382 c 1
 53 -349 l 1
 109 -316 l 1
 146 -303 183 -288 221 -268 c 1
 331 -198 425 -96 425 22 c 0
 425 85 418 136 401 176 c 1
 376 208 337 226 283 226 c 0
 267 226 249 223 234 218 c 1
 167 164 115 67 90 -12 c 1
 34 -44 l 1
 14 -11 l 1xc5
 17 199 24 320 24 525 c 0xc3
 23 525 21 528 20 529 c 2
 0 562 l 1
EndSplineSet
Validated: 1
Ligature2: "'liga' Standard Ligatures in Latin lookup 0-1" t a
EndChar

StartChar: Drva
Encoding: 284 -1 58
Width: 721
VWidth: 0
Flags: W
HStem: 585 21G<238.824 284.545 486.651 537> 796 21G<83.4848 114 238.824 284.545 486.651 537> 880 20G<135.061 180.176 394.061 443.172>
VStem: 0 76<434.158 508.495> 112 75<73.2366 368 577.633 807>
LayerCount: 2
Fore
SplineSet
95 796 m 1
 76 829 l 1
 90 843 99 853 113 867 c 1
 169 900 l 1
 188 866 l 1
 192 631 197 688 197 453 c 0
 197 442 194 430 186 420 c 1
 186 411 187 403 187 394 c 0
 189 292 195 213 195 94 c 0
 195 86 197 78 198 73 c 0
 236 35 311 28 373 34 c 0
 410 38 444 46 471 58 c 1
 506 83 532 114 555 145 c 1
 611 178 l 1
 630 144 l 1
 602 105 569 68 521 40 c 2
 521 40 520 39 519 39 c 2
 463 6 l 2
 428 -14 387 -29 336 -34 c 0
 267 -42 179 -29 150 22 c 2
 130 55 l 2
 124 66 119 80 119 95 c 0
 119 203 114 279 112 368 c 1
 105 365 l 2
 104 364 l 0
 95 360 88 356 79 356 c 0
 62 356 46 372 35 390 c 2
 15 424 l 1
 15 425 14 425 14 426 c 0
 5 442 0 462 0 477 c 0
 0 494 26 522 50 535 c 2
 106 568 l 2
 107 568 107 568 107 568 c 0
 112 571 117 573 121 574 c 1
 120 722 117 648 114 807 c 1
 95 796 l 1
250 585 m 1
 231 619 l 1
 372 771 l 1
 428 804 l 1
 538 659 l 1
 558 625 l 1
 502 593 l 1
 403 722 l 1
 307 618 l 1
 250 585 l 1
110 424 m 1
 110 444 110 463 110 486 c 0
 110 490 108 498 107 503 c 0
 104 506 98 508 94 509 c 1
 83 498 76 486 76 476 c 0
 76 465 78 453 82 441 c 0
 90 432 99 426 110 424 c 1
EndSplineSet
Validated: 33
LCarets2: 1 0
Ligature2: "'liga' Standard Ligatures in Latin lookup 0-1" v a
EndChar

StartChar: Drxa
Encoding: 285 -1 59
Width: 491
VWidth: 0
Flags: W
HStem: -13 67<118.941 276.195> 470 66<154.586 277.899> 550 21G<57.8235 103.545 306.496 356.375> 550 21G<57.8235 103.545 306.496 356.375> 748 20G<212 262.417>
VStem: 0 76<97.3193 387.648>
LayerCount: 2
Fore
SplineSet
69 550 m 5xec
 50 584 l 5
 191 736 l 5
 247 768 l 5
 358 624 l 5
 377 590 l 5
 322 558 l 5
 222 687 l 5
 126 583 l 5
 69 550 l 5xec
399 414 m 1
 342 381 l 1
 292 436 256 470 186 470 c 0
 178 470 170 469 162 467 c 1
 112 423 76 345 76 270 c 0
 76 213 80 148 101 101 c 1
 124 72 156 54 205 54 c 0
 234 54 259 58 280 66 c 1
 297 80 312 95 326 116 c 1
 382 148 l 1
 402 115 l 1
 380 85 357 62 329 46 c 2
 329 46 329 46 328 46 c 2
 272 13 l 2
 243 -4 209 -13 168 -13 c 0
 112 -13 76 12 54 50 c 2
 35 83 l 2
 6 133 0 206 0 271 c 0
 0 360 52 453 115 489 c 2
 170 521 l 2
 187 531 206 536 223 536 c 0
 293 536 329 502 379 447 c 1
 399 414 l 1
EndSplineSet
Validated: 1
LCarets2: 1 0
Ligature2: "'liga' Standard Ligatures in Latin lookup 0-1" x a
EndChar

StartChar: Drza
Encoding: 286 -1 60
Width: 548
VWidth: 0
Flags: W
HStem: -18 66<151.017 293.905> 517 20G<21 68.1212> 537 223G<21 68.1212 248.625 298.417> 561 21G<95.1429 139.939 342.531 393> 561 21G<95.1429 139.939 342.531 393>
VStem: 0 76<218.355 504> 378 76<-176.371 74 213.001 498>
LayerCount: 2
Fore
SplineSet
106 561 m 5x96
 87 596 l 5
 228 748 l 5
 283 780 l 5
 394 636 l 5
 414 602 l 5
 358 570 l 5
 259 698 l 5
 162 594 l 5
 106 561 l 5x96
56 537 m 1xc6
 76 504 l 1
 76 375 70 211 117 110 c 1
 145 71 186 48 244 48 c 0
 260 48 276 50 288 53 c 1
 374 139 355 345 378 499 c 1
 434 532 l 1
 454 498 l 1
 453 262 465 123 452 -106 c 0
 449 -170 394 -229 327 -268 c 2
 271 -300 l 2
 269 -300 l 2
 187 -347 86 -365 29 -327 c 1
 10 -294 l 1
 66 -261 l 1
 117 -295 202 -284 278 -248 c 1
 331 -211 373 -160 376 -105 c 0
 380 -40 380 18 381 74 c 1
 369 57 355 42 338 32 c 2
 282 0 l 2
 261 -12 237 -18 207 -18 c 0
 141 -18 97 12 69 60 c 2
 50 93 l 2
 -7 193 0 369 0 505 c 1
 56 537 l 1xc6
EndSplineSet
Validated: 33
Ligature2: "'liga' Standard Ligatures in Latin lookup 0-1" z a
EndChar

StartChar: DrAe
Encoding: 287 -1 61
Width: 709
VWidth: 0
Flags: W
HStem: -337 66<129.856 374.803> 469 66<56 361.25> 479 68<157.742 395> 678 66<166 418>
VStem: 521 76<-112 37.0304>
LayerCount: 2
Fore
SplineSet
109 712 m 5x98
 166 744 l 5
 455 746 l 5
 474 713 l 5
 418 680 l 5
 129 678 l 5
 109 712 l 5x98
0 503 m 1
 56 535 l 1xd8
 477 547 l 1
 496 512 l 1
 209 113 l 1
 233 127 l 2
 294 162 358 184 437 166 c 0
 487 154 522 123 545 84 c 2
 564 51 l 2
 564 50 l 2
 586 11 597 -34 597 -83 c 0
 597 -98 595 -114 592 -128 c 1
 612 -132 630 -136 651 -139 c 1
 671 -172 l 1
 614 -205 l 1
 596 -202 577 -198 559 -195 c 1
 542 -217 520 -234 495 -248 c 2
 439 -281 l 2
 362 -325 253 -340 157 -337 c 0
 118 -336 79 -303 57 -266 c 2
 38 -232 l 1
 38 -231 37 -232 37 -231 c 0
 17 -197 14 -160 41 -145 c 2
 98 -113 l 2
 99 -112 101 -110 103 -109 c 0
 248 -46 366 -78 519 -112 c 1
 520 -102 521 -92 521 -82 c 0
 521 -40 513 -1 497 35 c 1
 475 65 442 90 400 100 c 0
 333 116 276 101 222 74 c 0
 198 59 171 40 145 24 c 2
 89 -9 l 1
 69 25 l 1
 395 479 l 1xb8
 20 469 l 1xd8
 0 503 l 1
493 -181 m 1
 348 -149 235 -118 102 -162 c 1
 96 -176 96 -196 105 -217 c 1
 127 -246 160 -270 194 -271 c 0
 278 -274 371 -262 445 -230 c 1
 462 -217 481 -199 493 -181 c 1
EndSplineSet
Validated: 33
Ligature2: "'liga' Standard Ligatures in Latin lookup 0-1" A e
EndChar

StartChar: DrDe
Encoding: 288 -1 62
Width: 678
VWidth: 0
Flags: W
HStem: -181 66<207 460> -4.99023 55.9805<224.086 401.184>
VStem: 4.51953 66.9619<-354.99 166.807 183.01 801.463> 482.52 66.9609<617.684 778.091> 544.52 66.9609<179.539 394.813>
LayerCount: 2
Fore
SplineSet
71.4814453125 166.806640625 m 5xe8
 71.48046875 -354.990234375 l 5
 19.51953125 -384.990234375 l 5
 4.51953125 -359.009765625 l 5
 4.51953125 170.545898438 l 5
 4.51953125 701.990234375 l 6
 4.51953125 757.990234375 12.51953125 794.990234375 68.51953125 834.990234375 c 4
 82.6201171875 845.0625 95.720703125 853.595703125 108.0703125 860.737304688 c 6
 160.032226562 890.737304688 l 6
 160.451171875 890.978515625 160.97265625 891.279296875 160.97265625 891.279296875 c 6
 259.743164062 947.873046875 310.309570312 915.616210938 440.48046875 869.990234375 c 4
 459.297851562 863.39453125 492.768554688 851.641601562 514.275390625 814.33203125 c 6
 529.275390625 788.3515625 l 6
 541.224609375 767.624023438 549.48046875 739.009765625 549.48046875 699.009765625 c 4xf0
 549.48046875 646.272460938 526.096679688 614.141601562 489.727539062 593.080078125 c 6
 437.765625 563.080078125 l 6
 437.44921875 562.897460938 437.052734375 562.669921875 437.052734375 562.669921875 c 6
 405.360351562 544.595703125 363.357421875 534.612304688 321.380859375 527.176757812 c 5
 423.526367188 513.734375 527.904296875 502.690429688 572.999023438 424.891601562 c 6
 588.002929688 398.905273438 l 6
 588.25 398.470703125 588.264648438 398.446289062 588.514648438 398.013671875 c 4
 603.138671875 372.362304688 611.48046875 339.508789062 611.48046875 297.009765625 c 4
 611.48046875 196.532226562 555.845703125 110.717773438 474.315429688 63.6416015625 c 6
 422.354492188 33.6416015625 l 6
 422.017578125 33.4462890625 421.595703125 33.2041015625 421.595703125 33.2041015625 c 4
 378.70703125 8.6728515625 329.68359375 -4.990234375 277.51953125 -4.990234375 c 4
 182.849609375 -4.990234375 128.4140625 68.1650390625 85.3583984375 142.770507812 c 6
 71.4814453125 166.806640625 l 5xe8
71.4814453125 183.009765625 m 5
 116.48046875 208.990234375 l 5
 127.984375 189.065429688 l 6
 169.786132812 118.604492188 223.944335938 50.990234375 314.481445312 50.990234375 c 4
 356.3515625 50.990234375 396.76953125 60.029296875 432.50390625 75.96484375 c 5
 499.684570312 124.93359375 544.51953125 202.98828125 544.51953125 292.990234375 c 4xe8
 544.51953125 328.815429688 538.905273438 356.833007812 528.05078125 381.188476562 c 5
 457.560546875 478.001953125 282.064453125 456.149414062 155.518554688 495.908203125 c 5
 140.518554688 521.889648438 l 5
 192.48046875 551.889648438 l 5
 273.077148438 575.55078125 374.063476562 577.938476562 445.5078125 605.318359375 c 5
 468.263671875 625.661132812 482.51953125 654.104492188 482.51953125 694.990234375 c 4
 482.51953125 726.95703125 477.538085938 750.750976562 469.083984375 770.736328125 c 5
 448.551757812 797.68359375 419.8515625 808.28515625 403.51953125 814.009765625 c 4
 284.400390625 855.76171875 231.915039062 886.274414062 148.180664062 847.846679688 c 4
 145.27734375 845.8828125 139.62890625 841.97265625 135.481445312 839.009765625 c 4
 79.48046875 799.009765625 71.4814453125 762.009765625 71.4814453125 706.009765625 c 6
 71.4814453125 183.009765625 l 5
151 -147 m 1
 207 -115 l 1
 497 -113 l 1
 517 -146 l 1
 460 -179 l 1
 170 -181 l 1
 151 -147 l 1
EndSplineSet
Validated: 33
LCarets2: 1 0
Ligature2: "'liga' Standard Ligatures in Latin lookup 0-1" D e
EndChar

StartChar: DrEe
Encoding: 289 -1 63
Width: 647
VWidth: 0
Flags: W
HStem: -334 66<192.367 372.193> 491 66<170.267 356.562> 638 66<142 395>
VStem: 0 76<226.759 393.173>
LayerCount: 2
Fore
SplineSet
86 672 m 5
 142 704 l 5
 432 706 l 5
 452 673 l 5
 395 640 l 5
 105 638 l 5
 86 672 l 5
499 452 m 1
 443 419 l 1
 366 459 319 491 232 491 c 0
 209 491 188 487 168 479 c 1
 111 431 76 351 76 270 c 0
 76 259 77 247 80 238 c 0
 126 184 225 155 312 79 c 0
 378 22 470 -24 499 -76 c 2
 519 -109 l 2
 520 -110 l 0
 526 -121 529 -131 529 -142 c 0
 529 -146 529 -152 529 -156 c 1
 545 -161 561 -167 577 -171 c 1
 597 -205 l 1
 541 -237 l 1
 526 -233 510 -228 496 -224 c 1
 483 -239 466 -252 446 -263 c 2
 390 -296 l 2
 349 -320 298 -334 248 -334 c 0
 179 -334 73 -265 42 -211 c 2
 23 -177 l 2
 10 -154 9 -133 30 -121 c 2
 87 -89 l 2
 88 -88 l 0
 91 -86 94 -84 98 -83 c 0
 225 -40 334 -85 452 -129 c 1
 452 -128 452 -127 451 -125 c 0
 414 -82 333 -39 275 12 c 0
 180 94 70 123 32 187 c 2
 31 188 l 2
 12 222 l 2
 3 236 0 253 0 271 c 0
 0 365 45 456 119 499 c 2
 176 532 l 2
 203 548 234 557 269 557 c 0
 356 557 403 525 480 485 c 1
 499 452 l 1
436 -203 m 1
 320 -160 212 -113 91 -142 c 1
 90 -147 90 -154 92 -162 c 0
 132 -212 223 -268 285 -268 c 0
 323 -268 362 -260 398 -245 c 1
 412 -234 426 -219 436 -203 c 1
EndSplineSet
Validated: 33
Ligature2: "'liga' Standard Ligatures in Latin lookup 0-1" E e
EndChar

StartChar: DrGe
Encoding: 290 -1 64
Width: 617
VWidth: 0
Flags: W
HStem: -168 66<129 382> -17 66<204.839 282.961> -4 53<230.843 281> 534 20G<22.0606 89.5> 534 20G<22.0606 89.5 221.375 293>
LayerCount: 2
Fore
SplineSet
73 -134 m 5x80
 129 -102 l 5
 419 -100 l 5
 439 -133 l 5
 382 -166 l 5
 92 -168 l 5
 73 -134 l 5x80
0 521 m 1
 56 554 l 1
 123 478 198 423 262 363 c 1
 310 407 366 455 427 524 c 0
 462 563 454 602 436 645 c 0
 414 697 392 750 362 805 c 0
 328 860 285 920 220 989 c 1
 200 1023 l 1
 257 1055 l 1
 329 978 374 912 408 854 c 2
 428 820 l 2
 465 756 486 699 511 642 c 0
 529 599 537 562 502 523 c 0
 428 440 364 388 310 336 c 0
 307 333 303 329 300 326 c 0
 323 302 344 276 360 247 c 2
 379 212 l 2
 382 207 385 202 388 197 c 0
 418 139 391 59 337 28 c 2
 281 -4 l 2
 280 -4 l 0xb0
 265 -13 248 -17 230 -17 c 0xc0
 195 -17 165 7 147 38 c 2
 128 72 l 2
 128 73 127 72 127 73 c 0
 105 111 99 158 119 194 c 0
 142 236 169 270 198 301 c 0
 201 304 206 309 209 312 c 1
 149 366 82 417 20 486 c 1
 0 521 l 1
250 273 m 1
 229 249 211 223 195 193 c 0
 179 163 181 123 195 88 c 1
 213 65 238 49 266 49 c 0xc0
 272 49 279 50 287 51 c 1
 322 88 336 148 312 197 c 0
 296 223 273 249 250 273 c 1
EndSplineSet
Validated: 33
Ligature2: "'liga' Standard Ligatures in Latin lookup 0-1" G e
EndChar

StartChar: DrHe
Encoding: 291 -1 65
Width: 524
VWidth: 0
Flags: W
HStem: -20 67<113.035 257.59> 478 66<120.156 282.145> 711 66<77 330>
VStem: 0 76<91.869 199.556> 313 76<337.086 438.476>
LayerCount: 2
Fore
SplineSet
21 745 m 5
 77 777 l 5
 367 779 l 5
 387 746 l 5
 330 713 l 5
 40 711 l 5
 21 745 l 5
32 417 m 1
 13 451 l 1
 31 463 48 474 64 484 c 2
 120 517 l 2
 121 517 121 518 121 518 c 0
 149 534 178 544 216 544 c 0
 273 544 331 522 356 479 c 2
 376 444 l 2
 384 430 389 415 389 398 c 0
 389 359 363 334 332 316 c 2
 275 284 l 2
 274 284 274 283 274 283 c 2
 244 266 209 253 183 239 c 2
 177 236 l 2
 176 236 176 235 176 235 c 2
 152 221 126 210 104 200 c 1
 87 185 76 168 76 143 c 0
 76 129 79 113 83 102 c 0
 112 66 159 47 208 47 c 0
 226 47 248 52 268 61 c 1
 305 87 336 118 359 145 c 1
 415 178 l 1
 434 143 l 1
 406 109 361 68 314 41 c 2
 259 9 l 2
 230 -8 198 -20 171 -20 c 0
 115 -20 62 8 36 52 c 2
 16 86 l 2
 6 103 0 123 0 145 c 0
 0 180 21 200 50 217 c 0
 50 217 50 218 51 218 c 2
 107 250 l 2
 137 267 175 280 210 300 c 2
 218 304 l 2
 235 314 258 323 280 333 c 1
 300 349 313 370 313 399 c 0
 313 410 311 420 308 429 c 0
 280 460 229 478 179 478 c 0
 152 478 129 473 108 464 c 0
 102 460 95 454 89 450 c 2
 32 417 l 1
EndSplineSet
Validated: 1
LCarets2: 1 0
Ligature2: "'liga' Standard Ligatures in Latin lookup 0-1" H e
EndChar

StartChar: DrIe
Encoding: 292 -1 66
Width: 572
VWidth: 0
Flags: W
HStem: -362 66<179.933 396.269> -9 66<140.395 318.223> 470 66<210.387 401> 651 66<142 395>
VStem: 405 76<-286.528 40.8921> 418 76<-219.892 50>
LayerCount: 2
Fore
SplineSet
86 685 m 5xf0
 142 717 l 5
 432 719 l 5
 452 686 l 5
 395 653 l 5
 105 651 l 5
 86 685 l 5xf0
457 503 m 1
 401 470 l 1
 334 486 253 478 184 447 c 1
 146 420 116 384 98 340 c 0
 70 273 69 190 98 126 c 1
 127 86 172 57 236 57 c 0
 323 57 456 138 472 110 c 2
 492 77 l 2
 493 76 l 0
 494 74 494 72 494 69 c 0xf4
 494 -55 481 -124 481 -248 c 0
 481 -277 467 -296 446 -308 c 2
 390 -340 l 2
 350 -363 280 -362 225 -362 c 0
 157 -362 104 -311 67 -247 c 2
 48 -213 l 1
 48 -212 47 -213 47 -212 c 0
 31 -185 19 -155 9 -126 c 1
 65 -93 l 1
 84 -127 l 2
 92 -151 102 -174 114 -197 c 0
 150 -252 199 -296 262 -296 c 0
 304 -296 354 -297 393 -287 c 1
 401 -277 405 -262 405 -246 c 0xf8
 405 -129 417 -62 418 50 c 1xf4
 376 47 271 -9 199 -9 c 0
 127 -9 80 25 51 75 c 0
 50 76 l 2
 30 109 l 2
 -8 175 -8 268 22 341 c 0
 45 396 85 438 134 466 c 0
 134 466 134 467 135 467 c 2
 192 499 l 2
 268 542 362 554 438 536 c 1
 457 503 l 1
EndSplineSet
Validated: 33
Ligature2: "'liga' Standard Ligatures in Latin lookup 0-1" I e
EndChar

StartChar: DrNe
Encoding: 293 -1 67
Width: 747
VWidth: 0
Flags: W
HStem: -181 66<194 447> -17 66<114.629 242.944 390.745 526.17> 517 20G<120 166.515> 517 20G<120 253>
VStem: 0 76<92.1527 391.25> 312 63<150.86 313> 581 75<101.381 469.429>
LayerCount: 2
Fore
SplineSet
138 -147 m 5xce
 194 -115 l 5
 484 -113 l 5
 504 -146 l 5
 447 -179 l 5
 157 -181 l 5
 138 -147 l 5xce
155 537 m 1xee
 174 504 l 1
 117 415 76 369 76 270 c 0
 76 210 81 140 103 90 c 1
 123 64 149 49 187 49 c 0
 207 49 224 51 237 54 c 1
 291 112 292 203 312 313 c 1
 348 346 l 1
 375 327 l 1
 369 253 329 145 389 79 c 1
 406 59 430 49 468 49 c 0
 489 49 508 52 522 56 c 1
 572 105 581 191 581 271 c 0
 581 407 543 531 483 640 c 1
 399 780 279 898 150 1002 c 1
 130 1036 l 1
 186 1068 l 1
 320 961 446 836 530 690 c 2
 549 656 l 2
 615 541 656 413 656 270 c 0
 656 178 646 78 573 36 c 2
 517 3 l 2
 494 -10 466 -17 431 -17 c 0
 384 -17 357 0 341 28 c 0
 340 28 l 2
 321 62 l 1
 321 63 l 1
 312 52 303 42 289 34 c 2
 288 34 l 2
 232 1 l 2
 211 -11 186 -17 151 -17 c 0
 107 -17 77 4 56 39 c 0
 56 40 l 2
 37 74 l 2
 7 126 0 204 0 271 c 0
 0 370 42 416 99 505 c 1
 155 537 l 1xee
EndSplineSet
Validated: 33
Ligature2: "'liga' Standard Ligatures in Latin lookup 0-1" N e
EndChar

StartChar: DrOe
Encoding: 294 -1 68
Width: 679
VWidth: 0
Flags: W
HStem: 593 20G<413 496.121> 593 20G<413 496.121> 690 66<194 447>
VStem: 510 76<-126.775 359.268>
LayerCount: 2
Fore
SplineSet
138 724 m 5x30
 194 756 l 5
 484 758 l 5
 504 725 l 5
 447 692 l 5
 157 690 l 5
 138 724 l 5x30
504 580 m 1
 447 547 l 1
 330 511 159 507 75 489 c 1
 75 488 75 488 75 488 c 1
 162 428 505 474 537 417 c 2
 557 384 l 2
 557 383 558 382 558 381 c 0
 582 321 583 238 586 145 c 0
 589 53 595 -47 568 -140 c 0
 566 -148 562 -153 554 -157 c 2
 497 -190 l 2
 432 -227 185 -118 31 -57 c 1
 12 -24 l 1
 68 9 l 1
 199 -43 399 -130 494 -131 c 1
 519 -41 513 57 510 146 c 0
 507 228 506 304 489 362 c 1
 417 405 68 360 24 437 c 2
 4 470 l 2
 1 475 -1 482 -1 490 c 0
 -1 498 5 503 14 508 c 2
 70 541 l 2
 127 575 342 571 484 613 c 1xb0
 504 580 l 1
EndSplineSet
Validated: 33
Ligature2: "'liga' Standard Ligatures in Latin lookup 0-1" O e
EndChar

StartChar: DrSe
Encoding: 295 -1 69
Width: 599
VWidth: 0
Flags: W
HStem: -23 66<159.534 327.037> 469 66<170.5 362.772> 742 66<69 291>
VStem: -16 76<144.088 374.85> 364 76<522 871>
LayerCount: 2
Fore
SplineSet
420 904 m 5
 440 871 l 5
 440 465 l 5
 384 432 l 5
 343 453 301 469 247 469 c 4
 215 469 182 462 154 450 c 5
 98 408 60 343 60 270 c 4
 60 224 71 178 91 138 c 5
 129 82 186 43 254 43 c 4
 288 43 316 50 341 61 c 5
 371 83 398 108 432 135 c 5
 489 168 l 5
 508 134 l 5
 464 98 429 64 388 40 c 6
 332 8 l 6
 300 -10 264 -23 217 -23 c 4
 142 -23 81 23 44 87 c 4
 44 88 43 87 43 88 c 4
 24 121 l 6
 -2 165 -16 219 -16 271 c 4
 -16 353 35 427 105 468 c 6
 106 469 l 6
 162 502 l 6
 199 523 241 535 284 535 c 4
 314 535 339 530 364 522 c 5
 364 872 l 5
 420 904 l 5
13 776 m 1
 69 808 l 1
 328 810 l 1
 348 777 l 1
 291 744 l 1
 32 742 l 1
 13 776 l 1
EndSplineSet
Validated: 1
LCarets2: 1 0
Ligature2: "'liga' Standard Ligatures in Latin lookup 0-1" S e
EndChar

StartChar: DrTe
Encoding: 296 -1 70
Width: 555
VWidth: 0
Flags: W
HStem: -142 66<116 369> -17 67<160.128 307.686> 481 66<159.564 308.009> 890 20G<194.455 279>
VStem: 0 76<140.172 396.373> 389 76<135.534 559.012>
LayerCount: 2
Fore
SplineSet
172 877 m 5
 229 910 l 5
 329 836 230.901719912 919.497654665 298 828 c 4
 320 798 338 769 354 741 c 6
 374 707 l 5
 374 706 375 707 375 706 c 4
 452 573 470 457 465 272 c 5
 408 239 l 5
 389 274 l 5
 394 453 377 563 308 691 c 4
 295 712 277.971010872 737.979492304 261 762 c 4
 196 854 292 768 192 842 c 5
 172 877 l 5
254 547 m 4
 322 547 375 507 407 451 c 6
 427 417 l 6
 451 375 465 323 465 272 c 4
 465 178 427 80 354 37 c 6
 353 37 l 6
 298 4 l 6
 275 -9 248 -17 218 -17 c 4
 148 -17 95 24 61 81 c 4
 61 82 60 80 60 81 c 4
 60 82 l 5
 40 116 l 6
 14 162 0 218 0 274 c 4
 0 363 40 450 110 491 c 6
 112 492 l 6
 168 524 l 6
 193 538 223 547 254 547 c 4
217 481 m 4
 196 481 176 476 160 471 c 5
 106 425 76 349 76 272 c 4
 76 223 86 173 106 132 c 5
 140 83 191 50 255 50 c 4
 273 50 292 53 306 57 c 5
 361 106 389 192 389 274 c 4
 389 318 378 364 361 401 c 5
 327 449 279 481 217 481 c 4
60 -108 m 1
 116 -76 l 1
 406 -74 l 1
 426 -107 l 1
 369 -140 l 1
 79 -142 l 1
 60 -108 l 1
EndSplineSet
Validated: 37
LCarets2: 1 0
Ligature2: "'liga' Standard Ligatures in Latin lookup 0-1" T e
EndChar

StartChar: DrUe
Encoding: 297 -1 71
Width: 716
VWidth: 0
Flags: W
HStem: 458 66<55 299.091> 476 67<304.854 529> 638 66<207 460>
VStem: 529 75<226.01 476>
LayerCount: 2
Fore
SplineSet
151 672 m 5x30
 207 704 l 5
 497 706 l 5
 517 673 l 5
 460 640 l 5
 170 638 l 5
 151 672 l 5x30
0 492 m 1
 55 524 l 1xb0
 262 530 378 537 585 543 c 1
 604 509 l 1
 606 199 644 23 612 -285 c 0
 611 -290 610 -295 607 -297 c 2
 550 -329 l 2
 535 -337 497 -298 468 -288 c 1
 448 -255 l 1
 504 -222 l 1
 516 -226 528 -233 541 -242 c 1
 565 29 533 201 529 476 c 1x70
 336 470 220 464 20 458 c 1xb0
 0 492 l 1
EndSplineSet
Validated: 33
Ligature2: "'liga' Standard Ligatures in Latin lookup 0-1" U e
EndChar

StartChar: DrYe
Encoding: 298 -1 72
Width: 721
VWidth: 0
Flags: W
HStem: -23 66<312.81 446.209> 528 20G<195.5 198.5 573.375 620.515> 528 20G<195.5 198.5 573.375 620.515> 677 66<259 512>
VStem: 555 73<296.123 505>
LayerCount: 2
Fore
SplineSet
203 711 m 5x98
 259 743 l 5
 549 745 l 5
 569 712 l 5
 512 679 l 5
 222 677 l 5
 203 711 l 5x98
20 -15 m 1
 0 18 l 1
 61 199 65 475 128 511 c 2
 183 544 l 2
 187 546 193 548 198 548 c 0xd8
 199 548 202 547 203 545 c 2
 222 511 l 2
 222 510 l 2
 239 478 224 233 288 99 c 1
 312 65 345 43 388 43 c 0
 409 43 428 47 443 51 c 1
 534 137 523 341 552 506 c 1
 609 538 l 1
 628 505 l 1
 619 197 650 7 604 -285 c 0
 601 -306 593 -318 580 -326 c 2
 523 -359 l 2
 455 -398 276 -299 187 -271 c 1
 168 -237 l 1
 224 -205 l 1
 300 -229 442 -304 524 -301 c 1
 526 -297 529 -290 530 -284 c 0
 553 -141 556 -20 555 99 c 1
 540 71 520 45 493 30 c 2
 437 -2 l 2
 414 -15 386 -23 351 -23 c 0
 301 -23 267 6 242 48 c 2
 222 81 l 2
 172 168 162 319 157 415 c 1
 132 313 117 141 76 17 c 1
 20 -15 l 1
EndSplineSet
Validated: 33
Ligature2: "'liga' Standard Ligatures in Latin lookup 0-1" Y e
EndChar

StartChar: DrZe
Encoding: 299 -1 73
Width: 719
VWidth: 0
Flags: W
HStem: -23 66<190.566 363.032> 207 67<109.523 308.014> 469 66<157.292 348.828> 729 66<246 499> 874 20G<101 148.121> 874 20G<101 148.121>
VStem: 80 76<508 861> 459 76<191.318 372.874>
LayerCount: 2
Fore
SplineSet
136 894 m 1xfb
 156 861 l 1
 156 508 l 1
 191 524 226 535 273 535 c 0
 361 535 444 485 486 411 c 2
 506 376 l 2
 524 344 535 308 535 270 c 0
 535 230 527 189 511 152 c 0
 511 151 510 151 510 150 c 0
 542 128 576 108 610 87 c 1
 629 53 l 1
 573 21 l 1
 538 42 505 62 471 84 c 1
 454 63 434 47 412 34 c 2
 356 1 l 2
 329 -14 298 -23 266 -23 c 0
 162 -23 78 46 30 102 c 0
 28 105 26 109 24 112 c 2
 4 145 l 2
 4 146 l 2
 -9 170 6 188 31 203 c 2
 88 235 l 2
 89 236 l 2
 133 261 207 274 230 274 c 0
 299 274 372 238 448 190 c 1
 456 217 459 244 459 271 c 0
 459 302 453 333 440 361 c 1
 396 425 317 469 236 469 c 0
 182 469 141 453 100 432 c 1
 80 466 l 1
 80 862 l 1
 136 894 l 1xfb
190 763 m 1
 246 795 l 1
 536 797 l 1
 556 764 l 1
 499 731 l 1
 209 729 l 1
 190 763 l 1
418 119 m 0
 340 168 265 207 193 207 c 0
 175 207 128 199 86 184 c 1
 80 176 76 169 76 159 c 1
 125 106 204 43 303 43 c 0
 325 43 344 48 364 54 c 1
 384 70 403 93 417 117 c 0
 417 117 418 118 418 119 c 0
EndSplineSet
Validated: 33
LCarets2: 1 0
Ligature2: "'liga' Standard Ligatures in Latin lookup 0-1" Z e
EndChar

StartChar: Drbe
Encoding: 300 -1 74
Width: 568
VWidth: 0
Flags: W
HStem: 491 66<152.08 311.364> 491 43<154 220.337> 718 66<116 369>
VStem: -23 76<17 303.332> 401 76<17 302.178>
LayerCount: 2
Fore
SplineSet
60 752 m 5x38
 116 784 l 5
 406 786 l 5
 426 753 l 5
 369 720 l 5
 79 718 l 5
 60 752 l 5x38
-3 -16 m 1
 -23 17 l 1
 -23 201 -27 429 98 502 c 2
 154 534 l 2
 155 534 l 0x78
 181 549 211 557 249 557 c 0
 324 557 373 523 403 470 c 2
 422 437 l 2
 422 436 l 2
 480 333 477 159 477 16 c 1
 420 -16 l 1
 401 17 l 1
 401 152 406 315 356 419 c 1
 326 462 279 491 212 491 c 0xb8
 187 491 167 487 147 481 c 1
 49 394 53 187 53 16 c 1
 -3 -16 l 1
EndSplineSet
Validated: 33
LCarets2: 1 0
Ligature2: "'liga' Standard Ligatures in Latin lookup 0-1" b e
EndChar

StartChar: Drde
Encoding: 301 -1 75
Width: 706
VWidth: 0
Flags: W
HStem: -363 21G<227.824 273.545> 2 62<302 434.427> 473 68<320.26 418.817> 625 66<207 460>
VStem: 224 76<-329 -8 64 341.425> 232 76<68.736 471.342> 541 75<112.139 319.166>
LayerCount: 2
Fore
SplineSet
151 659 m 5xf2
 207 691 l 5
 497 693 l 5
 517 660 l 5
 460 627 l 5
 170 625 l 5
 151 659 l 5xf2
300 2 m 1xfa
 298 -90 296 -187 296 -330 c 1
 239 -363 l 1
 220 -329 l 1
 220 -191 222 -97 224 -8 c 1xfa
 151 -16 80 -21 20 -27 c 1
 0 8 l 1
 56 40 l 1
 106 45 164 50 225 55 c 1
 228 159 232 265 232 427 c 0xf6
 232 452 251 477 278 493 c 2
 278 493 279 494 280 494 c 2
 336 526 l 2
 350 535 367 541 382 541 c 0
 432 541 495 489 541 411 c 2
 560 377 l 2
 594 320 616 248 616 172 c 0
 616 137 596 112 560 91 c 0
 559 91 l 2
 504 58 l 2
 455 30 380 14 300 2 c 1xfa
302 64 m 1
 380 74 456 87 509 109 c 1
 530 126 541 147 541 173 c 0
 541 241 521 308 494 361 c 1
 450 430 393 473 346 473 c 0
 341 473 331 473 328 472 c 0
 315 458 308 442 308 426 c 0xf6
 308 268 305 165 302 64 c 1
EndSplineSet
Validated: 1
Ligature2: "'liga' Standard Ligatures in Latin lookup 0-1" d e
EndChar

StartChar: Drfe
Encoding: 302 -1 76
Width: 529
VWidth: 0
Flags: W
HStem: -152 66<90 343> -25 66<112.108 300.072> 239 68<199.722 292> 482 66<141.153 306.481>
LayerCount: 2
Fore
SplineSet
34 -118 m 5
 90 -86 l 5
 380 -84 l 5
 400 -117 l 5
 343 -150 l 5
 53 -152 l 5
 34 -118 l 5
420 144 m 1
 440 109 l 1
 415 78 387 53 356 35 c 2
 300 2 l 2
 299 2 299 1 299 1 c 0
 269 -16 234 -25 193 -25 c 0
 125 -25 54 2 29 46 c 2
 10 79 l 2
 -1 97 -5 120 4 144 c 0
 17 180 41 204 69 220 c 2
 126 252 l 2
 127 252 127 252 127 252 c 2
 138 258 149 265 160 269 c 1
 124 283 98 303 80 334 c 2
 61 367 l 1
 61 368 l 2
 61 369 60 368 60 369 c 0
 54 381 47 396 43 411 c 0
 34 445 52 469 82 486 c 2
 139 519 l 2
 140 520 l 2
 174 540 220 548 266 548 c 0
 281 548 295 547 307 544 c 1
 296 587 286 631 265 672 c 0
 263 675 262 676 260 679 c 0
 223 730 141 836 81 867 c 1
 62 900 l 1
 118 933 l 1
 178 902 260 796 297 745 c 0
 302 737 308 730 312 722 c 2
 332 688 l 2
 372 619 377 547 401 474 c 0
 405 461 411 447 417 433 c 2
 422 426 l 2
 424 423 425 419 427 415 c 1
 370 382 l 1
 358 404 l 2
 349 416 341 426 333 436 c 0
 309 464 283 482 230 482 c 0
 198 482 162 478 134 468 c 1
 120 453 113 432 119 408 c 0
 121 399 125 394 128 385 c 0
 169 333 242 318 329 307 c 1
 349 272 l 1
 292 239 l 1
 237 225 173 221 120 200 c 1
 105 186 89 167 80 142 c 0
 74 125 74 110 78 95 c 1
 108 61 170 41 230 41 c 0
 259 41 285 45 308 54 c 1
 328 69 347 90 364 112 c 1
 420 144 l 1
EndSplineSet
Validated: 33
LCarets2: 1 0
Ligature2: "'liga' Standard Ligatures in Latin lookup 0-1" f e
EndChar

StartChar: Drge
Encoding: 303 -1 77
Width: 567
VWidth: 0
Flags: W
HStem: 14 66<181 434> 649 21G<8.57143 55> 768 66<147.751 293.918>
VStem: 27 76<-275 308> 420 76<369.02 650.571>
LayerCount: 2
Fore
SplineSet
125 48 m 5
 181 80 l 5
 471 82 l 5
 491 49 l 5
 434 16 l 5
 144 14 l 5
 125 48 l 5
20 649 m 1
 0 684 l 1
 31 723 55 761 93 783 c 2
 150 816 l 2
 151 816 151 817 151 817 c 0
 171 828 192 834 220 834 c 0
 311 834 393 781 439 702 c 2
 458 668 l 1
 458 667 459 668 459 667 c 0
 483 625 496 576 496 523 c 0
 496 439 478 331 394 282 c 2
 338 249 l 2
 337 249 337 249 337 249 c 0
 328 245 321 240 312 237 c 0
 234 208 158 251 103 308 c 1
 103 -296 l 1
 47 -328 l 1
 36 -327 32 -325 21 -324 c 1
 1 -290 l 1
 27 -275 l 1
 27 417 l 1
 83 450 l 1
 86 444 l 2
 136 360 236 265 344 302 c 1
 406 355 420 449 420 524 c 0
 420 571 409 614 391 652 c 1
 343 721 267 768 183 768 c 0
 168 768 155 766 143 763 c 1
 119 741 99 710 76 681 c 1
 20 649 l 1
EndSplineSet
Validated: 33
Ligature2: "'liga' Standard Ligatures in Latin lookup 0-1" g e
EndChar

StartChar: Drhe
Encoding: 304 -1 78
Width: 546
VWidth: 0
Flags: W
HStem: -20 67<154.573 326.029> 478 66<155.486 324.794> 734 66<116 369>
VStem: 0 76<125.921 398.628> 405 76<127.685 401.403>
LayerCount: 2
Fore
SplineSet
60 768 m 5
 116 800 l 5
 406 802 l 5
 426 769 l 5
 369 736 l 5
 79 734 l 5
 60 768 l 5
481 270 m 0
 481 169 447 77 375 36 c 2
 318 3 l 2
 292 -12 261 -20 224 -20 c 0
 145 -20 92 16 58 72 c 0
 57 73 l 2
 38 106 l 2
 12 152 0 209 0 273 c 0
 0 364 38 448 106 488 c 2
 162 520 l 2
 188 535 221 544 256 544 c 0
 336 544 393 508 427 450 c 2
 446 415 l 2
 469 375 481 325 481 270 c 0
405 271 m 0
 405 319 396 362 379 399 c 1
 344 448 292 478 219 478 c 0
 196 478 174 473 156 467 c 1
 104 423 76 350 76 272 c 0
 76 217 85 162 105 122 c 1
 139 74 189 47 261 47 c 0
 285 47 308 50 326 56 c 1
 380 104 405 184 405 271 c 0
EndSplineSet
Validated: 1
LCarets2: 1 0
Ligature2: "'liga' Standard Ligatures in Latin lookup 0-1" e
Ligature2: "'liga' Standard Ligatures in Latin lookup 0-1" h e
EndChar

StartChar: Drke
Encoding: 305 -1 79
Width: 615
VWidth: 0
Flags: W
HStem: -288 66<82.3779 132.5> 60 58<221 346.5> 588 20G<168.455 214.176> 588 20G<168.455 214.176> 677 66<194 447>
VStem: 0 76<-214.013 -5.01463> 145 76<-221.147 36 118 524> 463 75<251.113 399>
LayerCount: 2
Fore
SplineSet
138 711 m 5xcf
 194 743 l 5
 484 745 l 5
 504 712 l 5
 447 679 l 5
 157 677 l 5
 138 711 l 5xcf
118 508 m 1
 99 542 l 1
 117 555 128 562 146 575 c 2
 203 608 l 1xef
 222 574 l 1
 221 118 l 1
 270 131 322 131 363 145 c 0
 367 148 369 151 372 154 c 0
 441 228 455 296 463 399 c 1
 519 431 l 1
 538 398 l 1
 530 295 516 227 447 153 c 0
 436 141 425 132 413 126 c 2
 356 93 l 2
 316 69 269 68 221 60 c 1
 221 58 l 1
 221 -145 l 1
 215 -187 201 -230 171 -247 c 2
 115 -280 l 2
 105 -285 93 -288 80 -288 c 0
 57 -288 44 -278 35 -262 c 2
 15 -229 l 2
 -3 -198 0 -141 0 -95 c 0
 0 -21 42 24 106 61 c 2
 145 83 l 1
 145 91 l 1
 146 524 l 1
 118 508 l 1
145 36 m 1
 102 4 76 -38 76 -96 c 0
 76 -133 72 -176 82 -210 c 1
 90 -216 102 -222 117 -222 c 0
 118 -222 117 -222 119 -222 c 0
 132 -204 141 -173 145 -144 c 2
 145 36 l 1
EndSplineSet
Validated: 33
Ligature2: "'liga' Standard Ligatures in Latin lookup 0-1" k e
EndChar

StartChar: Drle
Encoding: 306 -1 80
Width: 614
VWidth: 0
Flags: W
HStem: -23 66<181.43 351.094> 469 66<145.292 335.097> 690 66<220 448> 875 20G<89.375 136.515> 875 20G<89.375 136.515>
VStem: 68 76<508 862> 448 76<145.687 370.67>
LayerCount: 2
Fore
SplineSet
125 895 m 5xf6
 144 862 l 5
 144 508 l 5
 179 524 214 535 261 535 c 4
 349 535 434 485 476 411 c 6
 495 376 l 6
 513 344 524 308 524 270 c 4
 524 176 477 78 401 34 c 6
 344 1 l 6
 317 -14 287 -23 255 -23 c 4
 151 -23 99 37 20 102 c 5
 0 135 l 5
 56 168 l 5
 135 103 187 43 291 43 c 4
 313 43 332 48 352 54 c 5
 412 103 448 188 448 271 c 4
 448 302 441 333 428 361 c 5
 384 425 305 469 224 469 c 4
 170 469 129 453 88 432 c 5
 68 466 l 5
 68 863 l 5
 125 895 l 5xf6
164 724 m 1
 220 756 l 1
 485 758 l 1
 505 725 l 1
 448 692 l 1
 183 690 l 1
 164 724 l 1
EndSplineSet
Validated: 1
LCarets2: 1 0
Ligature2: "'liga' Standard Ligatures in Latin lookup 0-1" l e
EndChar

StartChar: Drme
Encoding: 307 -1 81
Width: 529
VWidth: 0
Flags: W
HStem: -25 66<138.512 326.84> 239 68<146 245.375> 482 66<138.158 299.361> 705 66<103 356>
LayerCount: 2
Fore
SplineSet
47 739 m 5
 103 771 l 5
 393 773 l 5
 413 740 l 5
 356 707 l 5
 66 705 l 5
 47 739 l 5
37 394 m 1
 17 428 l 1
 41 459 58 484 84 499 c 2
 141 532 l 2
 142 533 l 0
 159 543 180 548 209 548 c 0
 275 548 346 529 370 489 c 2
 390 455 l 2
 390 454 l 0
 398 441 399 425 395 408 c 0
 383 361 359 334 325 314 c 2
 269 282 l 1
 269 282 390 223 404 199 c 2
 424 166 l 2
 428 158 431 151 434 142 c 0
 450 98 427 61 386 37 c 2
 329 4 l 2
 328 4 l 2
 294 -16 252 -25 209 -25 c 0
 123 -25 70 16 20 77 c 1
 0 112 l 1
 55 144 l 1
 105 83 160 41 246 41 c 0
 276 41 308 46 335 56 c 1
 360 79 372 109 359 144 c 0
 358 146 357 148 356 150 c 0
 303 218 196 216 110 239 c 1
 91 274 l 1
 146 307 l 2
 150 308 156 307 160 308 c 0
 202 313 240 320 274 333 c 1
 295 351 311 377 320 411 c 0
 322 421 322 430 321 438 c 0
 291 467 228 482 172 482 c 0
 157 482 144 480 133 478 c 1
 120 465 108 447 93 427 c 1
 37 394 l 1
EndSplineSet
Validated: 33
LCarets2: 1 0
Ligature2: "'liga' Standard Ligatures in Latin lookup 0-1" m e
EndChar

StartChar: Drne
Encoding: 308 -1 82
Width: 539
VWidth: 0
Flags: W
HStem: -18 66<155.364 312.928> 482 66<186.16 374> 729 66<181 353>
VStem: 0 76<134.829 374.375> 26 76<623.738 873>
LayerCount: 2
Fore
SplineSet
468 96 m 5xf0
 412 64 l 6
 400 60 387 53 378 49 c 6
 323 16 l 6
 322 16 321 15 321 15 c 4
 287 -5 255 -18 208 -18 c 4
 142 -18 92 21 61 76 c 6
 41 109 l 6
 14 156 0 215 0 271 c 4xf0
 0 367 38 390 106 457 c 4
 115 466 123 473 133 478 c 6
 173 500 l 5
 152 505 135 512 115 525 c 4
 97 537 84 554 74 571 c 6
 54 604 l 6
 53 606 l 6
 30 646 26 695 26 743 c 4
 26 856 28 761 28 874 c 5
 84 907 l 5
 104 873 l 5
 104 760 102 855 102 742 c 4xe8
 102 701 106 659 121 622 c 4
 129 612 140 602 152 593 c 4
 232 540 319 574 411 548 c 5
 430 515 l 5
 374 482 l 5
 296 460 235 471 183 456 c 5
 183 456 183 457 182 456 c 4
 114 389 76 366 76 270 c 4
 76 220 85 169 107 125 c 5
 138 79 185 48 245 48 c 4
 284 48 313 58 341 73 c 6
 395 104 l 6
 411 114 428 123 448 131 c 5
 468 96 l 5xf0
125 763 m 1
 181 795 l 1
 390 797 l 1
 410 764 l 1
 353 731 l 1
 144 729 l 1
 125 763 l 1
EndSplineSet
Validated: 1
LCarets2: 1 0
Ligature2: "'liga' Standard Ligatures in Latin lookup 0-1" n e
EndChar

StartChar: Drpe
Encoding: 309 -1 83
Width: 529
VWidth: 0
Flags: W
HStem: -23 66<111.075 302.954> 239 68<198.929 292> 482 66<140.554 314.392> 705 66<103 356>
LayerCount: 2
Fore
SplineSet
47 739 m 5
 103 771 l 5
 393 773 l 5
 413 740 l 5
 356 707 l 5
 66 705 l 5
 47 739 l 5
421 427 m 1
 365 394 l 1
 326 446 306 482 230 482 c 0
 198 482 161 477 134 468 c 1
 119 452 113 432 119 408 c 0
 121 399 125 391 128 385 c 0
 169 332 242 318 329 307 c 1
 349 272 l 1
 292 239 l 1
 237 225 171 220 120 200 c 1
 104 186 89 167 80 142 c 0
 74 126 75 110 78 96 c 1
 109 62 170 43 230 43 c 0
 260 43 287 48 311 57 c 1
 329 72 348 91 364 112 c 1
 420 144 l 1
 440 109 l 1
 416 79 391 55 361 38 c 2
 361 38 360 38 359 38 c 2
 302 5 l 2
 272 -12 236 -23 193 -23 c 0
 125 -23 53 4 28 47 c 2
 9 80 l 2
 -2 98 -5 120 4 144 c 0
 17 180 41 204 69 220 c 2
 126 252 l 2
 137 258 147 265 160 269 c 1
 126 283 98 303 80 334 c 2
 61 367 l 2
 53 379 47 395 43 411 c 0
 34 445 52 469 82 486 c 2
 139 519 l 2
 173 539 220 548 266 548 c 0
 342 548 363 512 402 460 c 1
 421 427 l 1
EndSplineSet
Validated: 33
LCarets2: 1 0
Ligature2: "'liga' Standard Ligatures in Latin lookup 0-1" p e
EndChar

StartChar: Drre
Encoding: 310 -1 84
Width: 569
VWidth: 0
Flags: W
HStem: -155 66<116 369> -21 67<164.097 321.946> 478 66<159.415 317.966> 976 20G<411 423.857>
VStem: -1 76<138.098 462> 413 76<140.157 387.756>
LayerCount: 2
Fore
SplineSet
60 -121 m 5
 116 -89 l 5
 406 -87 l 5
 426 -120 l 5
 369 -153 l 5
 79 -155 l 5
 60 -121 l 5
432 961 m 1
 407 948 l 2
 326 899 280 852 228 766 c 0
 113 576 83 462 75 269 c 1
 18 236 l 1
 -1 270 l 1
 7 463 37 578 152 768 c 0
 206 858 255 905 343 956 c 2
 400 988 l 2
 404 990 409 994 413 996 c 2
 432 961 l 1
413 270 m 0
 413 310 404 349 387 385 c 1
 350 439 290 478 218 478 c 0
 197 478 177 474 159 468 c 1
 106 424 75 347 75 269 c 0
 75 221 85 173 105 132 c 1
 140 81 193 46 260 46 c 0
 283 46 302 48 323 56 c 1
 380 104 413 187 413 270 c 0
489 269 m 0
 489 174 445 79 370 36 c 2
 315 3 l 2
 288 -12 257 -21 223 -21 c 0
 149 -21 93 21 58 82 c 2
 39 116 l 1
 38 117 l 2
 13 161 -1 216 -1 270 c 0
 -1 360 40 448 110 488 c 2
 167 520 l 2
 193 535 223 544 255 544 c 0
 334 544 397 499 434 434 c 2
 454 401 l 2
 477 362 489 317 489 269 c 0
EndSplineSet
Validated: 5
Ligature2: "'liga' Standard Ligatures in Latin lookup 0-1" r e
EndChar

StartChar: Drse
Encoding: 311 -1 85
Width: 631
VWidth: 0
Flags: W
HStem: -23 67<147.797 231> 471 66<113.526 212.681> 677 66<155 408>
VStem: 0 76<120.131 421.408> 233 75<-297.506 -22 50 331.411> 491 76<203.304 417.702>
LayerCount: 2
Fore
SplineSet
99 711 m 5
 155 743 l 5
 445 745 l 5
 465 712 l 5
 408 679 l 5
 118 677 l 5
 99 711 l 5
419 486 m 1
 476 519 l 1
 502 495 519 477 531 457 c 2
 550 422 l 2
 562 401 567 382 567 353 c 0
 567 233 515 109 410 48 c 2
 353 15 l 2
 352 14 l 0
 338 5 323 -1 308 -6 c 1
 310 -99 315 -190 321 -259 c 0
 322 -273 306 -306 295 -317 c 1
 238 -350 l 1
 219 -316 l 1
 230 -305 246 -272 245 -258 c 0
 239 -193 235 -110 233 -22 c 1
 224 -23 216 -23 207 -23 c 0
 135 -23 89 13 60 63 c 2
 40 96 l 2
 11 146 0 211 0 271 c 0
 0 355 31 470 80 498 c 2
 136 531 l 2
 144 535 151 537 159 537 c 0
 200 537 245 523 265 489 c 2
 285 455 l 1
 286 454 l 2
 290 446 294 437 295 427 c 0
 304 354 304 203 307 50 c 0
 308 50 308 50 309 50 c 0
 327 54 345 58 361 66 c 1
 448 131 491 244 491 354 c 0
 491 375 487 392 482 407 c 0
 471 421 457 436 439 453 c 1
 419 486 l 1
231 44 m 1
 228 199 228 353 219 428 c 0
 219 431 218 436 217 439 c 0
 195 461 163 470 129 471 c 1
 97 427 76 338 76 270 c 0
 76 217 84 161 106 113 c 1
 133 75 174 47 231 44 c 1
EndSplineSet
Validated: 33
Ligature2: "'liga' Standard Ligatures in Latin lookup 0-1" s e
EndChar

StartChar: Drte
Encoding: 312 -1 86
Width: 585
VWidth: 0
Flags: W
HStem: 226 68<239.938 378.37> 575 20G<22.0606 60> 575 20G<22.0606 60> 677 66<141 393>
VStem: 14 64<129 266.573> 24 76<256.974 525> 425 75<-87.532 177.697>
LayerCount: 2
Fore
SplineSet
84 711 m 5x92
 141 743 l 5
 430 745 l 5
 450 712 l 5
 393 679 l 5
 104 677 l 5
 84 711 l 5x92
0 562 m 1
 56 595 l 1
 64 590 76 589 79 583 c 2
 99 549 l 2
 100 548 100 546 100 544 c 0xd6
 100 387 81 258 78 129 c 1
 104 166 151 217 186 238 c 2
 243 271 l 2
 244 272 l 0
 269 286 293 294 320 294 c 0
 382 294 422 269 447 226 c 2
 467 193 l 2
 491 153 500 95 500 21 c 0
 500 -106 394 -214 269 -286 c 2
 212 -318 l 2
 166 -344 120 -366 73 -382 c 1
 53 -349 l 1
 109 -316 l 1
 146 -303 183 -288 221 -268 c 1
 331 -198 425 -96 425 22 c 0
 425 85 418 136 401 176 c 1
 376 208 337 226 283 226 c 0
 267 226 249 223 234 218 c 1
 167 164 115 67 90 -12 c 1
 34 -44 l 1
 14 -11 l 1xda
 17 199 24 320 24 525 c 0xd6
 23 525 21 528 20 529 c 2
 0 562 l 1
EndSplineSet
Validated: 1
Ligature2: "'liga' Standard Ligatures in Latin lookup 0-1" t e
EndChar

StartChar: Drve
Encoding: 313 -1 87
Width: 721
VWidth: 0
Flags: W
HStem: 651 66<272 525> 796 21G<83.4848 114> 880 20G<135.061 180.176>
VStem: 0 76<434.158 508.495> 112 75<73.2366 368 577.633 807>
LayerCount: 2
Fore
SplineSet
95 796 m 1
 76 829 l 1
 90 843 99 853 113 867 c 1
 169 900 l 1
 188 866 l 1
 192 631 197 688 197 453 c 0
 197 442 194 430 186 420 c 1
 186 411 187 403 187 394 c 0
 189 292 195 213 195 94 c 0
 195 86 197 78 198 73 c 0
 236 35 311 28 373 34 c 0
 410 38 444 46 471 58 c 1
 506 83 532 114 555 145 c 1
 611 178 l 1
 630 144 l 1
 602 105 569 68 521 40 c 2
 521 40 520 39 519 39 c 2
 463 6 l 2
 428 -14 387 -29 336 -34 c 0
 267 -42 179 -29 150 22 c 2
 130 55 l 2
 124 66 119 80 119 95 c 0
 119 203 114 279 112 368 c 1
 105 365 l 2
 104 364 l 0
 95 360 88 356 79 356 c 0
 62 356 46 372 35 390 c 2
 15 424 l 1
 15 425 14 425 14 426 c 0
 5 442 0 462 0 477 c 0
 0 494 26 522 50 535 c 2
 106 568 l 2
 107 568 107 568 107 568 c 0
 112 571 117 573 121 574 c 1
 120 722 117 648 114 807 c 1
 95 796 l 1
216 685 m 1
 272 717 l 1
 562 719 l 1
 582 686 l 1
 525 653 l 1
 235 651 l 1
 216 685 l 1
110 424 m 1
 110 444 110 463 110 486 c 0
 110 490 108 498 107 503 c 0
 104 506 98 508 94 509 c 1
 83 498 76 486 76 476 c 0
 76 465 78 453 82 441 c 0
 90 432 99 426 110 424 c 1
EndSplineSet
Validated: 33
LCarets2: 1 0
Ligature2: "'liga' Standard Ligatures in Latin lookup 0-1" v e
EndChar

StartChar: Drxe
Encoding: 314 -1 88
Width: 491
VWidth: 0
Flags: W
HStem: -13 67<118.941 276.195> 470 66<154.586 277.899> 638 66<90 343>
VStem: 0 76<97.3193 387.648>
LayerCount: 2
Fore
SplineSet
34 672 m 5
 90 704 l 5
 380 706 l 5
 400 673 l 5
 343 640 l 5
 53 638 l 5
 34 672 l 5
399 414 m 1
 342 381 l 1
 292 436 256 470 186 470 c 0
 178 470 170 469 162 467 c 1
 112 423 76 345 76 270 c 0
 76 213 80 148 101 101 c 1
 124 72 156 54 205 54 c 0
 234 54 259 58 280 66 c 1
 297 80 312 95 326 116 c 1
 382 148 l 1
 402 115 l 1
 380 85 357 62 329 46 c 2
 329 46 329 46 328 46 c 2
 272 13 l 2
 243 -4 209 -13 168 -13 c 0
 112 -13 76 12 54 50 c 2
 35 83 l 2
 6 133 0 206 0 271 c 0
 0 360 52 453 115 489 c 2
 170 521 l 2
 187 531 206 536 223 536 c 0
 293 536 329 502 379 447 c 1
 399 414 l 1
EndSplineSet
Validated: 1
Ligature2: "'liga' Standard Ligatures in Latin lookup 0-1" x e
EndChar

StartChar: Drze
Encoding: 315 -1 89
Width: 548
VWidth: 0
Flags: W
HStem: -18 66<151.017 293.905> 517 20G<21 68.1212> 517 20G<21 68.1212> 625 66<116 369>
VStem: 0 76<218.355 504> 378 76<-176.371 74 213.001 498>
LayerCount: 2
Fore
SplineSet
60 659 m 5x9c
 116 691 l 5
 406 693 l 5
 426 660 l 5
 369 627 l 5
 79 625 l 5
 60 659 l 5x9c
56 537 m 1xdc
 76 504 l 1
 76 375 70 211 117 110 c 1
 145 71 186 48 244 48 c 0
 260 48 276 50 288 53 c 1
 374 139 355 345 378 499 c 1
 434 532 l 1
 454 498 l 1
 453 262 465 123 452 -106 c 0
 449 -170 394 -229 327 -268 c 2
 271 -300 l 2
 269 -300 l 2
 187 -347 86 -365 29 -327 c 1
 10 -294 l 1
 66 -261 l 1
 117 -295 202 -284 278 -248 c 1
 331 -211 373 -160 376 -105 c 0
 380 -40 380 18 381 74 c 1
 369 57 355 42 338 32 c 2
 282 0 l 2
 261 -12 237 -18 207 -18 c 0
 141 -18 97 12 69 60 c 2
 50 93 l 2
 -7 193 0 369 0 505 c 1
 56 537 l 1xdc
EndSplineSet
Validated: 33
Ligature2: "'liga' Standard Ligatures in Latin lookup 0-1" z e
EndChar

StartChar: DrAi
Encoding: 316 -1 90
Width: 716
VWidth: 0
Flags: W
HStem: -337 66<136.797 381.591> 469 66<63 368.16> 479 68<164.5 402> 751 20G<121 168.121 399 446.121>
VStem: 528 75<-112 37.0304>
LayerCount: 2
Fore
SplineSet
156 771 m 5x98
 176 738 l 6
 177 737 178 732 178 732 c 4
 205 690 246 650 300 653 c 4
 310 654 320 656 328 658 c 5
 352 682 368 713 378 751 c 5
 434 783 l 5
 454 750 l 5
 440 700 417 660 379 637 c 6
 378 636 l 6
 322 603 l 6
 306 593 286 588 263 587 c 4
 202 584 159 634 132 681 c 4
 131 682 l 6
 112 716 l 6
 108 724 103 733 100 739 c 5
 156 771 l 5x98
6 503 m 1
 63 535 l 1xd8
 483 547 l 1
 503 512 l 1
 216 113 l 1
 239 127 l 2
 300 162 364 184 443 166 c 0
 493 154 528 123 551 84 c 2
 571 51 l 2
 571 50 l 2
 593 11 603 -34 603 -83 c 0
 603 -98 601 -114 598 -128 c 1
 618 -132 637 -136 658 -139 c 1
 677 -172 l 1
 621 -205 l 1
 603 -202 584 -198 566 -195 c 1
 549 -217 527 -234 502 -248 c 2
 445 -281 l 2
 368 -325 260 -340 164 -337 c 0
 125 -336 86 -303 64 -266 c 2
 44 -232 l 1
 44 -231 43 -232 43 -231 c 0
 23 -197 21 -160 48 -145 c 2
 104 -113 l 2
 105 -112 107 -110 109 -109 c 0
 254 -46 372 -78 525 -112 c 1
 526 -102 528 -92 528 -82 c 0
 528 -40 520 -1 504 35 c 1
 482 65 448 90 406 100 c 0
 339 116 283 101 229 74 c 0
 205 59 178 40 152 24 c 2
 95 -9 l 1
 76 25 l 1
 402 479 l 1xb8
 26 469 l 1xd8
 6 503 l 1
499 -181 m 1
 354 -149 241 -118 108 -162 c 1
 102 -176 103 -196 112 -217 c 1
 134 -246 166 -270 200 -271 c 0
 284 -274 378 -262 452 -230 c 1
 469 -217 487 -199 499 -181 c 1
EndSplineSet
Validated: 33
Ligature2: "'liga' Standard Ligatures in Latin lookup 0-1" a j
Ligature2: "'liga' Standard Ligatures in Latin lookup 0-1" A j
Ligature2: "'liga' Standard Ligatures in Latin lookup 0-1" A i
EndChar

StartChar: DrDi
Encoding: 317 -1 91
Width: 678
VWidth: 0
Flags: W
HStem: -4.99023 55.9805<224.086 401.184>
VStem: 4.51953 66.9619<-354.99 166.807 183.01 801.463> 482.52 66.9609<617.684 778.091> 544.52 66.9609<179.539 394.813>
LayerCount: 2
Fore
SplineSet
71.4814453125 166.806640625 m 5xd0
 71.48046875 -354.990234375 l 5
 19.51953125 -384.990234375 l 5
 4.51953125 -359.009765625 l 5
 4.51953125 170.545898438 l 5
 4.51953125 701.990234375 l 6
 4.51953125 757.990234375 12.51953125 794.990234375 68.51953125 834.990234375 c 4
 82.6201171875 845.0625 95.720703125 853.595703125 108.0703125 860.737304688 c 6
 160.032226562 890.737304688 l 6
 160.451171875 890.978515625 160.97265625 891.279296875 160.97265625 891.279296875 c 6
 259.743164062 947.873046875 310.309570312 915.616210938 440.48046875 869.990234375 c 4
 459.297851562 863.39453125 492.768554688 851.641601562 514.275390625 814.33203125 c 6
 529.275390625 788.3515625 l 6
 541.224609375 767.624023438 549.48046875 739.009765625 549.48046875 699.009765625 c 4xe0
 549.48046875 646.272460938 526.096679688 614.141601562 489.727539062 593.080078125 c 6
 437.765625 563.080078125 l 6
 437.44921875 562.897460938 437.052734375 562.669921875 437.052734375 562.669921875 c 6
 405.360351562 544.595703125 363.357421875 534.612304688 321.380859375 527.176757812 c 5
 423.526367188 513.734375 527.904296875 502.690429688 572.999023438 424.891601562 c 6
 588.002929688 398.905273438 l 6
 588.25 398.470703125 588.264648438 398.446289062 588.514648438 398.013671875 c 4
 603.138671875 372.362304688 611.48046875 339.508789062 611.48046875 297.009765625 c 4
 611.48046875 196.532226562 555.845703125 110.717773438 474.315429688 63.6416015625 c 6
 422.354492188 33.6416015625 l 6
 422.017578125 33.4462890625 421.595703125 33.2041015625 421.595703125 33.2041015625 c 4
 378.70703125 8.6728515625 329.68359375 -4.990234375 277.51953125 -4.990234375 c 4
 182.849609375 -4.990234375 128.4140625 68.1650390625 85.3583984375 142.770507812 c 6
 71.4814453125 166.806640625 l 5xd0
71.4814453125 183.009765625 m 5
 116.48046875 208.990234375 l 5
 127.984375 189.065429688 l 6
 169.786132812 118.604492188 223.944335938 50.990234375 314.481445312 50.990234375 c 4
 356.3515625 50.990234375 396.76953125 60.029296875 432.50390625 75.96484375 c 5
 499.684570312 124.93359375 544.51953125 202.98828125 544.51953125 292.990234375 c 4xd0
 544.51953125 328.815429688 538.905273438 356.833007812 528.05078125 381.188476562 c 5
 457.560546875 478.001953125 282.064453125 456.149414062 155.518554688 495.908203125 c 5
 140.518554688 521.889648438 l 5
 192.48046875 551.889648438 l 5
 273.077148438 575.55078125 374.063476562 577.938476562 445.5078125 605.318359375 c 5
 468.263671875 625.661132812 482.51953125 654.104492188 482.51953125 694.990234375 c 4
 482.51953125 726.95703125 477.538085938 750.750976562 469.083984375 770.736328125 c 5
 448.551757812 797.68359375 419.8515625 808.28515625 403.51953125 814.009765625 c 4
 284.400390625 855.76171875 231.915039062 886.274414062 148.180664062 847.846679688 c 4
 145.27734375 845.8828125 139.62890625 841.97265625 135.481445312 839.009765625 c 4
 79.48046875 799.009765625 71.4814453125 762.009765625 71.4814453125 706.009765625 c 6
 71.4814453125 183.009765625 l 5
182 -54 m 1
 202 -88 l 2
 203 -89 204 -93 204 -93 c 0
 231 -135 272 -175 326 -172 c 0
 336 -171 346 -170 354 -168 c 1
 378 -144 394 -113 404 -75 c 1
 460 -42 l 1
 480 -76 l 1
 466 -126 443 -165 405 -188 c 2
 404 -190 l 2
 348 -222 l 2
 332 -232 312 -237 289 -238 c 0
 228 -241 185 -191 158 -144 c 0
 157 -143 l 2
 138 -109 l 2
 134 -101 129 -93 126 -87 c 1
 182 -54 l 1
EndSplineSet
Validated: 33
LCarets2: 1 0
Ligature2: "'liga' Standard Ligatures in Latin lookup 0-1" D j
Ligature2: "'liga' Standard Ligatures in Latin lookup 0-1" D i
EndChar

StartChar: DrEi
Encoding: 318 -1 92
Width: 647
VWidth: 0
Flags: W
HStem: -334 66<192.367 372.193> 491 66<170.267 356.562> 764 20G<121 168.121 399 446.121>
VStem: 0 76<226.759 393.173>
LayerCount: 2
Fore
SplineSet
156 784 m 5
 176 751 l 6
 177 750 178 745 178 745 c 4
 205 703 246 663 300 666 c 4
 310 667 320 669 328 671 c 5
 352 695 368 726 378 764 c 5
 434 796 l 5
 454 763 l 5
 440 713 417 673 379 650 c 6
 378 649 l 6
 322 616 l 6
 306 606 286 601 263 600 c 4
 202 597 159 647 132 694 c 4
 131 696 l 6
 112 729 l 6
 108 737 103 746 100 752 c 5
 156 784 l 5
499 452 m 1
 443 419 l 1
 366 459 319 491 232 491 c 0
 209 491 188 487 168 479 c 1
 111 431 76 351 76 270 c 0
 76 259 77 247 80 238 c 0
 126 184 225 155 312 79 c 0
 378 22 470 -24 499 -76 c 2
 519 -109 l 2
 520 -110 l 0
 526 -121 529 -131 529 -142 c 0
 529 -146 529 -152 529 -156 c 1
 545 -161 561 -167 577 -171 c 1
 597 -205 l 1
 541 -237 l 1
 526 -233 510 -228 496 -224 c 1
 483 -239 466 -252 446 -263 c 2
 390 -296 l 2
 349 -320 298 -334 248 -334 c 0
 179 -334 73 -265 42 -211 c 2
 23 -177 l 2
 10 -154 9 -133 30 -121 c 2
 87 -89 l 2
 88 -88 l 0
 91 -86 94 -84 98 -83 c 0
 225 -40 334 -85 452 -129 c 1
 452 -128 452 -127 451 -125 c 0
 414 -82 333 -39 275 12 c 0
 180 94 70 123 32 187 c 2
 31 188 l 2
 12 222 l 2
 3 236 0 253 0 271 c 0
 0 365 45 456 119 499 c 2
 176 532 l 2
 203 548 234 557 269 557 c 0
 356 557 403 525 480 485 c 1
 499 452 l 1
436 -203 m 1
 320 -160 212 -113 91 -142 c 1
 90 -147 90 -154 92 -162 c 0
 132 -212 223 -268 285 -268 c 0
 323 -268 362 -260 398 -245 c 1
 412 -234 426 -219 436 -203 c 1
EndSplineSet
Validated: 33
Ligature2: "'liga' Standard Ligatures in Latin lookup 0-1" e j
Ligature2: "'liga' Standard Ligatures in Latin lookup 0-1" E j
Ligature2: "'liga' Standard Ligatures in Latin lookup 0-1" E i
EndChar

StartChar: DrGi
Encoding: 319 -1 93
Width: 617
VWidth: 0
Flags: W
HStem: -17 66<204.839 282.961> -4 53<230.843 281> 534 20G<22.0606 89.5> 534 20G<22.0606 89.5 221.375 293>
LayerCount: 2
Fore
SplineSet
130 -20 m 5x00
 150 -53 l 6
 151 -54 152 -57 152 -57 c 4
 179 -99 220 -141 274 -138 c 4
 284 -137 294 -135 302 -133 c 5
 326 -109 342 -77 352 -39 c 5
 408 -6 l 5
 428 -41 l 5
 414 -91 391 -131 353 -154 c 6
 352 -154 l 6
 296 -186 l 6
 280 -196 260 -203 237 -204 c 4
 176 -207 133 -155 106 -108 c 4
 105 -107 l 6
 86 -74 l 6
 82 -66 77 -58 74 -52 c 5
 130 -20 l 5x00
0 521 m 1
 56 554 l 1
 123 478 198 423 262 363 c 1
 310 407 366 455 427 524 c 0
 462 563 454 602 436 645 c 0
 414 697 392 750 362 805 c 0
 328 860 285 920 220 989 c 1
 200 1023 l 1
 257 1055 l 1
 329 978 374 912 408 854 c 2
 428 820 l 2
 465 756 486 699 511 642 c 0
 529 599 537 562 502 523 c 0
 428 440 364 388 310 336 c 0
 307 333 303 329 300 326 c 0
 323 302 344 276 360 247 c 2
 379 212 l 2
 382 207 385 202 388 197 c 0
 418 139 391 59 337 28 c 2
 281 -4 l 2
 280 -4 l 0x60
 265 -13 248 -17 230 -17 c 0x80
 195 -17 165 7 147 38 c 2
 128 72 l 2
 128 73 127 72 127 73 c 0
 105 111 99 158 119 194 c 0
 142 236 169 270 198 301 c 0
 201 304 206 309 209 312 c 1
 149 366 82 417 20 486 c 1
 0 521 l 1
250 273 m 1
 229 249 211 223 195 193 c 0
 179 163 181 123 195 88 c 1
 213 65 238 49 266 49 c 0x80
 272 49 279 50 287 51 c 1
 322 88 336 148 312 197 c 0
 296 223 273 249 250 273 c 1
EndSplineSet
Validated: 33
Ligature2: "'liga' Standard Ligatures in Latin lookup 0-1" G j
Ligature2: "'liga' Standard Ligatures in Latin lookup 0-1" G i
EndChar

StartChar: DrHi
Encoding: 320 -1 94
Width: 524
VWidth: 0
Flags: W
HStem: -20 67<113.035 257.59> 478 66<120.156 282.145> 798 20G<56 102.515 334 381.121>
VStem: 0 76<91.869 199.556> 313 76<337.086 438.476>
LayerCount: 2
Fore
SplineSet
91 818 m 5
 110 785 l 6
 111 784 113 779 113 779 c 4
 140 737 181 697 235 700 c 4
 245 701 255 703 263 705 c 5
 287 729 303 760 313 798 c 5
 369 830 l 5
 389 797 l 5
 375 747 352 707 314 684 c 6
 313 683 l 6
 257 650 l 6
 241 640 221 635 198 634 c 4
 137 631 94 681 67 728 c 4
 66 729 l 6
 47 763 l 6
 43 771 38 780 35 786 c 5
 91 818 l 5
32 417 m 1
 13 451 l 1
 31 463 48 474 64 484 c 2
 120 517 l 2
 121 517 121 518 121 518 c 0
 149 534 178 544 216 544 c 0
 273 544 331 522 356 479 c 2
 376 444 l 2
 384 430 389 415 389 398 c 0
 389 359 363 334 332 316 c 2
 275 284 l 2
 274 284 274 283 274 283 c 2
 244 266 209 253 183 239 c 2
 177 236 l 2
 176 236 176 235 176 235 c 2
 152 221 126 210 104 200 c 1
 87 185 76 168 76 143 c 0
 76 129 79 113 83 102 c 0
 112 66 159 47 208 47 c 0
 226 47 248 52 268 61 c 1
 305 87 336 118 359 145 c 1
 415 178 l 1
 434 143 l 1
 406 109 361 68 314 41 c 2
 259 9 l 2
 230 -8 198 -20 171 -20 c 0
 115 -20 62 8 36 52 c 2
 16 86 l 2
 6 103 0 123 0 145 c 0
 0 180 21 200 50 217 c 0
 50 217 50 218 51 218 c 2
 107 250 l 2
 137 267 175 280 210 300 c 2
 218 304 l 2
 235 314 258 323 280 333 c 1
 300 349 313 370 313 399 c 0
 313 410 311 420 308 429 c 0
 280 460 229 478 179 478 c 0
 152 478 129 473 108 464 c 0
 102 460 95 454 89 450 c 2
 32 417 l 1
EndSplineSet
Validated: 33
LCarets2: 1 0
Ligature2: "'liga' Standard Ligatures in Latin lookup 0-1" H j
Ligature2: "'liga' Standard Ligatures in Latin lookup 0-1" H i
EndChar

StartChar: DrIi
Encoding: 321 -1 95
Width: 572
VWidth: 0
Flags: W
HStem: -362 66<179.933 396.269> -9 66<140.395 318.223> 470 66<210.387 401> 751 20G<95 142.121 373 420.121>
VStem: 405 76<-286.528 40.8921> 418 76<-219.892 50>
LayerCount: 2
Fore
SplineSet
130 771 m 5xf0
 150 738 l 6
 151 737 152 732 152 732 c 4
 179 690 220 650 274 653 c 4
 284 654 294 656 302 658 c 5
 326 682 342 713 352 751 c 5
 408 783 l 5
 428 750 l 5
 414 700 391 660 353 637 c 6
 352 636 l 6
 296 603 l 6
 280 593 260 588 237 587 c 4
 176 584 133 634 106 681 c 4
 105 682 l 6
 86 716 l 6
 82 724 77 733 74 739 c 5
 130 771 l 5xf0
457 503 m 1
 401 470 l 1
 334 486 253 478 184 447 c 1
 146 420 116 384 98 340 c 0
 70 273 69 190 98 126 c 1
 127 86 172 57 236 57 c 0
 323 57 456 138 472 110 c 2
 492 77 l 2
 493 76 l 0
 494 74 494 72 494 69 c 0xf4
 494 -55 481 -124 481 -248 c 0
 481 -277 467 -296 446 -308 c 2
 390 -340 l 2
 350 -363 280 -362 225 -362 c 0
 157 -362 104 -311 67 -247 c 2
 48 -213 l 1
 48 -212 47 -213 47 -212 c 0
 31 -185 19 -155 9 -126 c 1
 65 -93 l 1
 84 -127 l 2
 92 -151 102 -174 114 -197 c 0
 150 -252 199 -296 262 -296 c 0
 304 -296 354 -297 393 -287 c 1
 401 -277 405 -262 405 -246 c 0xf8
 405 -129 417 -62 418 50 c 1xf4
 376 47 271 -9 199 -9 c 0
 127 -9 80 25 51 75 c 0
 50 76 l 2
 30 109 l 2
 -8 175 -8 268 22 341 c 0
 45 396 85 438 134 466 c 0
 134 466 134 467 135 467 c 2
 192 499 l 2
 268 542 362 554 438 536 c 1
 457 503 l 1
EndSplineSet
Validated: 33
Ligature2: "'liga' Standard Ligatures in Latin lookup 0-1" i j
Ligature2: "'liga' Standard Ligatures in Latin lookup 0-1" I j
Ligature2: "'liga' Standard Ligatures in Latin lookup 0-1" I i
EndChar

StartChar: DrNi
Encoding: 322 -1 96
Width: 747
VWidth: 0
Flags: W
HStem: -17 66<114.629 242.944 390.745 526.17> 517 20G<120 166.515> 517 20G<120 253>
VStem: 0 76<92.1527 391.25> 312 63<150.86 313> 581 75<101.381 469.429>
LayerCount: 2
Fore
SplineSet
195 -61 m 5x9c
 214 -94 l 6
 215 -95 217 -100 217 -100 c 4
 244 -142 285 -182 339 -179 c 4
 349 -178 359 -176 367 -174 c 5
 391 -150 407 -119 417 -81 c 5
 473 -49 l 5
 493 -82 l 5
 479 -132 456 -172 418 -195 c 6
 417 -196 l 6
 361 -229 l 6
 345 -239 325 -244 302 -245 c 4
 241 -248 198 -198 171 -151 c 4
 170 -150 l 6
 151 -116 l 6
 147 -108 142 -99 139 -93 c 5
 195 -61 l 5x9c
155 537 m 1xdc
 174 504 l 1
 117 415 76 369 76 270 c 0
 76 210 81 140 103 90 c 1
 123 64 149 49 187 49 c 0
 207 49 224 51 237 54 c 1
 291 112 292 203 312 313 c 1
 348 346 l 1
 375 327 l 1
 369 253 329 145 389 79 c 1
 406 59 430 49 468 49 c 0
 489 49 508 52 522 56 c 1
 572 105 581 191 581 271 c 0
 581 407 543 531 483 640 c 1
 399 780 279 898 150 1002 c 1
 130 1036 l 1
 186 1068 l 1
 320 961 446 836 530 690 c 2
 549 656 l 2
 615 541 656 413 656 270 c 0
 656 178 646 78 573 36 c 2
 517 3 l 2
 494 -10 466 -17 431 -17 c 0
 384 -17 357 0 341 28 c 0
 340 28 l 2
 321 62 l 1
 321 63 l 1
 312 52 303 42 289 34 c 2
 288 34 l 2
 232 1 l 2
 211 -11 186 -17 151 -17 c 0
 107 -17 77 4 56 39 c 0
 56 40 l 2
 37 74 l 2
 7 126 0 204 0 271 c 0
 0 370 42 416 99 505 c 1
 155 537 l 1xdc
EndSplineSet
Validated: 33
Ligature2: "'liga' Standard Ligatures in Latin lookup 0-1" N j
Ligature2: "'liga' Standard Ligatures in Latin lookup 0-1" N i
EndChar

StartChar: DrOi
Encoding: 323 -1 97
Width: 679
VWidth: 0
Flags: W
HStem: 593 20G<413 496.121> 777 20G<134 180.515 412 496.121>
VStem: 510 76<-126.775 359.268>
LayerCount: 2
Fore
SplineSet
169 797 m 5
 188 764 l 6
 189 763 191 758 191 758 c 4
 218 716 259 676 313 679 c 4
 323 680 333 682 341 684 c 5
 365 708 381 739 391 777 c 5
 447 809 l 5
 467 776 l 5
 453 726 430 686 392 663 c 6
 391 662 l 6
 335 629 l 6
 319 619 299 614 276 613 c 4
 215 610 172 660 145 707 c 4
 144 708 l 6
 125 742 l 6
 121 750 116 759 113 765 c 5
 169 797 l 5
504 580 m 1
 447 547 l 1
 330 511 159 507 75 489 c 1
 75 488 75 488 75 488 c 1
 162 428 505 474 537 417 c 2
 557 384 l 2
 557 383 558 382 558 381 c 0
 582 321 583 238 586 145 c 0
 589 53 595 -47 568 -140 c 0
 566 -148 562 -153 554 -157 c 2
 497 -190 l 2
 432 -227 185 -118 31 -57 c 1
 12 -24 l 1
 68 9 l 1
 199 -43 399 -130 494 -131 c 1
 519 -41 513 57 510 146 c 0
 507 228 506 304 489 362 c 1
 417 405 68 360 24 437 c 2
 4 470 l 2
 1 475 -1 482 -1 490 c 0
 -1 498 5 503 14 508 c 2
 70 541 l 2
 127 575 342 571 484 613 c 1
 504 580 l 1
EndSplineSet
Validated: 33
Ligature2: "'liga' Standard Ligatures in Latin lookup 0-1" O i
Ligature2: "'liga' Standard Ligatures in Latin lookup 0-1" O j
Ligature2: "'liga' Standard Ligatures in Latin lookup 0-1" o j
EndChar

StartChar: DrSi
Encoding: 324 -1 98
Width: 599
VWidth: 0
Flags: W
HStem: -23 66<159.534 327.037> 469 66<170.5 362.772> 784 20G<22.9091 63.7647 296.061 341.765>
VStem: -16 76<144.088 374.85> 4 68<730.949 770> 364 76<522 871>
LayerCount: 2
Fore
SplineSet
420 904 m 5xf4
 440 871 l 5
 440 465 l 5
 384 432 l 5
 343 453 301 469 247 469 c 4
 215 469 182 462 154 450 c 5
 98 408 60 343 60 270 c 4
 60 224 71 178 91 138 c 5
 129 82 186 43 254 43 c 4
 288 43 316 50 341 61 c 5
 371 83 398 108 432 135 c 5
 489 168 l 5
 508 134 l 5
 464 98 429 64 388 40 c 6
 332 8 l 6
 300 -10 264 -23 217 -23 c 4
 142 -23 81 23 44 87 c 4
 44 88 43 87 43 88 c 4
 24 121 l 6
 -2 165 -16 219 -16 271 c 4
 -16 353 35 427 105 468 c 6
 106 469 l 6
 162 502 l 6
 199 523 241 535 284 535 c 4
 314 535 339 530 364 522 c 5
 364 872 l 5
 420 904 l 5xf4
52 804 m 1
 72 770 l 2
 73 769 74 765 74 765 c 0
 101 723 142 683 196 686 c 0
 206 687 216 688 224 690 c 1
 248 714 264 745 274 783 c 1
 330 816 l 1
 350 782 l 1
 336 732 313 693 275 670 c 2
 274 668 l 2
 218 636 l 2
 202 626 182 621 159 620 c 0
 98 617 55 667 28 714 c 0
 27 715 l 2
 8 749 l 2
 4 757 7 765 4 771 c 1xec
 52 804 l 1
EndSplineSet
Validated: 33
LCarets2: 1 0
Ligature2: "'liga' Standard Ligatures in Latin lookup 0-1" S i
Ligature2: "'liga' Standard Ligatures in Latin lookup 0-1" S j
EndChar

StartChar: DrTi
Encoding: 325 -1 99
Width: 555
VWidth: 0
Flags: W
HStem: -43 20G<347 394.121> -17 67<160.128 307.686> 481 66<159.564 308.009> 890 20G<194.455 279>
VStem: 0 76<140.172 396.373> 389 76<135.534 559.012>
LayerCount: 2
Fore
SplineSet
172 877 m 5
 229 910 l 5
 329 836 230.901719912 919.497654665 298 828 c 4
 320 798 338 769 354 741 c 6
 374 707 l 5
 374 706 375 707 375 706 c 4
 452 573 470 457 465 272 c 5
 408 239 l 5
 389 274 l 5
 394 453 377 563 308 691 c 4
 295 712 277.971010872 737.979492304 261 762 c 4
 196 854 292 768 192 842 c 5
 172 877 l 5
254 547 m 4
 322 547 375 507 407 451 c 6
 427 417 l 6
 451 375 465 323 465 272 c 4
 465 178 427 80 354 37 c 6
 353 37 l 6
 298 4 l 6
 275 -9 248 -17 218 -17 c 4
 148 -17 95 24 61 81 c 4
 61 82 60 80 60 81 c 4
 60 82 l 5
 40 116 l 6
 14 162 0 218 0 274 c 4
 0 363 40 450 110 491 c 6
 112 492 l 6
 168 524 l 6
 193 538 223 547 254 547 c 4
217 481 m 4
 196 481 176 476 160 471 c 5
 106 425 76 349 76 272 c 4
 76 223 86 173 106 132 c 5
 140 83 191 50 255 50 c 4
 273 50 292 53 306 57 c 5
 361 106 389 192 389 274 c 4
 389 318 378 364 361 401 c 5
 327 449 279 481 217 481 c 4
104 -35 m 1
 124 -68 l 2
 125 -69 126 -74 126 -74 c 0
 153 -116 194 -156 248 -153 c 0
 258 -152 268 -150 276 -148 c 1
 300 -124 316 -93 326 -55 c 1
 382 -23 l 1
 402 -56 l 1
 388 -106 365 -146 327 -169 c 2
 326 -170 l 2
 270 -203 l 2
 254 -213 234 -218 211 -219 c 0
 150 -222 107 -172 80 -125 c 0
 79 -124 l 2
 60 -90 l 2
 56 -82 51 -73 48 -67 c 1
 104 -35 l 1
EndSplineSet
Validated: 37
LCarets2: 1 0
Ligature2: "'liga' Standard Ligatures in Latin lookup 0-1" T i
Ligature2: "'liga' Standard Ligatures in Latin lookup 0-1" T j
EndChar

StartChar: DrUi
Encoding: 326 -1 100
Width: 716
VWidth: 0
Flags: W
HStem: 458 66<55 299.091> 476 67<304.854 529> 751 20G<160 206.515 438 485.121>
VStem: 529 75<226.01 476>
LayerCount: 2
Fore
SplineSet
195 771 m 5x30
 214 738 l 6
 215 737 217 732 217 732 c 4
 244 690 285 650 339 653 c 4
 349 654 359 656 367 658 c 5
 391 682 407 713 417 751 c 5
 473 783 l 5
 493 750 l 5
 479 700 456 660 418 637 c 6
 417 636 l 6
 361 603 l 6
 345 593 325 588 302 587 c 4
 241 584 198 634 171 681 c 4
 170 682 l 6
 151 716 l 6
 147 724 142 733 139 739 c 5
 195 771 l 5x30
0 492 m 1
 55 524 l 1xb0
 262 530 378 537 585 543 c 1
 604 509 l 1
 606 199 644 23 612 -285 c 0
 611 -290 610 -295 607 -297 c 2
 550 -329 l 2
 535 -337 497 -298 468 -288 c 1
 448 -255 l 1
 504 -222 l 1
 516 -226 528 -233 541 -242 c 1
 565 29 533 201 529 476 c 1x70
 336 470 220 464 20 458 c 1xb0
 0 492 l 1
EndSplineSet
Validated: 33
Ligature2: "'liga' Standard Ligatures in Latin lookup 0-1" U i
Ligature2: "'liga' Standard Ligatures in Latin lookup 0-1" U j
Ligature2: "'liga' Standard Ligatures in Latin lookup 0-1" u j
EndChar

StartChar: DrYi
Encoding: 327 -1 101
Width: 721
VWidth: 0
Flags: W
HStem: -23 66<312.81 446.209> 528 20G<195.5 198.5 573.375 620.515> 548 203G<195.5 198.5 238 284.515 516 563.121 573.375 620.515>
VStem: 555 73<296.123 505>
LayerCount: 2
Fore
SplineSet
273 771 m 5xb0
 292 738 l 6
 293 737 295 732 295 732 c 4
 322 690 363 650 417 653 c 4
 427 654 437 656 445 658 c 5
 469 682 485 713 495 751 c 5
 551 783 l 5
 571 750 l 5
 557 700 534 660 496 637 c 6
 495 636 l 6
 439 603 l 6
 423 593 403 588 380 587 c 4
 319 584 276 634 249 681 c 4
 248 682 l 6
 229 716 l 6
 225 724 220 733 217 739 c 5
 273 771 l 5xb0
20 -15 m 1
 0 18 l 1
 61 199 65 475 128 511 c 2
 183 544 l 2
 187 546 193 548 198 548 c 0xd0
 199 548 202 547 203 545 c 2
 222 511 l 2
 222 510 l 2
 239 478 224 233 288 99 c 1
 312 65 345 43 388 43 c 0
 409 43 428 47 443 51 c 1
 534 137 523 341 552 506 c 1
 609 538 l 1
 628 505 l 1
 619 197 650 7 604 -285 c 0
 601 -306 593 -318 580 -326 c 2
 523 -359 l 2
 455 -398 276 -299 187 -271 c 1
 168 -237 l 1
 224 -205 l 1
 300 -229 442 -304 524 -301 c 1
 526 -297 529 -290 530 -284 c 0
 553 -141 556 -20 555 99 c 1
 540 71 520 45 493 30 c 2
 437 -2 l 2
 414 -15 386 -23 351 -23 c 0
 301 -23 267 6 242 48 c 2
 222 81 l 2
 172 168 162 319 157 415 c 1
 132 313 117 141 76 17 c 1
 20 -15 l 1
EndSplineSet
Validated: 33
Ligature2: "'liga' Standard Ligatures in Latin lookup 0-1" y j
Ligature2: "'liga' Standard Ligatures in Latin lookup 0-1" Y j
Ligature2: "'liga' Standard Ligatures in Latin lookup 0-1" Y i
EndChar

StartChar: DrZi
Encoding: 328 -1 102
Width: 719
VWidth: 0
Flags: W
HStem: -23 66<190.566 363.032> 207 67<109.523 308.014> 469 66<157.292 348.828> 803 20G<199 246.121> 874 20G<101 148.121> 874 20G<101 148.121 199 246.121 477 524.121>
VStem: 80 76<508 861> 459 76<191.318 372.874>
LayerCount: 2
Fore
SplineSet
136 894 m 1xfb
 156 861 l 1
 156 508 l 1
 191 524 226 535 273 535 c 0
 361 535 444 485 486 411 c 2
 506 376 l 2
 524 344 535 308 535 270 c 0
 535 230 527 189 511 152 c 0
 511 151 510 151 510 150 c 0
 542 128 576 108 610 87 c 1
 629 53 l 1
 573 21 l 1
 538 42 505 62 471 84 c 1
 454 63 434 47 412 34 c 2
 356 1 l 2
 329 -14 298 -23 266 -23 c 0
 162 -23 78 46 30 102 c 0
 28 105 26 109 24 112 c 2
 4 145 l 2
 4 146 l 2
 -9 170 6 188 31 203 c 2
 88 235 l 2
 89 236 l 2
 133 261 207 274 230 274 c 0
 299 274 372 238 448 190 c 1
 456 217 459 244 459 271 c 0
 459 302 453 333 440 361 c 1
 396 425 317 469 236 469 c 0
 182 469 141 453 100 432 c 1
 80 466 l 1
 80 862 l 1
 136 894 l 1xfb
234 823 m 1
 254 790 l 2
 255 789 256 784 256 784 c 0
 283 742 324 702 378 705 c 0
 388 706 398 708 406 710 c 1
 430 734 446 765 456 803 c 1
 512 835 l 1
 532 802 l 1
 518 752 495 712 457 689 c 2
 456 688 l 2
 400 655 l 2
 384 645 364 640 341 639 c 0
 280 636 237 686 210 733 c 0
 209 734 l 2
 190 768 l 2
 186 776 181 785 178 791 c 1
 234 823 l 1
418 119 m 0
 340 168 265 207 193 207 c 0
 175 207 128 199 86 184 c 1
 80 176 76 169 76 159 c 1
 125 106 204 43 303 43 c 0
 325 43 344 48 364 54 c 1
 384 70 403 93 417 117 c 0
 417 117 418 118 418 119 c 0
EndSplineSet
Validated: 33
LCarets2: 1 0
Ligature2: "'liga' Standard Ligatures in Latin lookup 0-1" Z j
Ligature2: "'liga' Standard Ligatures in Latin lookup 0-1" Z i
EndChar

StartChar: Drbi
Encoding: 329 -1 103
Width: 568
VWidth: 0
Flags: W
HStem: 491 66<152.08 311.364> 491 43<154 220.337> 829 20G<82 128.515 360 407.121>
VStem: -23 76<17 303.332> 401 76<17 302.178>
LayerCount: 2
Fore
SplineSet
117 849 m 5x38
 136 816 l 6
 137 815 139 810 139 810 c 4
 166 768 207 728 261 731 c 4
 271 732 281 734 289 736 c 5
 313 760 329 791 339 829 c 5
 395 861 l 5
 415 828 l 5
 401 778 378 738 340 715 c 6
 339 714 l 6
 283 681 l 6
 267 671 247 666 224 665 c 4
 163 662 120 712 93 759 c 4
 92 760 l 6
 73 794 l 6
 69 802 64 811 61 817 c 5
 117 849 l 5x38
-3 -16 m 1
 -23 17 l 1
 -23 201 -27 429 98 502 c 2
 154 534 l 2
 155 534 l 0x78
 181 549 211 557 249 557 c 0
 324 557 373 523 403 470 c 2
 422 437 l 2
 422 436 l 2
 480 333 477 159 477 16 c 1
 420 -16 l 1
 401 17 l 1
 401 152 406 315 356 419 c 1
 326 462 279 491 212 491 c 0xb8
 187 491 167 487 147 481 c 1
 49 394 53 187 53 16 c 1
 -3 -16 l 1
EndSplineSet
Validated: 33
LCarets2: 1 0
Ligature2: "'liga' Standard Ligatures in Latin lookup 0-1" b j
Ligature2: "'liga' Standard Ligatures in Latin lookup 0-1" b i
EndChar

StartChar: Drdi
Encoding: 330 -1 104
Width: 706
VWidth: 0
Flags: W
HStem: -363 21G<227.824 273.545> 2 62<302 434.427> 473 68<320.26 418.817> 777 20G<173 220.121 451 498.121>
VStem: 224 76<-329 -8 64 341.425> 232 76<68.736 471.342> 541 75<112.139 319.166>
LayerCount: 2
Fore
SplineSet
208 797 m 5xf2
 228 764 l 6
 229 763 230 758 230 758 c 4
 257 716 298 676 352 679 c 4
 362 680 372 682 380 684 c 5
 404 708 420 739 430 777 c 5
 486 809 l 5
 506 776 l 5
 492 726 469 686 431 663 c 6
 430 662 l 6
 374 629 l 6
 358 619 338 614 315 613 c 4
 254 610 211 660 184 707 c 4
 183 708 l 6
 164 742 l 6
 160 750 155 759 152 765 c 5
 208 797 l 5xf2
300 2 m 1xfa
 298 -90 296 -187 296 -330 c 1
 239 -363 l 1
 220 -329 l 1
 220 -191 222 -97 224 -8 c 1xfa
 151 -16 80 -21 20 -27 c 1
 0 8 l 1
 56 40 l 1
 106 45 164 50 225 55 c 1
 228 159 232 265 232 427 c 0xf6
 232 452 251 477 278 493 c 2
 278 493 279 494 280 494 c 2
 336 526 l 2
 350 535 367 541 382 541 c 0
 432 541 495 489 541 411 c 2
 560 377 l 2
 594 320 616 248 616 172 c 0
 616 137 596 112 560 91 c 0
 559 91 l 2
 504 58 l 2
 455 30 380 14 300 2 c 1xfa
302 64 m 1
 380 74 456 87 509 109 c 1
 530 126 541 147 541 173 c 0
 541 241 521 308 494 361 c 1
 450 430 393 473 346 473 c 0
 341 473 331 473 328 472 c 0
 315 458 308 442 308 426 c 0xf6
 308 268 305 165 302 64 c 1
EndSplineSet
Validated: 33
Ligature2: "'liga' Standard Ligatures in Latin lookup 0-1" d j
Ligature2: "'liga' Standard Ligatures in Latin lookup 0-1" d i
EndChar

StartChar: Drfi
Encoding: 331 -1 105
Width: 529
VWidth: 0
Flags: W
HStem: -25 66<112.108 300.072> 239 68<199.722 292> 482 66<141.153 306.481> 913 20G<84.0606 148>
LayerCount: 2
Fore
SplineSet
102 -29 m 5
 121 -63 l 6
 122 -64 124 -68 124 -68 c 4
 151 -110 191 -150 245 -147 c 4
 255 -146 266 -145 274 -143 c 5
 298 -119 314 -88 324 -50 c 5
 380 -17 l 5
 400 -51 l 5
 386 -101 363 -141 325 -164 c 6
 324 -165 l 6
 268 -197 l 6
 252 -207 231 -213 208 -214 c 4
 147 -217 104 -166 77 -119 c 4
 77 -118 l 6
 57 -84 l 6
 53 -76 49 -68 46 -62 c 5
 102 -29 l 5
420 144 m 1
 440 109 l 1
 415 78 387 53 356 35 c 2
 300 2 l 2
 299 2 299 1 299 1 c 0
 269 -16 234 -25 193 -25 c 0
 125 -25 54 2 29 46 c 2
 10 79 l 2
 -1 97 -5 120 4 144 c 0
 17 180 41 204 69 220 c 2
 126 252 l 2
 127 252 127 252 127 252 c 2
 138 258 149 265 160 269 c 1
 124 283 98 303 80 334 c 2
 61 367 l 1
 61 368 l 2
 61 369 60 368 60 369 c 0
 54 381 47 396 43 411 c 0
 34 445 52 469 82 486 c 2
 139 519 l 2
 140 520 l 2
 174 540 220 548 266 548 c 0
 281 548 295 547 307 544 c 1
 296 587 286 631 265 672 c 0
 263 675 262 676 260 679 c 0
 223 730 141 836 81 867 c 1
 62 900 l 1
 118 933 l 1
 178 902 260 796 297 745 c 0
 302 737 308 730 312 722 c 2
 332 688 l 2
 372 619 377 547 401 474 c 0
 405 461 411 447 417 433 c 2
 422 426 l 2
 424 423 425 419 427 415 c 1
 370 382 l 1
 358 404 l 2
 349 416 341 426 333 436 c 0
 309 464 283 482 230 482 c 0
 198 482 162 478 134 468 c 1
 120 453 113 432 119 408 c 0
 121 399 125 394 128 385 c 0
 169 333 242 318 329 307 c 1
 349 272 l 1
 292 239 l 1
 237 225 173 221 120 200 c 1
 105 186 89 167 80 142 c 0
 74 125 74 110 78 95 c 1
 108 61 170 41 230 41 c 0
 259 41 285 45 308 54 c 1
 328 69 347 90 364 112 c 1
 420 144 l 1
EndSplineSet
Validated: 33
LCarets2: 1 0
Ligature2: "'liga' Standard Ligatures in Latin lookup 0-1" f j
Ligature2: "'liga' Standard Ligatures in Latin lookup 0-1" f i
EndChar

StartChar: Drgi
Encoding: 332 -1 106
Width: 567
VWidth: 0
Flags: W
HStem: 649 21G<8.57143 55> 768 66<147.751 293.918>
VStem: 27 76<-275 308> 420 76<369.02 650.571>
LayerCount: 2
Fore
SplineSet
195 160 m 5
 214 127 l 6
 215 126 217 121 217 121 c 4
 244 79 285 39 339 42 c 4
 349 43 359 45 367 47 c 5
 391 71 407 102 417 140 c 5
 473 172 l 5
 493 139 l 5
 479 89 456 49 418 26 c 6
 417 25 l 6
 361 -8 l 6
 345 -18 325 -23 302 -24 c 4
 241 -27 198 23 171 70 c 4
 170 72 l 6
 151 105 l 6
 147 113 142 122 139 128 c 5
 195 160 l 5
20 649 m 1
 0 684 l 1
 31 723 55 761 93 783 c 2
 150 816 l 2
 151 816 151 817 151 817 c 0
 171 828 192 834 220 834 c 0
 311 834 393 781 439 702 c 2
 458 668 l 1
 458 667 459 668 459 667 c 0
 483 625 496 576 496 523 c 0
 496 439 478 331 394 282 c 2
 338 249 l 2
 337 249 337 249 337 249 c 0
 328 245 321 240 312 237 c 0
 234 208 158 251 103 308 c 1
 103 -296 l 1
 47 -328 l 1
 36 -327 32 -325 21 -324 c 1
 1 -290 l 1
 27 -275 l 1
 27 417 l 1
 83 450 l 1
 86 444 l 2
 136 360 236 265 344 302 c 1
 406 355 420 449 420 524 c 0
 420 571 409 614 391 652 c 1
 343 721 267 768 183 768 c 0
 168 768 155 766 143 763 c 1
 119 741 99 710 76 681 c 1
 20 649 l 1
EndSplineSet
Validated: 33
Ligature2: "'liga' Standard Ligatures in Latin lookup 0-1" g j
Ligature2: "'liga' Standard Ligatures in Latin lookup 0-1" g i
EndChar

StartChar: Drhi
Encoding: 333 -1 107
Width: 546
VWidth: 0
Flags: W
HStem: -20 67<154.573 326.029> 478 66<155.486 324.794> 789 20G<95 142.121 373 420.121>
VStem: 0 76<125.921 398.628> 405 76<127.685 401.403>
LayerCount: 2
Fore
SplineSet
130 809 m 5
 150 776 l 6
 151 775 152 770 152 770 c 4
 179 728 220 688 274 691 c 4
 284 692 294 694 302 696 c 5
 326 720 342 751 352 789 c 5
 408 821 l 5
 428 788 l 5
 414 738 391 698 353 675 c 6
 352 674 l 6
 296 641 l 6
 280 631 260 626 237 625 c 4
 176 622 133 672 106 719 c 4
 105 721 l 6
 86 754 l 6
 82 762 77 771 74 777 c 5
 130 809 l 5
481 270 m 0
 481 169 447 77 375 36 c 2
 318 3 l 2
 292 -12 261 -20 224 -20 c 0
 145 -20 92 16 58 72 c 0
 57 73 l 2
 38 106 l 2
 12 152 0 209 0 273 c 0
 0 364 38 448 106 488 c 2
 162 520 l 2
 188 535 221 544 256 544 c 0
 336 544 393 508 427 450 c 2
 446 415 l 2
 469 375 481 325 481 270 c 0
405 271 m 0
 405 319 396 362 379 399 c 1
 344 448 292 478 219 478 c 0
 196 478 174 473 156 467 c 1
 104 423 76 350 76 272 c 0
 76 217 85 162 105 122 c 1
 139 74 189 47 261 47 c 0
 285 47 308 50 326 56 c 1
 380 104 405 184 405 271 c 0
EndSplineSet
Validated: 33
LCarets2: 1 0
Ligature2: "'liga' Standard Ligatures in Latin lookup 0-1" j
Ligature2: "'liga' Standard Ligatures in Latin lookup 0-1" i
Ligature2: "'liga' Standard Ligatures in Latin lookup 0-1" h j
Ligature2: "'liga' Standard Ligatures in Latin lookup 0-1" h i
EndChar

StartChar: Drki
Encoding: 334 -1 108
Width: 615
VWidth: 0
Flags: W
HStem: -288 66<82.3779 132.5> 60 58<221 346.5> 588 20G<168.455 214.176> 829 20G<160 214.176 438 485.121>
VStem: 0 76<-214.013 -5.01463> 145 76<-221.147 36 118 524> 463 75<251.113 399>
LayerCount: 2
Fore
SplineSet
195 849 m 5
 214 816 l 6
 215 815 217 810 217 810 c 4
 244 768 285 728 339 731 c 4
 349 732 359 734 367 736 c 5
 391 760 407 791 417 829 c 5
 473 861 l 5
 493 828 l 5
 479 778 456 738 418 715 c 6
 417 714 l 6
 361 681 l 6
 345 671 325 666 302 665 c 4
 241 662 198 712 171 759 c 4
 170 760 l 6
 151 794 l 6
 147 802 142 811 139 817 c 5
 195 849 l 5
118 508 m 1
 99 542 l 1
 117 555 128 562 146 575 c 2
 203 608 l 1
 222 574 l 1
 221 118 l 1
 270 131 322 131 363 145 c 0
 367 148 369 151 372 154 c 0
 441 228 455 296 463 399 c 1
 519 431 l 1
 538 398 l 1
 530 295 516 227 447 153 c 0
 436 141 425 132 413 126 c 2
 356 93 l 2
 316 69 269 68 221 60 c 1
 221 58 l 1
 221 -145 l 1
 215 -187 201 -230 171 -247 c 2
 115 -280 l 2
 105 -285 93 -288 80 -288 c 0
 57 -288 44 -278 35 -262 c 2
 15 -229 l 2
 -3 -198 0 -141 0 -95 c 0
 0 -21 42 24 106 61 c 2
 145 83 l 1
 145 91 l 1
 146 524 l 1
 118 508 l 1
145 36 m 1
 102 4 76 -38 76 -96 c 0
 76 -133 72 -176 82 -210 c 1
 90 -216 102 -222 117 -222 c 0
 118 -222 117 -222 119 -222 c 0
 132 -204 141 -173 145 -144 c 2
 145 36 l 1
EndSplineSet
Validated: 33
Ligature2: "'liga' Standard Ligatures in Latin lookup 0-1" k j
Ligature2: "'liga' Standard Ligatures in Latin lookup 0-1" k i
EndChar

StartChar: Drli
Encoding: 335 -1 109
Width: 614
VWidth: 0
Flags: W
HStem: -23 66<181.43 351.094> 469 66<145.292 335.097> 875 20G<89.375 136.515> 875 20G<89.375 136.515 187 234.121 465 502.222>
VStem: 68 76<508 862> 448 76<145.687 370.67>
LayerCount: 2
Fore
SplineSet
125 895 m 5xec
 144 862 l 5
 144 508 l 5
 179 524 214 535 261 535 c 4
 349 535 434 485 476 411 c 6
 495 376 l 6
 513 344 524 308 524 270 c 4
 524 176 477 78 401 34 c 6
 344 1 l 6
 317 -14 287 -23 255 -23 c 4
 151 -23 99 37 20 102 c 5
 0 135 l 5
 56 168 l 5
 135 103 187 43 291 43 c 4
 313 43 332 48 352 54 c 5
 412 103 448 188 448 271 c 4
 448 302 441 333 428 361 c 5
 384 425 305 469 224 469 c 4
 170 469 129 453 88 432 c 5
 68 466 l 5
 68 863 l 5
 125 895 l 5xec
222 836 m 1
 242 803 l 2
 243 802 245 797 245 797 c 0
 272 755 312 715 366 718 c 0
 376 719 387 721 395 723 c 1
 419 747 434 778 444 816 c 1
 500 848 l 1
 504 812 l 1
 490 762 483 725 445 702 c 2
 444 701 l 2
 388 668 l 2
 372 658 352 653 329 652 c 0
 268 649 225 699 198 746 c 0
 197 748 l 2
 178 781 l 2
 174 789 169 798 166 804 c 1
 222 836 l 1
EndSplineSet
Validated: 33
LCarets2: 1 0
Ligature2: "'liga' Standard Ligatures in Latin lookup 0-1" l j
Ligature2: "'liga' Standard Ligatures in Latin lookup 0-1" l i
EndChar

StartChar: Drmi
Encoding: 336 -1 110
Width: 529
VWidth: 0
Flags: W
HStem: -25 66<138.512 326.84> 239 68<146 245.375> 482 66<138.158 299.361> 803 20G<69 116.121 347 394.121>
LayerCount: 2
Fore
SplineSet
104 823 m 5
 124 790 l 6
 125 789 126 784 126 784 c 4
 153 742 194 702 248 705 c 4
 258 706 268 708 276 710 c 5
 300 734 316 765 326 803 c 5
 382 835 l 5
 402 802 l 5
 388 752 365 712 327 689 c 6
 326 688 l 6
 270 655 l 6
 254 645 234 640 211 639 c 4
 150 636 107 686 80 733 c 4
 79 734 l 6
 60 768 l 6
 56 776 51 785 48 791 c 5
 104 823 l 5
37 394 m 1
 17 428 l 1
 41 459 58 484 84 499 c 2
 141 532 l 2
 142 533 l 0
 159 543 180 548 209 548 c 0
 275 548 346 529 370 489 c 2
 390 455 l 2
 390 454 l 0
 398 441 399 425 395 408 c 0
 383 361 359 334 325 314 c 2
 269 282 l 1
 269 282 390 223 404 199 c 2
 424 166 l 2
 428 158 431 151 434 142 c 0
 450 98 427 61 386 37 c 2
 329 4 l 2
 328 4 l 2
 294 -16 252 -25 209 -25 c 0
 123 -25 70 16 20 77 c 1
 0 112 l 1
 55 144 l 1
 105 83 160 41 246 41 c 0
 276 41 308 46 335 56 c 1
 360 79 372 109 359 144 c 0
 358 146 357 148 356 150 c 0
 303 218 196 216 110 239 c 1
 91 274 l 1
 146 307 l 2
 150 308 156 307 160 308 c 0
 202 313 240 320 274 333 c 1
 295 351 311 377 320 411 c 0
 322 421 322 430 321 438 c 0
 291 467 228 482 172 482 c 0
 157 482 144 480 133 478 c 1
 120 465 108 447 93 427 c 1
 37 394 l 1
EndSplineSet
Validated: 33
Ligature2: "'liga' Standard Ligatures in Latin lookup 0-1" m j
Ligature2: "'liga' Standard Ligatures in Latin lookup 0-1" m i
EndChar

StartChar: Drni
Encoding: 337 -1 111
Width: 539
VWidth: 0
Flags: W
HStem: -18 66<155.364 312.928> 482 66<186.16 374> 816 20G<147 194.121 425 463.636>
VStem: 0 76<134.829 374.375> 26 76<623.738 873>
LayerCount: 2
Fore
SplineSet
468 96 m 5xf0
 412 64 l 6
 400 60 387 53 378 49 c 6
 323 16 l 6
 322 16 321 15 321 15 c 4
 287 -5 255 -18 208 -18 c 4
 142 -18 92 21 61 76 c 6
 41 109 l 6
 14 156 0 215 0 271 c 4xf0
 0 367 38 390 106 457 c 4
 115 466 123 473 133 478 c 6
 173 500 l 5
 152 505 135 512 115 525 c 4
 97 537 84 554 74 571 c 6
 54 604 l 6
 53 606 l 6
 30 646 26 695 26 743 c 4
 26 856 28 761 28 874 c 5
 84 907 l 5
 104 873 l 5
 104 760 102 855 102 742 c 4xe8
 102 701 106 659 121 622 c 4
 129 612 140 602 152 593 c 4
 232 540 319 574 411 548 c 5
 430 515 l 5
 374 482 l 5
 296 460 235 471 183 456 c 5
 183 456 183 457 182 456 c 4
 114 389 76 366 76 270 c 4
 76 220 85 169 107 125 c 5
 138 79 185 48 245 48 c 4
 284 48 313 58 341 73 c 6
 395 104 l 6
 411 114 428 123 448 131 c 5
 468 96 l 5xf0
182 836 m 1
 202 803 l 2
 203 802 204 797 204 797 c 0
 231 755 272 715 326 718 c 0
 336 719 346 721 354 723 c 1
 378 747 394 778 404 816 c 1
 460 848 l 1
 466 815 l 1
 452 765 443 725 405 702 c 2
 404 701 l 2
 348 668 l 2
 332 658 312 653 289 652 c 0
 228 649 185 699 158 746 c 0
 157 748 l 2
 138 781 l 2
 134 789 129 798 126 804 c 1
 182 836 l 1
EndSplineSet
Validated: 33
LCarets2: 1 0
Ligature2: "'liga' Standard Ligatures in Latin lookup 0-1" n j
Ligature2: "'liga' Standard Ligatures in Latin lookup 0-1" n i
EndChar

StartChar: Drpi
Encoding: 338 -1 112
Width: 529
VWidth: 0
Flags: W
HStem: -23 66<111.075 302.954> 239 68<198.929 292> 482 66<140.554 314.392> 786 20G<70 116.765 349.455 394.857>
LayerCount: 2
Fore
SplineSet
105 806 m 5
 125 772 l 6
 126 771 128 768 128 768 c 4
 155 726 195 685 249 688 c 4
 259 689 270 690 278 692 c 5
 302 716 317 748 327 786 c 5
 384 819 l 5
 403 784 l 5
 389 734 366 695 328 672 c 6
 327 672 l 6
 271 639 l 6
 255 629 235 623 212 622 c 4
 151 619 108 670 81 717 c 4
 80 718 l 6
 61 752 l 6
 57 760 52 768 49 774 c 5
 105 806 l 5
421 427 m 1
 365 394 l 1
 326 446 306 482 230 482 c 0
 198 482 161 477 134 468 c 1
 119 452 113 432 119 408 c 0
 121 399 125 391 128 385 c 0
 169 332 242 318 329 307 c 1
 349 272 l 1
 292 239 l 1
 237 225 171 220 120 200 c 1
 104 186 89 167 80 142 c 0
 74 126 75 110 78 96 c 1
 109 62 170 43 230 43 c 0
 260 43 287 48 311 57 c 1
 329 72 348 91 364 112 c 1
 420 144 l 1
 440 109 l 1
 416 79 391 55 361 38 c 2
 361 38 360 38 359 38 c 2
 302 5 l 2
 272 -12 236 -23 193 -23 c 0
 125 -23 53 4 28 47 c 2
 9 80 l 2
 -2 98 -5 120 4 144 c 0
 17 180 41 204 69 220 c 2
 126 252 l 2
 137 258 147 265 160 269 c 1
 126 283 98 303 80 334 c 2
 61 367 l 2
 53 379 47 395 43 411 c 0
 34 445 52 469 82 486 c 2
 139 519 l 2
 173 539 220 548 266 548 c 0
 342 548 363 512 402 460 c 1
 421 427 l 1
EndSplineSet
Validated: 33
LCarets2: 1 0
Ligature2: "'liga' Standard Ligatures in Latin lookup 0-1" p j
Ligature2: "'liga' Standard Ligatures in Latin lookup 0-1" p i
EndChar

StartChar: Drri
Encoding: 339 -1 113
Width: 569
VWidth: 0
Flags: W
HStem: -21 67<164.097 321.946> 478 66<159.415 317.966> 976 20G<411 423.857>
VStem: -1 76<138.098 462> 413 76<140.157 387.756>
LayerCount: 2
Fore
SplineSet
117 -29 m 5
 136 -63 l 6
 137 -64 139 -68 139 -68 c 4
 166 -110 207 -150 261 -147 c 4
 271 -146 281 -145 289 -143 c 5
 313 -119 329 -88 339 -50 c 5
 395 -17 l 5
 415 -51 l 5
 401 -101 378 -141 340 -164 c 6
 339 -165 l 6
 283 -197 l 6
 267 -207 247 -213 224 -214 c 4
 163 -217 120 -166 93 -119 c 4
 92 -118 l 6
 73 -84 l 6
 69 -76 64 -68 61 -62 c 5
 117 -29 l 5
432 961 m 1
 407 948 l 2
 326 899 280 852 228 766 c 0
 113 576 83 462 75 269 c 1
 18 236 l 1
 -1 270 l 1
 7 463 37 578 152 768 c 0
 206 858 255 905 343 956 c 2
 400 988 l 2
 404 990 409 994 413 996 c 2
 432 961 l 1
413 270 m 0
 413 310 404 349 387 385 c 1
 350 439 290 478 218 478 c 0
 197 478 177 474 159 468 c 1
 106 424 75 347 75 269 c 0
 75 221 85 173 105 132 c 1
 140 81 193 46 260 46 c 0
 283 46 302 48 323 56 c 1
 380 104 413 187 413 270 c 0
489 269 m 0
 489 174 445 79 370 36 c 2
 315 3 l 2
 288 -12 257 -21 223 -21 c 0
 149 -21 93 21 58 82 c 2
 39 116 l 1
 38 117 l 2
 13 161 -1 216 -1 270 c 0
 -1 360 40 448 110 488 c 2
 167 520 l 2
 193 535 223 544 255 544 c 0
 334 544 397 499 434 434 c 2
 454 401 l 2
 477 362 489 317 489 269 c 0
EndSplineSet
Validated: 37
Ligature2: "'liga' Standard Ligatures in Latin lookup 0-1" r j
Ligature2: "'liga' Standard Ligatures in Latin lookup 0-1" r i
EndChar

StartChar: Drsi
Encoding: 340 -1 114
Width: 631
VWidth: 0
Flags: W
HStem: -23 67<147.797 231> 471 66<113.526 212.681> 764 20G<134 180.515 412 459.121>
VStem: 0 76<120.131 421.408> 233 75<-297.506 -22 50 331.411> 491 76<203.304 417.702>
LayerCount: 2
Fore
SplineSet
169 784 m 5
 188 751 l 6
 189 750 191 745 191 745 c 4
 218 703 259 663 313 666 c 4
 323 667 333 669 341 671 c 5
 365 695 381 726 391 764 c 5
 447 796 l 5
 467 763 l 5
 453 713 430 673 392 650 c 6
 391 649 l 6
 335 616 l 6
 319 606 299 601 276 600 c 4
 215 597 172 647 145 694 c 4
 144 696 l 6
 125 729 l 6
 121 737 116 746 113 752 c 5
 169 784 l 5
419 486 m 1
 476 519 l 1
 502 495 519 477 531 457 c 2
 550 422 l 2
 562 401 567 382 567 353 c 0
 567 233 515 109 410 48 c 2
 353 15 l 2
 352 14 l 0
 338 5 323 -1 308 -6 c 1
 310 -99 315 -190 321 -259 c 0
 322 -273 306 -306 295 -317 c 1
 238 -350 l 1
 219 -316 l 1
 230 -305 246 -272 245 -258 c 0
 239 -193 235 -110 233 -22 c 1
 224 -23 216 -23 207 -23 c 0
 135 -23 89 13 60 63 c 2
 40 96 l 2
 11 146 0 211 0 271 c 0
 0 355 31 470 80 498 c 2
 136 531 l 2
 144 535 151 537 159 537 c 0
 200 537 245 523 265 489 c 2
 285 455 l 1
 286 454 l 2
 290 446 294 437 295 427 c 0
 304 354 304 203 307 50 c 0
 308 50 308 50 309 50 c 0
 327 54 345 58 361 66 c 1
 448 131 491 244 491 354 c 0
 491 375 487 392 482 407 c 0
 471 421 457 436 439 453 c 1
 419 486 l 1
231 44 m 1
 228 199 228 353 219 428 c 0
 219 431 218 436 217 439 c 0
 195 461 163 470 129 471 c 1
 97 427 76 338 76 270 c 0
 76 217 84 161 106 113 c 1
 133 75 174 47 231 44 c 1
EndSplineSet
Validated: 33
Ligature2: "'liga' Standard Ligatures in Latin lookup 0-1" s j
Ligature2: "'liga' Standard Ligatures in Latin lookup 0-1" s i
EndChar

StartChar: Drti
Encoding: 341 -1 115
Width: 585
VWidth: 0
Flags: W
HStem: 226 68<239.938 378.37> 575 20G<22.0606 60> 595 169G<22.0606 60 121 168.121 399 446.121>
VStem: 14 64<129 266.573> 24 76<256.974 525> 425 75<-87.532 177.697>
LayerCount: 2
Fore
SplineSet
156 784 m 5xac
 176 751 l 6
 177 750 178 745 178 745 c 4
 205 703 246 663 300 666 c 4
 310 667 320 669 328 671 c 5
 352 695 368 726 378 764 c 5
 434 796 l 5
 454 763 l 5
 440 713 417 673 379 650 c 6
 378 649 l 6
 322 616 l 6
 306 606 286 601 263 600 c 4
 202 597 159 647 132 694 c 4
 131 696 l 6
 112 729 l 6
 108 737 103 746 100 752 c 5
 156 784 l 5xac
0 562 m 1
 56 595 l 1
 64 590 76 589 79 583 c 2
 99 549 l 2
 100 548 100 546 100 544 c 0xcc
 100 387 81 258 78 129 c 1
 104 166 151 217 186 238 c 2
 243 271 l 2
 244 272 l 0
 269 286 293 294 320 294 c 0
 382 294 422 269 447 226 c 2
 467 193 l 2
 491 153 500 95 500 21 c 0
 500 -106 394 -214 269 -286 c 2
 212 -318 l 2
 166 -344 120 -366 73 -382 c 1
 53 -349 l 1
 109 -316 l 1
 146 -303 183 -288 221 -268 c 1
 331 -198 425 -96 425 22 c 0
 425 85 418 136 401 176 c 1
 376 208 337 226 283 226 c 0
 267 226 249 223 234 218 c 1
 167 164 115 67 90 -12 c 1
 34 -44 l 1
 14 -11 l 1xd4
 17 199 24 320 24 525 c 0
 23 525 21 528 20 529 c 2
 0 562 l 1
EndSplineSet
Validated: 33
Ligature2: "'liga' Standard Ligatures in Latin lookup 0-1" t j
Ligature2: "'liga' Standard Ligatures in Latin lookup 0-1" t i
EndChar

StartChar: Drvi
Encoding: 342 -1 116
Width: 721
VWidth: 0
Flags: W
HStem: 796 21G<83.4848 114> 880 20G<135.061 180.176 239.061 284.176 517.061 562.765>
VStem: 0 76<434.158 508.495> 112 75<73.2366 368 577.633 807>
LayerCount: 2
Fore
SplineSet
95 796 m 1
 76 829 l 1
 90 843 99 853 113 867 c 1
 169 900 l 1
 188 866 l 1
 192 631 197 688 197 453 c 0
 197 442 194 430 186 420 c 1
 186 411 187 403 187 394 c 0
 189 292 195 213 195 94 c 0
 195 86 197 78 198 73 c 0
 236 35 311 28 373 34 c 0
 410 38 444 46 471 58 c 1
 506 83 532 114 555 145 c 1
 611 178 l 1
 630 144 l 1
 602 105 569 68 521 40 c 2
 521 40 520 39 519 39 c 2
 463 6 l 2
 428 -14 387 -29 336 -34 c 0
 267 -42 179 -29 150 22 c 2
 130 55 l 2
 124 66 119 80 119 95 c 0
 119 203 114 279 112 368 c 1
 105 365 l 2
 104 364 l 0
 95 360 88 356 79 356 c 0
 62 356 46 372 35 390 c 2
 15 424 l 1
 15 425 14 425 14 426 c 0
 5 442 0 462 0 477 c 0
 0 494 26 522 50 535 c 2
 106 568 l 2
 107 568 107 568 107 568 c 0
 112 571 117 573 121 574 c 1
 120 722 117 648 114 807 c 1
 95 796 l 1
273 817 m 1
 292 783 l 2
 293 782 295 778 295 778 c 0
 322 736 363 696 417 699 c 0
 427 700 437 701 445 703 c 1
 469 727 485 758 495 796 c 1
 551 829 l 1
 571 795 l 1
 557 745 534 705 496 682 c 2
 495 681 l 2
 439 649 l 2
 423 639 403 634 380 633 c 0
 319 630 276 680 249 727 c 0
 248 728 l 2
 229 762 l 2
 225 770 220 778 217 784 c 1
 273 817 l 1
110 424 m 1
 110 444 110 463 110 486 c 0
 110 490 108 498 107 503 c 0
 104 506 98 508 94 509 c 1
 83 498 76 486 76 476 c 0
 76 465 78 453 82 441 c 0
 90 432 99 426 110 424 c 1
EndSplineSet
Validated: 33
LCarets2: 1 0
Ligature2: "'liga' Standard Ligatures in Latin lookup 0-1" v j
Ligature2: "'liga' Standard Ligatures in Latin lookup 0-1" v i
EndChar

StartChar: Drxi
Encoding: 343 -1 117
Width: 491
VWidth: 0
Flags: W
HStem: -13 67<118.941 276.195> 470 66<154.586 277.899> 816 20G<69 116.121 347 394.121>
VStem: 0 76<97.3193 387.648>
LayerCount: 2
Fore
SplineSet
104 836 m 5
 124 803 l 6
 125 802 126 797 126 797 c 4
 153 755 194 715 248 718 c 4
 258 719 268 721 276 723 c 5
 300 747 316 778 326 816 c 5
 382 848 l 5
 402 815 l 5
 388 765 365 725 327 702 c 6
 326 701 l 6
 270 668 l 6
 254 658 234 653 211 652 c 4
 150 649 107 699 80 746 c 4
 79 748 l 6
 60 781 l 6
 56 789 51 798 48 804 c 5
 104 836 l 5
399 414 m 1
 342 381 l 1
 292 436 256 470 186 470 c 0
 178 470 170 469 162 467 c 1
 112 423 76 345 76 270 c 0
 76 213 80 148 101 101 c 1
 124 72 156 54 205 54 c 0
 234 54 259 58 280 66 c 1
 297 80 312 95 326 116 c 1
 382 148 l 1
 402 115 l 1
 380 85 357 62 329 46 c 2
 329 46 329 46 328 46 c 2
 272 13 l 2
 243 -4 209 -13 168 -13 c 0
 112 -13 76 12 54 50 c 2
 35 83 l 2
 6 133 0 206 0 271 c 0
 0 360 52 453 115 489 c 2
 170 521 l 2
 187 531 206 536 223 536 c 0
 293 536 329 502 379 447 c 1
 399 414 l 1
EndSplineSet
Validated: 33
Ligature2: "'liga' Standard Ligatures in Latin lookup 0-1" x j
Ligature2: "'liga' Standard Ligatures in Latin lookup 0-1" x i
EndChar

StartChar: Drzi
Encoding: 344 -1 118
Width: 548
VWidth: 0
Flags: W
HStem: -18 66<151.017 293.905> 517 20G<21 68.1212> 537 214G<21 68.1212 82 128.515 360 407.121>
VStem: 0 76<218.355 504> 378 76<-176.371 74 213.001 498>
LayerCount: 2
Fore
SplineSet
117 771 m 5xb8
 136 738 l 6
 137 737 139 732 139 732 c 4
 166 690 207 650 261 653 c 4
 271 654 281 656 289 658 c 5
 313 682 329 713 339 751 c 5
 395 783 l 5
 415 750 l 5
 401 700 378 660 340 637 c 6
 339 636 l 6
 283 603 l 6
 267 593 247 588 224 587 c 4
 163 584 120 634 93 681 c 4
 92 682 l 6
 73 716 l 6
 69 724 64 733 61 739 c 5
 117 771 l 5xb8
56 537 m 1xd8
 76 504 l 1
 76 375 70 211 117 110 c 1
 145 71 186 48 244 48 c 0
 260 48 276 50 288 53 c 1
 374 139 355 345 378 499 c 1
 434 532 l 1
 454 498 l 1
 453 262 465 123 452 -106 c 0
 449 -170 394 -229 327 -268 c 2
 271 -300 l 2
 269 -300 l 2
 187 -347 86 -365 29 -327 c 1
 10 -294 l 1
 66 -261 l 1
 117 -295 202 -284 278 -248 c 1
 331 -211 373 -160 376 -105 c 0
 380 -40 380 18 381 74 c 1
 369 57 355 42 338 32 c 2
 282 0 l 2
 261 -12 237 -18 207 -18 c 0
 141 -18 97 12 69 60 c 2
 50 93 l 2
 -7 193 0 369 0 505 c 1
 56 537 l 1xd8
EndSplineSet
Validated: 33
Ligature2: "'liga' Standard Ligatures in Latin lookup 0-1" z j
Ligature2: "'liga' Standard Ligatures in Latin lookup 0-1" z i
EndChar

StartChar: DrAo
Encoding: 345 -1 119
Width: 833
VWidth: 0
Flags: W
HStem: -337 66<129.856 374.803> 469 66<55 361.07> 479 68<156.983 395> 604 21G<121.824 167.545 369.496 418.939> 604 21G<121.824 167.545 369.496 418.939> 803 20G<275 325.31>
VStem: 521 76<-112 37.0304>
LayerCount: 2
Fore
SplineSet
666 49 m 5x86
 723 81 l 5
 735 68 750 61 758 49 c 6
 778 15 l 6
 778 14 l 4
 780 10 781 4 781 -1 c 4
 779 -33 736 -74 716 -101 c 5
 660 -133 l 5
 640 -100 l 5
 660 -73 701 -34 705 -2 c 5
 699 2 691 9 686 15 c 6
 666 49 l 5x86
133 604 m 1x96
 114 638 l 1
 254 791 l 1
 310 823 l 1
 421 678 l 1
 441 645 l 1
 385 612 l 1
 285 741 l 1
 190 637 l 1
 133 604 l 1x96
-1 503 m 1
 55 535 l 1xc6
 477 547 l 1
 496 512 l 1
 209 113 l 1
 233 127 l 2
 294 162 358 184 437 166 c 0
 487 154 522 123 545 84 c 2
 564 51 l 2
 564 50 l 2
 586 11 597 -34 597 -83 c 0
 597 -98 595 -114 592 -128 c 1
 612 -132 630 -136 651 -139 c 1
 671 -172 l 1
 614 -205 l 1
 596 -202 577 -198 559 -195 c 1
 542 -217 519 -234 494 -248 c 2
 438 -281 l 2
 361 -325 253 -340 157 -337 c 0
 118 -336 79 -303 57 -266 c 2
 38 -232 l 1
 38 -231 37 -232 37 -231 c 0
 17 -197 14 -160 41 -145 c 2
 98 -113 l 2
 99 -112 101 -110 103 -109 c 0
 248 -46 366 -78 519 -112 c 1
 520 -102 521 -92 521 -82 c 0
 521 -40 513 -1 497 35 c 1
 475 65 442 90 400 100 c 0
 333 116 276 101 222 74 c 0
 198 59 171 40 145 24 c 2
 89 -9 l 1
 69 25 l 1
 395 479 l 1xa6
 18 469 l 1xc6
 -1 503 l 1
493 -181 m 1
 348 -149 235 -118 102 -162 c 1
 96 -176 96 -196 105 -217 c 1
 127 -246 160 -270 194 -271 c 0
 278 -274 371 -262 445 -230 c 1
 462 -217 481 -199 493 -181 c 1
EndSplineSet
Validated: 33
LCarets2: 1 0
Ligature2: "'liga' Standard Ligatures in Latin lookup 0-1" A o
EndChar

StartChar: DrDo
Encoding: 346 -1 120
Width: 807
VWidth: 0
Flags: W
HStem: -4.99023 55.9805<224.086 401.184> 699 21G<608.879 656> 893 20G<596.375 639>
VStem: 4.51953 66.9619<-354.99 166.807 183.01 801.463> 482.52 66.9609<617.684 778.091> 544.52 66.9609<179.539 394.813>
LayerCount: 2
Fore
SplineSet
71.4814453125 166.806640625 m 5xf4
 71.48046875 -354.990234375 l 5
 19.51953125 -384.990234375 l 5
 4.51953125 -359.009765625 l 5
 4.51953125 170.545898438 l 5
 4.51953125 701.990234375 l 6
 4.51953125 757.990234375 12.51953125 794.990234375 68.51953125 834.990234375 c 4
 82.6201171875 845.0625 95.720703125 853.595703125 108.0703125 860.737304688 c 6
 160.032226562 890.737304688 l 6
 160.451171875 890.978515625 160.97265625 891.279296875 160.97265625 891.279296875 c 6
 259.743164062 947.873046875 310.309570312 915.616210938 440.48046875 869.990234375 c 4
 459.297851562 863.39453125 492.768554688 851.641601562 514.275390625 814.33203125 c 6
 529.275390625 788.3515625 l 6
 541.224609375 767.624023438 549.48046875 739.009765625 549.48046875 699.009765625 c 4xf8
 549.48046875 646.272460938 526.096679688 614.141601562 489.727539062 593.080078125 c 6
 437.765625 563.080078125 l 6
 437.44921875 562.897460938 437.052734375 562.669921875 437.052734375 562.669921875 c 6
 405.360351562 544.595703125 363.357421875 534.612304688 321.380859375 527.176757812 c 5
 423.526367188 513.734375 527.904296875 502.690429688 572.999023438 424.891601562 c 6
 588.002929688 398.905273438 l 6
 588.25 398.470703125 588.264648438 398.446289062 588.514648438 398.013671875 c 4
 603.138671875 372.362304688 611.48046875 339.508789062 611.48046875 297.009765625 c 4
 611.48046875 196.532226562 555.845703125 110.717773438 474.315429688 63.6416015625 c 6
 422.354492188 33.6416015625 l 6
 422.017578125 33.4462890625 421.595703125 33.2041015625 421.595703125 33.2041015625 c 4
 378.70703125 8.6728515625 329.68359375 -4.990234375 277.51953125 -4.990234375 c 4
 182.849609375 -4.990234375 128.4140625 68.1650390625 85.3583984375 142.770507812 c 6
 71.4814453125 166.806640625 l 5xf4
71.4814453125 183.009765625 m 5
 116.48046875 208.990234375 l 5
 127.984375 189.065429688 l 6
 169.786132812 118.604492188 223.944335938 50.990234375 314.481445312 50.990234375 c 4
 356.3515625 50.990234375 396.76953125 60.029296875 432.50390625 75.96484375 c 5
 499.684570312 124.93359375 544.51953125 202.98828125 544.51953125 292.990234375 c 4xf4
 544.51953125 328.815429688 538.905273438 356.833007812 528.05078125 381.188476562 c 5
 457.560546875 478.001953125 282.064453125 456.149414062 155.518554688 495.908203125 c 5
 140.518554688 521.889648438 l 5
 192.48046875 551.889648438 l 5
 273.077148438 575.55078125 374.063476562 577.938476562 445.5078125 605.318359375 c 5
 468.263671875 625.661132812 482.51953125 654.104492188 482.51953125 694.990234375 c 4
 482.51953125 726.95703125 477.538085938 750.750976562 469.083984375 770.736328125 c 5
 448.551757812 797.68359375 419.8515625 808.28515625 403.51953125 814.009765625 c 4
 284.400390625 855.76171875 231.915039062 886.274414062 148.180664062 847.846679688 c 4
 145.27734375 845.8828125 139.62890625 841.97265625 135.481445312 839.009765625 c 4
 79.48046875 799.009765625 71.4814453125 762.009765625 71.4814453125 706.009765625 c 6
 71.4814453125 183.009765625 l 5
621 699 m 1
 601 732 l 1
 616 750 642 757 640 781 c 0
 640 785 638 790 637 794 c 0
 623 814 606 832 595 847 c 2
 575 881 l 1
 632 913 l 1
 646 893 672 868 686 843 c 2
 705 808 l 2
 710 798 715 789 716 779 c 0
 718 755 692 749 677 731 c 1
 621 699 l 1
133 -308 m 1
 114 -274 l 1
 254 -122 l 1
 310 -90 l 1
 421 -234 l 1
 441 -268 l 1
 385 -300 l 1
 285 -171 l 1
 190 -275 l 1
 133 -308 l 1
EndSplineSet
Validated: 33
LCarets2: 1 0
Ligature2: "'liga' Standard Ligatures in Latin lookup 0-1" D o
EndChar

StartChar: DrEo
Encoding: 347 -1 121
Width: 750
VWidth: 0
Flags: W
HStem: -334 66<192.164 372.186> 491 66<168.344 356.562> 592 21G<121.485 168.625 369.496 418.939> 592 21G<121.485 168.625 369.496 418.939> 790 20G<275 325.31>
VStem: -1 76<227.025 393.173>
LayerCount: 2
Fore
SplineSet
585 49 m 5xcc
 640 81 l 5
 652 68 668 61 676 49 c 6
 696 15 l 6
 697 14 l 4
 699 10 699 4 699 -1 c 4
 697 -33 654 -74 634 -101 c 5
 578 -133 l 5
 559 -100 l 5
 579 -73 619 -34 623 -2 c 5
 617 2 609 9 604 15 c 6
 585 49 l 5xcc
133 592 m 1xec
 114 625 l 1
 254 778 l 1
 310 810 l 1
 421 665 l 1
 441 632 l 1
 385 599 l 1
 285 728 l 1
 190 624 l 1
 133 592 l 1xec
499 452 m 1
 443 419 l 1
 366 459 319 491 232 491 c 0
 209 491 187 487 167 479 c 1
 110 431 75 351 75 270 c 0
 75 259 77 247 80 238 c 0
 126 184 225 155 312 79 c 0
 378 22 470 -24 499 -76 c 2
 519 -109 l 2
 520 -110 l 0
 526 -121 529 -131 529 -142 c 0
 529 -146 528 -152 528 -156 c 1
 544 -161 561 -167 577 -171 c 1
 597 -205 l 1
 541 -237 l 1
 526 -233 510 -228 496 -224 c 1
 483 -239 466 -252 446 -263 c 2
 390 -296 l 2
 349 -320 298 -334 248 -334 c 0
 179 -334 73 -265 42 -211 c 2
 23 -177 l 2
 10 -154 9 -133 30 -121 c 2
 87 -89 l 2
 87 -88 l 0
 90 -86 94 -84 98 -83 c 0
 225 -40 334 -85 452 -129 c 1
 452 -128 452 -127 451 -125 c 0
 414 -82 333 -39 275 12 c 0
 180 94 69 123 31 187 c 2
 31 188 l 2
 12 222 l 2
 3 236 -1 253 -1 271 c 0
 -1 365 44 456 118 499 c 2
 174 532 l 2
 201 548 234 557 269 557 c 0
 356 557 403 525 480 485 c 1
 499 452 l 1
436 -203 m 1
 320 -160 211 -113 90 -142 c 1
 89 -147 89 -154 91 -162 c 0
 131 -212 223 -268 285 -268 c 0
 323 -268 360 -260 396 -245 c 1
 410 -234 426 -219 436 -203 c 1
EndSplineSet
Validated: 33
Ligature2: "'liga' Standard Ligatures in Latin lookup 0-1" E o
EndChar

StartChar: DrGo
Encoding: 348 -1 122
Width: 699
VWidth: 0
Flags: W
HStem: -17 66<204.839 295.501> 534 20G<22.0606 89.5> 554 339G<22.0606 89.5 220.375 292 529 571> 699 21G<541.879 589>
LayerCount: 2
Fore
SplineSet
554 699 m 5x90
 534 732 l 5
 549 750 575 757 573 781 c 4
 573 785 571 790 570 794 c 4
 556 814 539 832 528 847 c 6
 508 881 l 5
 564 913 l 5
 578 893 605 868 619 843 c 6
 638 808 l 6
 643 798 648 789 649 779 c 4
 651 755 625 749 610 731 c 5
 554 699 l 5x90
133 -246 m 1
 114 -212 l 1
 254 -60 l 1
 310 -27 l 1
 421 -171 l 1
 441 -206 l 1
 385 -238 l 1
 285 -109 l 1
 190 -213 l 1
 133 -246 l 1
0 521 m 1
 56 554 l 1xc0
 123 478 198 423 262 363 c 1
 310 407 365 455 426 524 c 0
 461 563 454 602 436 645 c 0
 414 697 391 750 361 805 c 0
 327 860 284 920 219 989 c 1
 199 1023 l 1
 256 1055 l 1
 328 978 373 912 407 854 c 2
 427 820 l 2
 464 756 486 699 511 642 c 0
 529 599 537 562 502 523 c 0
 428 440 364 388 310 336 c 0
 307 333 303 329 300 326 c 0
 323 302 344 276 360 247 c 2
 379 212 l 2
 382 207 385 202 388 197 c 0
 418 139 390 59 336 28 c 2
 280 -4 l 2
 265 -13 248 -17 230 -17 c 0
 195 -17 165 7 147 38 c 2
 128 72 l 2
 128 73 127 72 127 73 c 0
 105 111 99 158 119 194 c 0
 142 236 169 270 198 301 c 0
 201 304 206 309 209 312 c 1
 149 366 82 417 20 486 c 1
 0 521 l 1
250 273 m 1
 229 249 211 223 195 193 c 0
 179 163 181 123 195 88 c 1
 213 65 238 49 266 49 c 0
 272 49 278 50 286 51 c 1
 321 88 336 148 312 197 c 0
 296 223 273 249 250 273 c 1
EndSplineSet
Validated: 33
Ligature2: "'liga' Standard Ligatures in Latin lookup 0-1" G o
EndChar

StartChar: DrHo
Encoding: 349 -1 123
Width: 604
VWidth: 0
Flags: W
HStem: -20 67<112.888 256.609> 478 66<120.156 282.145> 628 21G<66.2353 111.333 313.651 363.545> 826 20G<219.375 270.417>
VStem: 0 76<91.869 199.556> 312 76<338.039 439.023>
LayerCount: 2
Fore
SplineSet
78 628 m 5
 58 662 l 5
 198 814 l 5
 255 846 l 5
 366 702 l 5
 386 669 l 5
 329 636 l 5
 230 765 l 5
 133 661 l 5
 78 628 l 5
399 49 m 1
 455 81 l 1
 467 68 483 61 491 49 c 2
 510 15 l 2
 510 14 l 0
 512 10 514 4 514 -1 c 0
 512 -33 468 -74 448 -101 c 1
 392 -133 l 1
 373 -100 l 1
 393 -73 434 -34 438 -2 c 1
 432 2 423 9 418 15 c 2
 399 49 l 1
31 417 m 1
 12 451 l 1
 30 463 48 474 64 484 c 2
 120 517 l 2
 121 517 121 518 121 518 c 0
 149 534 178 544 216 544 c 0
 273 544 331 522 356 479 c 2
 376 444 l 2
 384 430 388 415 388 398 c 0
 388 359 363 334 332 316 c 2
 275 284 l 2
 274 284 273 283 273 283 c 2
 243 266 209 253 183 239 c 2
 177 236 l 2
 176 236 176 235 176 235 c 2
 152 221 125 210 103 200 c 1
 86 185 76 168 76 143 c 0
 76 129 79 113 83 102 c 0
 112 66 159 47 208 47 c 0
 226 47 248 52 268 61 c 1
 305 87 336 118 359 145 c 1
 415 178 l 1
 434 143 l 1
 406 109 361 68 314 41 c 2
 258 9 l 2
 229 -8 198 -20 171 -20 c 0
 115 -20 61 8 35 52 c 2
 15 86 l 2
 5 103 0 123 0 145 c 0
 0 180 20 200 49 217 c 0
 49 217 50 218 51 218 c 2
 107 250 l 2
 137 267 175 280 210 300 c 2
 217 304 l 2
 234 314 256 323 278 333 c 1
 298 349 312 370 312 399 c 0
 312 410 311 420 308 429 c 0
 280 460 229 478 179 478 c 0
 152 478 129 473 108 464 c 0
 102 460 94 454 88 450 c 2
 31 417 l 1
EndSplineSet
Validated: 1
LCarets2: 1 0
Ligature2: "'liga' Standard Ligatures in Latin lookup 0-1" H o
EndChar

StartChar: DrIo
Encoding: 350 -1 124
Width: 723
VWidth: 0
Flags: W
HStem: -362 66<179.933 396.269> -9 66<138.272 318.223> 470 66<210.125 401> 592 21G<121.485 168.625 369.496 418.939> 592 21G<121.485 168.625 369.496 418.939> 790 20G<275 325.31>
VStem: 405 76<-286.528 40.8921> 418 76<-219.892 50>
LayerCount: 2
Fore
SplineSet
531 49 m 5xe4
 587 81 l 5
 599 68 615 61 623 49 c 6
 642 15 l 6
 644 14 l 4
 646 10 646 4 646 -1 c 4
 644 -33 601 -74 581 -101 c 5
 524 -133 l 5
 505 -100 l 5
 525 -73 566 -34 570 -2 c 5
 564 2 555 9 550 15 c 6
 531 49 l 5xe4
133 592 m 1xf4
 114 625 l 1
 254 778 l 1
 310 810 l 1
 421 665 l 1
 441 632 l 1
 385 599 l 1
 285 728 l 1
 190 624 l 1
 133 592 l 1xf4
457 503 m 1
 401 470 l 1
 334 486 252 478 183 447 c 1
 145 420 116 384 98 340 c 0
 70 273 67 190 96 126 c 1
 125 86 172 57 236 57 c 0
 323 57 456 138 472 110 c 2
 492 77 l 2
 492 76 l 0
 493 74 494 72 494 69 c 0xe5
 494 -55 481 -124 481 -248 c 0
 481 -277 467 -296 446 -308 c 2
 390 -340 l 2
 350 -363 280 -362 225 -362 c 0
 157 -362 104 -311 67 -247 c 2
 48 -213 l 1
 48 -212 47 -213 47 -212 c 0
 31 -185 19 -155 9 -126 c 1
 65 -93 l 1
 84 -127 l 2
 92 -151 102 -174 114 -197 c 0
 150 -252 199 -296 262 -296 c 0
 304 -296 354 -297 393 -287 c 1
 401 -277 405 -262 405 -246 c 0xe6
 405 -129 417 -62 418 50 c 1xe5
 376 47 271 -9 199 -9 c 0
 127 -9 79 25 50 75 c 0
 50 76 l 2
 30 109 l 2
 -8 175 -8 268 22 341 c 0
 45 396 85 438 134 466 c 0
 134 466 134 467 135 467 c 2
 192 499 l 2
 268 542 362 554 438 536 c 1
 457 503 l 1
EndSplineSet
Validated: 33
Ligature2: "'liga' Standard Ligatures in Latin lookup 0-1" I o
EndChar

StartChar: DrNo
Encoding: 351 -1 125
Width: 786
VWidth: 0
Flags: W
HStem: -17 66<114.629 242.444 389.436 526.17> 517 20G<120 166.515> 537 356G<120 252 576 618> 699 21G<588.485 635>
VStem: -1 76<92.1527 389.607> 312 62<150.86 313> 581 75<101.381 469.429>
LayerCount: 2
Fore
SplineSet
600 699 m 5x9e
 581 732 l 5
 596 750 622 757 620 781 c 4
 620 785 617 790 616 794 c 4
 602 814 585 832 574 847 c 6
 555 881 l 5
 611 913 l 5
 625 893 651 868 665 843 c 6
 685 808 l 6
 690 798 695 789 696 779 c 4
 698 755 671 749 656 731 c 5
 600 699 l 5x9e
140 -238 m 1
 120 -204 l 1
 260 -52 l 1
 316 -20 l 1
 428 -164 l 1
 447 -197 l 1
 391 -230 l 1
 291 -102 l 1
 196 -206 l 1
 140 -238 l 1
155 537 m 1xce
 174 504 l 1
 117 415 75 369 75 270 c 0
 75 210 81 140 103 90 c 1
 123 64 149 49 187 49 c 0
 207 49 224 51 237 54 c 1
 291 112 292 203 312 313 c 1
 348 346 l 1
 374 327 l 1
 368 253 328 145 388 79 c 1
 405 59 430 49 468 49 c 0
 489 49 508 52 522 56 c 1
 572 105 581 191 581 271 c 0
 581 407 543 531 483 640 c 1
 399 780 277 898 148 1002 c 1
 129 1036 l 1
 185 1068 l 1
 319 961 446 836 530 690 c 2
 549 656 l 2
 615 541 656 413 656 270 c 0
 656 178 646 78 573 36 c 2
 517 3 l 2
 494 -10 466 -17 431 -17 c 0
 384 -17 357 0 341 28 c 0
 340 28 l 2
 321 62 l 1
 321 63 l 1
 312 52 302 42 288 34 c 2
 287 34 l 2
 231 1 l 2
 210 -11 186 -17 151 -17 c 0
 107 -17 77 4 56 39 c 0
 55 40 l 2
 36 74 l 2
 6 126 -1 204 -1 271 c 0
 -1 370 42 416 99 505 c 1
 155 537 l 1xce
EndSplineSet
Validated: 33
Ligature2: "'liga' Standard Ligatures in Latin lookup 0-1" N o
EndChar

StartChar: DrOo
Encoding: 352 -1 126
Width: 802
VWidth: 0
Flags: W
HStem: 593 20G<413 496.121> 644 21G<121.485 168.625 369.496 418.939> 842 20G<275 325.31 413 496.121>
VStem: 510 76<-126.775 359.268>
LayerCount: 2
Fore
SplineSet
624 49 m 5
 679 81 l 5
 691 68 707 61 715 49 c 6
 734 15 l 6
 736 14 l 4
 738 10 738 4 738 -1 c 4
 736 -33 693 -74 673 -101 c 5
 618 -133 l 5
 598 -100 l 5
 618 -73 658 -34 662 -2 c 5
 656 2 649 9 644 15 c 6
 624 49 l 5
133 644 m 1
 114 677 l 1
 254 830 l 1
 310 862 l 1
 421 717 l 1
 441 684 l 1
 385 651 l 1
 285 780 l 1
 190 676 l 1
 133 644 l 1
504 580 m 1
 447 547 l 1
 330 511 159 507 75 489 c 1
 75 488 75 488 75 488 c 1
 162 428 504 474 536 417 c 2
 556 384 l 2
 556 383 557 382 557 381 c 0
 581 321 583 238 586 145 c 0
 589 53 595 -47 568 -140 c 0
 566 -148 562 -153 554 -157 c 2
 497 -190 l 2
 432 -227 185 -118 31 -57 c 1
 12 -24 l 1
 68 9 l 1
 199 -43 399 -130 494 -131 c 1
 519 -41 513 57 510 146 c 0
 507 228 506 304 489 362 c 1
 417 405 67 360 23 437 c 2
 3 470 l 2
 0 475 -1 482 -1 490 c 0
 -1 498 5 503 14 508 c 2
 70 541 l 2
 127 575 342 571 484 613 c 1
 504 580 l 1
EndSplineSet
Validated: 33
Ligature2: "'liga' Standard Ligatures in Latin lookup 0-1" O o
EndChar

StartChar: DrSo
Encoding: 353 -1 127
Width: 621
VWidth: 0
Flags: W
HStem: -23 66<159.534 327.037> 469 66<170.5 362.772> 599 21G<36.2353 81.9394 283.496 334> 599 21G<36.2353 81.9394 283.496 334> 798 20G<190.061 239.556>
VStem: -16 76<144.088 374.85> 364 76<522 871>
LayerCount: 2
Fore
SplineSet
420 904 m 5xce
 440 871 l 5
 440 465 l 5
 384 432 l 5
 343 453 301 469 247 469 c 4
 215 469 182 462 154 450 c 5
 98 408 60 343 60 270 c 4
 60 224 71 178 91 138 c 5
 129 82 186 43 254 43 c 4
 288 43 316 50 341 61 c 5
 371 83 398 108 432 135 c 5
 489 168 l 5
 508 134 l 5
 464 98 429 64 388 40 c 6
 332 8 l 6
 300 -10 264 -23 217 -23 c 4
 142 -23 81 23 44 87 c 4
 44 88 43 87 43 88 c 4
 24 121 l 6
 -2 165 -16 219 -16 271 c 4
 -16 353 35 427 105 468 c 6
 106 469 l 6
 162 502 l 6
 199 523 241 535 284 535 c 4
 314 535 339 530 364 522 c 5
 364 872 l 5
 420 904 l 5xce
443 49 m 1
 499 81 l 1
 511 68 527 61 535 49 c 2
 555 15 l 2
 555 14 l 0
 557 10 558 4 558 -1 c 0
 556 -33 513 -74 493 -101 c 1
 437 -133 l 1
 417 -100 l 1
 437 -73 477 -34 481 -2 c 1
 475 2 468 9 463 15 c 2
 443 49 l 1
48 599 m 1xee
 28 633 l 1
 168 785 l 1
 224 818 l 1
 336 674 l 1
 355 639 l 1
 299 607 l 1
 199 736 l 1
 104 632 l 1
 48 599 l 1xee
EndSplineSet
Validated: 1
LCarets2: 1 0
Ligature2: "'liga' Standard Ligatures in Latin lookup 0-1" S o
EndChar

StartChar: DrTo
Encoding: 354 -1 128
Width: 604
VWidth: 0
Flags: W
HStem: -17 67<160.128 307.686> 481 66<159.564 308.009> 699 21G<406.485 453> 890 20G<194.455 279 394 436>
VStem: 0 76<140.172 396.373> 389 76<135.534 559.012>
LayerCount: 2
Fore
SplineSet
172 877 m 5
 229 910 l 5
 329 836 230.901719912 919.497654665 298 828 c 4
 320 798 338 769 354 741 c 6
 374 707 l 5
 374 706 375 707 375 706 c 4
 452 573 470 457 465 272 c 5
 408 239 l 5
 389 274 l 5
 394 453 377 563 308 691 c 4
 295 712 277.971010872 737.979492304 261 762 c 4
 196 854 292 768 192 842 c 5
 172 877 l 5
254 547 m 4
 322 547 375 507 407 451 c 6
 427 417 l 6
 451 375 465 323 465 272 c 4
 465 178 427 80 354 37 c 6
 353 37 l 6
 298 4 l 6
 275 -9 248 -17 218 -17 c 4
 148 -17 95 24 61 81 c 4
 61 82 60 80 60 81 c 4
 60 82 l 5
 40 116 l 6
 14 162 0 218 0 274 c 4
 0 363 40 450 110 491 c 6
 112 492 l 6
 168 524 l 6
 193 538 223 547 254 547 c 4
217 481 m 4
 196 481 176 476 160 471 c 5
 106 425 76 349 76 272 c 4
 76 223 86 173 106 132 c 5
 140 83 191 50 255 50 c 4
 273 50 292 53 306 57 c 5
 361 106 389 192 389 274 c 4
 389 318 378 364 361 401 c 5
 327 449 279 481 217 481 c 4
418 699 m 5
 399 732 l 5
 414 750 440 757 438 781 c 4
 438 785 435 790 434 794 c 4
 420 814 403 832 392 847 c 6
 373 881 l 5
 429 913 l 5
 443 893 469 868 483 843 c 6
 503 808 l 6
 508 798 513 789 514 779 c 4
 516 755 489 749 474 731 c 5
 418 699 l 5
81 -256 m 1
 62 -222 l 1
 202 -70 l 1
 258 -38 l 1
 369 -182 l 1
 389 -216 l 1
 333 -248 l 1
 233 -119 l 1
 138 -223 l 1
 81 -256 l 1
EndSplineSet
Validated: 37
LCarets2: 1 0
Ligature2: "'liga' Standard Ligatures in Latin lookup 0-1" T o
EndChar

StartChar: DrUo
Encoding: 355 -1 129
Width: 807
VWidth: 0
Flags: W
HStem: 458 66<55 298.231> 476 67<304.854 529> 581 21G<140.235 187 387.375 436.939> 581 21G<140.235 187 387.375 436.939> 780 20G<294.061 343.448>
VStem: 529 75<226.01 476>
LayerCount: 2
Fore
SplineSet
685 49 m 5x0c
 741 81 l 5
 753 68 769 61 777 49 c 6
 796 15 l 6
 796 14 l 4
 798 10 800 4 800 -1 c 4
 798 -33 754 -74 734 -101 c 5
 678 -133 l 5
 659 -100 l 5
 679 -73 720 -34 724 -2 c 5
 718 2 709 9 704 15 c 6
 685 49 l 5x0c
152 581 m 1x2c
 132 615 l 1
 272 767 l 1
 328 800 l 1
 440 655 l 1
 459 622 l 1
 403 589 l 1
 303 717 l 1
 208 613 l 1
 152 581 l 1x2c
-1 492 m 1
 55 524 l 1x8c
 262 530 378 537 585 543 c 1
 604 509 l 1
 606 199 644 23 612 -285 c 0
 611 -290 610 -295 607 -297 c 2
 550 -329 l 2
 535 -337 496 -298 467 -288 c 1
 447 -255 l 1
 504 -222 l 1
 516 -226 528 -233 541 -242 c 1
 565 29 533 201 529 476 c 1x4c
 336 470 218 464 18 458 c 1x8c
 -1 492 l 1
EndSplineSet
Validated: 33
Ligature2: "'liga' Standard Ligatures in Latin lookup 0-1" U o
EndChar

StartChar: DrYo
Encoding: 356 -1 130
Width: 890
VWidth: 0
Flags: W
HStem: -23 66<312.81 446.092> 528 20G<195.5 198.5 573.375 620.515> 548 251G<195.5 198.5 383.061 432.417 573.375 620.515> 600 21G<228.143 273.545 475.531 526> 600 21G<228.143 273.545 475.531 526>
VStem: 555 73<296.123 505>
LayerCount: 2
Fore
SplineSet
685 49 m 5x84
 741 81 l 5
 753 68 769 61 777 49 c 6
 796 15 l 6
 796 14 l 4
 798 10 800 4 800 -1 c 4
 798 -33 754 -74 734 -101 c 5
 678 -133 l 5
 659 -100 l 5
 679 -73 720 -34 724 -2 c 5
 718 2 709 9 704 15 c 6
 685 49 l 5x84
239 600 m 1x94
 220 635 l 1
 361 786 l 1
 417 819 l 1
 528 675 l 1
 547 641 l 1
 491 609 l 1
 392 737 l 1
 296 633 l 1
 239 600 l 1x94
20 -15 m 1
 0 18 l 1
 61 199 64 475 127 511 c 2
 183 544 l 2
 187 546 193 548 198 548 c 0xc4
 199 548 202 547 203 545 c 2
 222 511 l 2
 222 510 l 2
 239 478 224 233 288 99 c 1
 312 65 345 43 388 43 c 0
 409 43 428 47 443 51 c 1
 534 137 523 341 552 506 c 1
 609 538 l 1
 628 505 l 1
 619 197 650 7 604 -285 c 0
 601 -306 593 -318 580 -326 c 2
 523 -359 l 2
 455 -398 276 -299 187 -271 c 1
 168 -237 l 1
 224 -205 l 1
 300 -229 442 -304 524 -301 c 1
 526 -297 528 -290 529 -284 c 0
 552 -141 556 -20 555 99 c 1
 540 71 519 45 492 30 c 2
 437 -2 l 2
 414 -15 386 -23 351 -23 c 0
 301 -23 267 6 242 48 c 2
 222 81 l 2
 172 168 162 319 157 415 c 1
 132 313 117 141 76 17 c 1
 20 -15 l 1
EndSplineSet
Validated: 33
Ligature2: "'liga' Standard Ligatures in Latin lookup 0-1" Y o
EndChar

StartChar: DrZo
Encoding: 357 -1 131
Width: 825
VWidth: 0
Flags: W
HStem: -23 66<190.566 363.032> 207 67<109.523 308.014> 469 66<157.292 348.828> 628 21G<174.824 220.545 422.651 473> 874 20G<101 148.121> 874 20G<101 148.121 329 379.278>
VStem: 80 76<508 861> 459 76<191.318 372.874>
LayerCount: 2
Fore
SplineSet
136 894 m 5xfb
 156 861 l 5
 156 508 l 5
 191 524 226 535 273 535 c 4
 361 535 444 485 486 411 c 6
 506 376 l 6
 524 344 535 308 535 270 c 4
 535 230 527 189 511 152 c 4
 511 151 510 151 510 150 c 4
 542 128 576 108 610 87 c 5
 629 53 l 5
 573 21 l 5
 538 42 505 62 471 84 c 5
 454 63 434 47 412 34 c 6
 356 1 l 6
 329 -14 298 -23 266 -23 c 4
 162 -23 78 46 30 102 c 4
 28 105 26 109 24 112 c 6
 4 145 l 6
 4 146 l 6
 -9 170 6 188 31 203 c 6
 88 235 l 6
 89 236 l 6
 133 261 207 274 230 274 c 4
 299 274 372 238 448 190 c 5
 456 217 459 244 459 271 c 4
 459 302 453 333 440 361 c 5
 396 425 317 469 236 469 c 4
 182 469 141 453 100 432 c 5
 80 466 l 5
 80 862 l 5
 136 894 l 5xfb
418 119 m 4
 340 168 265 207 193 207 c 4
 175 207 128 199 86 184 c 5
 80 176 76 169 76 159 c 5
 125 106 204 43 303 43 c 4
 325 43 344 48 364 54 c 5
 384 70 403 93 417 117 c 4
 417 117 418 118 418 119 c 4
646 49 m 1
 702 81 l 1
 714 68 730 61 738 49 c 2
 757 15 l 2
 757 14 l 0
 759 10 760 4 760 -1 c 0
 758 -33 716 -74 696 -101 c 1
 639 -133 l 1
 620 -100 l 1
 640 -73 681 -34 685 -2 c 1
 679 2 670 9 665 15 c 2
 646 49 l 1
186 628 m 1
 167 662 l 1
 308 814 l 1
 364 846 l 1
 474 702 l 1
 494 668 l 1
 438 636 l 1
 339 765 l 1
 243 661 l 1
 186 628 l 1
EndSplineSet
Validated: 33
LCarets2: 1 0
Ligature2: "'liga' Standard Ligatures in Latin lookup 0-1" Z o
EndChar

StartChar: Drbo
Encoding: 358 -1 132
Width: 704
VWidth: 0
Flags: W
HStem: 491 66<152.08 309.643> 491 43<154 220.337> 607 21G<80.8235 125.939> 607 21G<80.8235 125.939 327.651 378.625> 805 20G<233.375 284.417>
VStem: -23 76<17 303.332> 401 76<17 302.178>
LayerCount: 2
Fore
SplineSet
92 607 m 5x2e
 73 641 l 5
 212 793 l 5
 269 825 l 5
 380 681 l 5
 400 647 l 5
 343 615 l 5
 244 744 l 5
 148 640 l 5
 92 607 l 5x2e
498 49 m 1
 555 81 l 1
 567 68 582 61 590 49 c 2
 610 15 l 2
 611 14 l 0
 613 10 613 4 613 -1 c 0
 611 -33 568 -74 548 -101 c 1
 492 -133 l 1
 472 -100 l 1
 492 -73 533 -34 537 -2 c 1
 531 2 523 9 518 15 c 2
 498 49 l 1
-3 -16 m 1
 -23 17 l 1
 -23 201 -27 429 98 502 c 2
 154 534 l 2
 155 534 l 0x4e
 181 549 211 557 249 557 c 0
 324 557 373 523 403 470 c 2
 422 437 l 2
 422 436 l 2
 480 333 477 159 477 16 c 1
 420 -16 l 1
 401 17 l 1
 401 152 405 315 355 419 c 1
 325 462 279 491 212 491 c 0x8e
 187 491 167 487 147 481 c 1
 49 394 53 187 53 16 c 1
 -3 -16 l 1
EndSplineSet
Validated: 33
LCarets2: 1 0
Ligature2: "'liga' Standard Ligatures in Latin lookup 0-1" b o
EndChar

StartChar: Drdo
Encoding: 359 -1 133
Width: 756
VWidth: 0
Flags: W
HStem: -363 21G<227.824 272.939> 2 62<301 433.427> 473 68<320.26 416.581> 593 21G<157.485 204 405.651 455.545> 593 21G<157.485 204 405.651 455.545> 791 20G<311.375 362.417>
VStem: 224 76<-329 -8 64 341.425> 231 76<68.736 471.342> 541 75<113.117 319.166>
LayerCount: 2
Fore
SplineSet
550 49 m 5xe480
 607 81 l 5
 619 68 634 61 642 49 c 6
 662 15 l 6
 663 14 l 4
 665 10 665 4 665 -1 c 4
 663 -33 620 -74 600 -101 c 5
 544 -133 l 5
 524 -100 l 5
 544 -73 585 -34 589 -2 c 5
 583 2 575 9 570 15 c 6
 550 49 l 5xe480
169 593 m 1xf480
 150 626 l 1
 290 779 l 1
 347 811 l 1
 458 667 l 1
 478 633 l 1
 421 600 l 1
 322 729 l 1
 225 625 l 1
 169 593 l 1xf480
300 2 m 1xe680
 298 -90 295 -187 295 -330 c 1
 239 -363 l 1
 220 -329 l 1
 220 -191 222 -97 224 -8 c 1xe680
 151 -16 80 -21 20 -27 c 1
 0 8 l 1
 56 40 l 1
 106 45 164 50 225 55 c 1
 228 159 231 265 231 427 c 0xe580
 231 452 250 477 277 493 c 2
 277 493 279 494 280 494 c 2
 336 526 l 2
 350 535 366 541 381 541 c 0
 431 541 495 489 541 411 c 2
 560 377 l 2
 594 320 616 248 616 172 c 0
 616 137 596 112 560 91 c 0
 559 91 l 2
 503 58 l 2
 454 30 380 14 300 2 c 1xe680
301 64 m 1
 379 74 455 87 508 109 c 1
 529 126 541 147 541 173 c 0
 541 241 521 308 494 361 c 1
 450 430 391 473 344 473 c 0
 339 473 331 473 328 472 c 0
 315 458 307 442 307 426 c 0xe580
 307 268 304 165 301 64 c 1
EndSplineSet
Validated: 1
Ligature2: "'liga' Standard Ligatures in Latin lookup 0-1" d o
EndChar

StartChar: Drfo
Encoding: 360 -1 134
Width: 664
VWidth: 0
Flags: W
HStem: -25 66<111.533 301.254> 239 68<198.722 291> 482 66<141.153 306.481> 666 21G<467.8 512.939> 866 20G<84.0606 148 411 458.121 525 572.121>
LayerCount: 2
Fore
SplineSet
446 886 m 5
 466 853 l 5
 451 811 429 761 426 733 c 4
 428 732 429 731 431 730 c 5
 455 765 477 817 504 854 c 5
 560 886 l 5
 580 853 l 5
 563 793 552 759 535 699 c 5
 479 666 l 5
 465 691 l 5
 422 667 l 6
 407 658 392 660 374 678 c 4
 373 679 373 680 372 681 c 6
 352 715 l 6
 339 737 370 800 390 854 c 5
 446 886 l 5
120 -243 m 1
 101 -209 l 1
 240 -57 l 1
 297 -25 l 1
 408 -169 l 1
 428 -203 l 1
 372 -235 l 1
 272 -106 l 1
 177 -210 l 1
 120 -243 l 1
419 144 m 1
 439 109 l 1
 414 78 387 53 356 35 c 2
 300 2 l 2
 299 2 298 1 298 1 c 0
 268 -16 234 -25 193 -25 c 0
 125 -25 53 2 28 46 c 2
 9 79 l 2
 -2 97 -5 120 4 144 c 0
 17 180 41 204 69 220 c 2
 126 252 l 2
 127 252 127 252 127 252 c 2
 138 258 149 265 160 269 c 1
 124 283 98 303 80 334 c 2
 61 367 l 1
 60 368 l 2
 60 369 60 368 60 369 c 0
 54 381 47 396 43 411 c 0
 34 445 52 469 82 486 c 2
 139 519 l 2
 140 520 l 2
 174 540 220 548 266 548 c 0
 281 548 295 547 307 544 c 1
 296 587 285 631 264 672 c 0
 262 675 261 676 259 679 c 0
 222 730 141 836 81 867 c 1
 62 900 l 1
 118 933 l 1
 178 902 259 796 296 745 c 0
 301 737 307 730 311 722 c 2
 330 688 l 2
 370 619 377 547 401 474 c 0
 405 461 411 447 417 433 c 2
 421 426 l 2
 423 423 424 419 426 415 c 1
 369 382 l 1
 358 404 l 2
 349 416 341 426 333 436 c 0
 309 464 283 482 230 482 c 0
 198 482 162 478 134 468 c 1
 120 453 113 432 119 408 c 0
 121 399 124 394 127 385 c 0
 168 333 241 318 328 307 c 1
 348 272 l 1
 291 239 l 1
 236 225 172 221 119 200 c 1
 104 186 89 167 80 142 c 0
 74 125 73 110 77 95 c 1
 107 61 170 41 230 41 c 0
 259 41 285 45 308 54 c 1
 328 69 346 90 363 112 c 1
 419 144 l 1
EndSplineSet
Validated: 33
Ligature2: "'liga' Standard Ligatures in Latin lookup 0-1" f o
EndChar

StartChar: Drgo
Encoding: 361 -1 135
Width: 625
VWidth: 0
Flags: W
HStem: 649 71G<7.14286 53.625 446.485 493.625> 768 66<147.251 293.918> 893 20G<434 476>
VStem: 27 76<-275 308> 420 76<369.02 648.649>
LayerCount: 2
Fore
SplineSet
458 699 m 5
 439 732 l 5
 454 750 480 757 478 781 c 4
 478 785 475 790 474 794 c 4
 460 814 443 832 432 847 c 6
 413 881 l 5
 469 913 l 5
 483 893 509 868 523 843 c 6
 543 808 l 6
 548 798 553 789 554 779 c 4
 556 755 530 749 515 731 c 5
 458 699 l 5
147 -100 m 1
 128 -66 l 1
 269 86 l 1
 325 118 l 1
 436 -26 l 1
 455 -60 l 1
 399 -92 l 1
 300 37 l 1
 204 -67 l 1
 147 -100 l 1
18 649 m 1
 -1 684 l 1
 30 723 55 761 93 783 c 2
 150 816 l 2
 151 816 151 817 151 817 c 0
 171 828 192 834 220 834 c 0
 311 834 393 781 439 702 c 2
 458 668 l 1
 458 667 458 668 458 667 c 0
 482 625 496 576 496 523 c 0
 496 439 477 331 393 282 c 2
 337 249 l 2
 336 249 336 249 336 249 c 0
 327 245 320 240 311 237 c 0
 233 208 158 251 103 308 c 1
 103 -296 l 1
 47 -328 l 1
 36 -327 32 -325 21 -324 c 1
 1 -290 l 1
 27 -275 l 1
 27 417 l 1
 83 450 l 1
 86 444 l 2
 136 360 235 265 343 302 c 1
 405 355 420 449 420 524 c 0
 420 571 409 614 391 652 c 1
 343 721 267 768 183 768 c 0
 168 768 154 766 142 763 c 1
 118 741 98 710 75 681 c 1
 18 649 l 1
EndSplineSet
Validated: 33
Ligature2: "'liga' Standard Ligatures in Latin lookup 0-1" g o
EndChar

StartChar: Drho
Encoding: 362 -1 136
Width: 601
VWidth: 0
Flags: W
HStem: -20 67<154.573 326.029> 478 66<154.986 324.102> 635 21G<82.8235 128.545 330.651 379.939> 833 20G<237 287.278>
VStem: 0 76<125.921 400.125> 405 76<127.685 399.265>
LayerCount: 2
Fore
SplineSet
94 635 m 5
 75 669 l 5
 216 821 l 5
 272 853 l 5
 382 709 l 5
 402 676 l 5
 346 643 l 5
 247 772 l 5
 151 668 l 5
 94 635 l 5
422 49 m 1
 478 81 l 1
 490 68 506 61 514 49 c 2
 533 15 l 2
 534 14 l 0
 536 10 536 4 536 -1 c 0
 534 -33 491 -74 471 -101 c 1
 416 -133 l 1
 396 -100 l 1
 416 -73 456 -34 460 -2 c 1
 454 2 447 9 442 15 c 2
 422 49 l 1
481 270 m 0
 481 169 447 77 375 36 c 2
 318 3 l 2
 292 -12 261 -20 224 -20 c 0
 145 -20 92 16 58 72 c 0
 57 73 l 2
 38 106 l 2
 12 152 0 209 0 273 c 0
 0 364 38 448 106 488 c 2
 162 520 l 2
 188 535 220 544 255 544 c 0
 335 544 392 508 426 450 c 2
 445 415 l 2
 468 375 481 325 481 270 c 0
405 271 m 0
 405 319 396 362 379 399 c 1
 344 448 291 478 218 478 c 0
 195 478 173 473 155 467 c 1
 103 423 76 350 76 272 c 0
 76 217 85 162 105 122 c 1
 139 74 189 47 261 47 c 0
 285 47 308 50 326 56 c 1
 380 104 405 184 405 271 c 0
EndSplineSet
Validated: 1
LCarets2: 1 0
Ligature2: "'liga' Standard Ligatures in Latin lookup 0-1" h o
EndChar

StartChar: Drko
Encoding: 363 -1 137
Width: 615
VWidth: 0
Flags: W
HStem: -288 66<82.3779 132.5> 60 58<221 346.5> 588 20G<168.455 214.176> 608 218G<168.455 214.176 279 329.556> 628 21G<126.235 171.939 373.496 424>
VStem: 0 76<-214.013 -5.01463> 145 76<-221.147 36 118 524> 463 75<251.113 399>
LayerCount: 2
Fore
SplineSet
399 49 m 5xc7
 455 81 l 5
 467 68 483 61 491 49 c 6
 510 15 l 6
 511 14 l 4
 513 10 514 4 514 -1 c 4
 512 -33 468 -74 448 -101 c 5
 392 -133 l 5
 373 -100 l 5
 393 -73 434 -34 438 -2 c 5
 432 2 423 9 418 15 c 6
 399 49 l 5xc7
138 628 m 1xcf
 118 662 l 1
 258 814 l 1
 314 846 l 1
 426 702 l 1
 445 668 l 1
 389 636 l 1
 289 765 l 1
 194 661 l 1
 138 628 l 1xcf
118 508 m 1
 99 542 l 1
 117 555 128 562 146 575 c 2
 203 608 l 1xe7
 222 574 l 1
 221 118 l 1
 270 131 322 131 363 145 c 0
 367 148 369 151 372 154 c 0
 441 228 455 296 463 399 c 1
 519 431 l 1
 538 398 l 1
 530 295 516 227 447 153 c 0
 436 141 425 132 413 126 c 2
 356 93 l 2
 316 69 269 68 221 60 c 1
 221 58 l 1
 221 -145 l 1
 215 -187 201 -230 171 -247 c 2
 115 -280 l 2
 105 -285 93 -288 80 -288 c 0
 57 -288 44 -278 35 -262 c 2
 15 -229 l 2
 -3 -198 0 -141 0 -95 c 0
 0 -21 42 24 106 61 c 2
 145 83 l 1
 145 91 l 1
 146 524 l 1
 118 508 l 1
145 36 m 1
 102 4 76 -38 76 -96 c 0
 76 -133 72 -176 82 -210 c 1
 90 -216 102 -222 117 -222 c 0
 118 -222 117 -222 119 -222 c 0
 132 -204 141 -173 145 -144 c 2
 145 36 l 1
EndSplineSet
Validated: 33
Ligature2: "'liga' Standard Ligatures in Latin lookup 0-1" k o
EndChar

StartChar: Drlo
Encoding: 364 -1 138
Width: 656
VWidth: 0
Flags: W
HStem: -23 66<181.43 351.094> 469 66<145.292 335.097> 576 21G<169.235 214.939 416.806 467.625> 576 21G<169.235 214.939 416.806 467.625> 875 20G<89.375 136.515> 875 20G<89.375 136.515 323.375 374.278>
VStem: 68 76<508 862> 448 76<145.687 370.67>
LayerCount: 2
Fore
SplineSet
125 895 m 5xcb
 144 862 l 5
 144 508 l 5
 179 524 214 535 261 535 c 4
 349 535 434 485 476 411 c 6
 495 376 l 6
 513 344 524 308 524 270 c 4
 524 176 477 78 401 34 c 6
 344 1 l 6
 317 -14 287 -23 255 -23 c 4
 151 -23 99 37 20 102 c 5
 0 135 l 5
 56 168 l 5
 135 103 187 43 291 43 c 4
 313 43 332 48 352 54 c 5
 412 103 448 188 448 271 c 4
 448 302 441 333 428 361 c 5
 384 425 305 469 224 469 c 4
 170 469 129 453 88 432 c 5
 68 466 l 5
 68 863 l 5
 125 895 l 5xcb
451 49 m 1
 507 81 l 1
 519 68 535 61 543 49 c 2
 562 15 l 2
 562 14 l 0
 564 10 566 4 566 -1 c 0
 564 -33 520 -74 500 -101 c 1
 444 -133 l 1
 425 -100 l 1
 445 -73 486 -34 490 -2 c 1
 484 2 475 9 470 15 c 2
 451 49 l 1
181 576 m 1xe3
 161 610 l 1
 302 762 l 1
 359 794 l 1
 469 650 l 1
 489 616 l 1
 432 584 l 1
 334 713 l 1
 237 609 l 1
 181 576 l 1xe3
EndSplineSet
Validated: 1
LCarets2: 1 0
Ligature2: "'liga' Standard Ligatures in Latin lookup 0-1" l o
EndChar

StartChar: Drmo
Encoding: 365 -1 139
Width: 618
VWidth: 0
Flags: W
HStem: -25 66<139.254 326.828> 239 68<146 244.375> 482 66<137.659 299.134> 615 21G<57.1429 102.545 304.531 355> 814 20G<211 261.278>
LayerCount: 2
Fore
SplineSet
68 615 m 5
 49 650 l 5
 190 802 l 5
 246 834 l 5
 356 690 l 5
 376 656 l 5
 320 624 l 5
 221 752 l 5
 125 648 l 5
 68 615 l 5
439 49 m 1
 495 81 l 1
 507 68 523 61 531 49 c 2
 550 15 l 2
 550 14 l 0
 552 10 554 4 554 -1 c 0
 552 -33 509 -74 489 -101 c 1
 432 -133 l 1
 413 -100 l 1
 433 -73 474 -34 478 -2 c 1
 472 2 463 9 458 15 c 2
 439 49 l 1
37 394 m 1
 17 428 l 1
 41 459 57 484 83 499 c 2
 140 532 l 2
 141 533 l 0
 158 543 180 548 209 548 c 0
 275 548 345 529 369 489 c 2
 389 455 l 2
 390 454 l 0
 398 441 398 425 394 408 c 0
 382 361 359 334 325 314 c 2
 269 282 l 1
 269 282 389 223 403 199 c 2
 422 166 l 2
 426 158 430 151 433 142 c 0
 449 98 427 61 386 37 c 2
 329 4 l 2
 328 4 l 2
 294 -16 251 -25 208 -25 c 0
 122 -25 68 16 18 77 c 1
 -1 112 l 1
 55 144 l 1
 105 83 159 41 245 41 c 0
 275 41 308 46 335 56 c 1
 360 79 371 109 358 144 c 0
 357 146 356 148 355 150 c 0
 302 218 195 216 109 239 c 1
 90 274 l 1
 146 307 l 2
 150 308 155 307 159 308 c 0
 201 313 240 320 274 333 c 1
 295 351 309 377 318 411 c 0
 320 421 322 430 321 438 c 0
 291 467 228 482 172 482 c 0
 157 482 144 480 133 478 c 1
 120 465 108 447 93 427 c 1
 37 394 l 1
EndSplineSet
Validated: 33
LCarets2: 1 0
Ligature2: "'liga' Standard Ligatures in Latin lookup 0-1" m o
EndChar

StartChar: Drno
Encoding: 366 -1 140
Width: 585
VWidth: 0
Flags: W
HStem: -18 66<155.364 312.928> 482 66<186.16 374> 659 21G<129.235 176 376.688 425.939> 858 20G<284.061 333.31>
VStem: 0 76<134.829 374.375> 26 76<623.738 873>
LayerCount: 2
Fore
SplineSet
468 96 m 5xf8
 412 64 l 6
 400 60 387 53 378 49 c 6
 323 16 l 6
 322 16 321 15 321 15 c 4
 287 -5 255 -18 208 -18 c 4
 142 -18 92 21 61 76 c 6
 41 109 l 6
 14 156 0 215 0 271 c 4xf8
 0 367 38 390 106 457 c 4
 115 466 123 473 133 478 c 6
 173 500 l 5
 152 505 135 512 115 525 c 4
 97 537 84 554 74 571 c 6
 54 604 l 6
 53 606 l 6
 30 646 26 695 26 743 c 4
 26 856 28 761 28 874 c 5
 84 907 l 5
 104 873 l 5
 104 760 102 855 102 742 c 4xf4
 102 701 106 659 121 622 c 4
 129 612 140 602 152 593 c 4
 232 540 319 574 411 548 c 5
 430 515 l 5
 374 482 l 5
 296 460 235 471 183 456 c 5
 183 456 183 457 182 456 c 4
 114 389 76 366 76 270 c 4
 76 220 85 169 107 125 c 5
 138 79 185 48 245 48 c 4
 284 48 313 58 341 73 c 6
 395 104 l 6
 411 114 428 123 448 131 c 5
 468 96 l 5xf8
399 49 m 1
 455 81 l 1
 467 68 483 61 491 49 c 2
 510 15 l 2
 510 14 l 0
 512 10 514 4 514 -1 c 0
 512 -33 468 -74 448 -101 c 1
 392 -133 l 1
 373 -100 l 1
 393 -73 434 -34 438 -2 c 1
 432 2 423 9 418 15 c 2
 399 49 l 1
141 659 m 1
 121 693 l 1
 262 845 l 1
 318 878 l 1
 429 733 l 1
 448 700 l 1
 392 667 l 1
 294 795 l 1
 197 691 l 1
 141 659 l 1
EndSplineSet
Validated: 1
LCarets2: 1 0
Ligature2: "'liga' Standard Ligatures in Latin lookup 0-1" n o
EndChar

StartChar: Drpo
Encoding: 367 -1 141
Width: 689
VWidth: 0
Flags: W
HStem: -23 66<109.205 302.954> 239 68<198.929 292> 482 66<140.554 314.392> 615 21G<69.1429 114.545 316.531 367> 814 20G<223 273.278>
VStem: 477 75<-214 -110.043>
LayerCount: 2
Fore
SplineSet
80 615 m 5
 61 650 l 5
 202 802 l 5
 258 834 l 5
 368 690 l 5
 388 656 l 5
 332 624 l 5
 233 752 l 5
 137 648 l 5
 80 615 l 5
492 108 m 1
 510 77 l 2
 512 78 513 78 514 79 c 2
 570 112 l 2
 575 115 580 114 582 110 c 2
 601 77 l 2
 602 76 l 0
 603 73 604 69 604 64 c 0
 607 -27 576 -123 552 -214 c 1
 496 -247 l 1
 477 -212 l 1
 495 -140 517 -70 525 3 c 1
 507 -23 488 -52 474 -68 c 1
 418 -101 l 1
 399 -67 l 1
 413 -12 422 21 436 76 c 1
 492 108 l 1
421 427 m 1
 365 394 l 1
 326 446 306 482 230 482 c 0
 198 482 161 477 134 468 c 1
 119 452 113 432 119 408 c 0
 121 399 125 391 128 385 c 0
 169 332 241 318 328 307 c 1
 348 272 l 1
 292 239 l 1
 237 225 171 220 120 200 c 1
 104 186 89 167 80 142 c 0
 74 126 74 110 77 96 c 1
 108 62 170 43 230 43 c 0
 260 43 287 48 311 57 c 1
 329 72 348 91 364 112 c 1
 419 144 l 1
 439 109 l 1
 415 79 391 55 361 38 c 2
 361 38 360 38 359 38 c 2
 302 5 l 2
 272 -12 236 -23 193 -23 c 0
 125 -23 53 4 28 47 c 2
 9 80 l 2
 -2 98 -5 120 4 144 c 0
 17 180 41 204 69 220 c 2
 126 252 l 2
 137 258 147 265 160 269 c 1
 126 283 98 303 80 334 c 2
 61 367 l 2
 53 379 47 395 43 411 c 0
 34 445 52 469 82 486 c 2
 139 519 l 2
 173 539 220 548 266 548 c 0
 342 548 363 512 402 460 c 1
 421 427 l 1
EndSplineSet
Validated: 33
LCarets2: 1 0
Ligature2: "'liga' Standard Ligatures in Latin lookup 0-1" p o
EndChar

StartChar: Drro
Encoding: 368 -1 142
Width: 594
VWidth: 0
Flags: W
HStem: -21 67<164.001 321.009> 478 66<158.915 317.324> 699 21G<406.485 453> 893 103G<394 436>
VStem: -1 76<138.098 462> 413 76<141.864 387.756>
LayerCount: 2
Fore
SplineSet
418 699 m 5
 399 732 l 5
 414 750 440 757 438 781 c 4
 438 785 435 790 434 794 c 4
 420 814 403 832 392 847 c 6
 373 881 l 5
 429 913 l 5
 443 893 469 868 483 843 c 6
 503 808 l 6
 508 798 513 789 514 779 c 4
 516 755 489 749 474 731 c 5
 418 699 l 5
133 -243 m 1
 114 -209 l 1
 254 -57 l 1
 310 -25 l 1
 421 -169 l 1
 441 -203 l 1
 385 -235 l 1
 285 -106 l 1
 190 -210 l 1
 133 -243 l 1
431 961 m 1
 407 948 l 2
 326 899 280 852 228 766 c 0
 113 576 83 462 75 269 c 1
 18 236 l 1
 -1 270 l 1
 7 463 37 578 152 768 c 0
 206 858 255 905 343 956 c 2
 400 988 l 2
 404 990 408 994 412 996 c 2
 431 961 l 1
413 270 m 0
 413 310 404 349 387 385 c 1
 350 439 289 478 217 478 c 0
 196 478 176 474 158 468 c 1
 105 424 75 347 75 269 c 0
 75 221 85 173 105 132 c 1
 140 81 193 46 260 46 c 0
 283 46 301 48 322 56 c 1
 379 104 413 187 413 270 c 0
489 269 m 0
 489 174 445 79 370 36 c 2
 314 3 l 2
 287 -12 257 -21 223 -21 c 0
 149 -21 92 21 57 82 c 2
 38 116 l 1
 38 117 l 2
 13 161 -1 216 -1 270 c 0
 -1 360 40 448 110 488 c 2
 167 520 l 2
 193 535 222 544 254 544 c 0
 333 544 397 499 434 434 c 2
 454 401 l 2
 477 362 489 317 489 269 c 0
EndSplineSet
Validated: 37
Ligature2: "'liga' Standard Ligatures in Latin lookup 0-1" r o
EndChar

StartChar: Drso
Encoding: 369 -1 143
Width: 631
VWidth: 0
Flags: W
HStem: -23 67<147.797 231> 471 66<113.526 212.681> 570 21G<121.485 168.625 369.651 418.939> 570 21G<121.485 168.625 369.651 418.939> 768 20G<277.061 326.278>
VStem: 0 76<120.131 421.408> 233 75<-297.506 -22 50 331.411> 491 76<203.304 417.702>
LayerCount: 2
Fore
SplineSet
444 49 m 5xcf
 500 81 l 5
 512 68 528 61 536 49 c 6
 556 15 l 6
 557 14 l 4
 559 10 559 4 559 -1 c 4
 557 -33 514 -74 494 -101 c 5
 438 -133 l 5
 418 -100 l 5
 438 -73 479 -34 483 -2 c 5
 477 2 469 9 464 15 c 6
 444 49 l 5xcf
133 570 m 1xef
 114 603 l 1
 255 755 l 1
 311 788 l 1
 421 644 l 1
 441 610 l 1
 385 577 l 1
 286 706 l 1
 190 602 l 1
 133 570 l 1xef
419 486 m 1
 476 519 l 1
 502 495 519 477 531 457 c 2
 550 422 l 2
 562 401 567 382 567 353 c 0
 567 233 515 109 410 48 c 2
 353 15 l 2
 352 14 l 0
 338 5 323 -1 308 -6 c 1
 310 -99 315 -190 321 -259 c 0
 322 -273 306 -306 295 -317 c 1
 238 -350 l 1
 219 -316 l 1
 230 -305 246 -272 245 -258 c 0
 239 -193 235 -110 233 -22 c 1
 224 -23 216 -23 207 -23 c 0
 135 -23 89 13 60 63 c 2
 40 96 l 2
 11 146 0 211 0 271 c 0
 0 355 31 470 80 498 c 2
 136 531 l 2
 144 535 151 537 159 537 c 0
 200 537 245 523 265 489 c 2
 285 455 l 1
 286 454 l 2
 290 446 294 437 295 427 c 0
 304 354 304 203 307 50 c 0
 308 50 308 50 309 50 c 0
 327 54 345 58 361 66 c 1
 448 131 491 244 491 354 c 0
 491 375 487 392 482 407 c 0
 471 421 457 436 439 453 c 1
 419 486 l 1
231 44 m 1
 228 199 228 353 219 428 c 0
 219 431 218 436 217 439 c 0
 195 461 163 470 129 471 c 1
 97 427 76 338 76 270 c 0
 76 217 84 161 106 113 c 1
 133 75 174 47 231 44 c 1
EndSplineSet
Validated: 33
Ligature2: "'liga' Standard Ligatures in Latin lookup 0-1" s o
EndChar

StartChar: Drto
Encoding: 370 -1 144
Width: 728
VWidth: 0
Flags: W
HStem: 226 68<239.938 377.957> 575 20G<21.0606 59> 576 21G<130.235 175.939 377.806 428.625> 576 21G<130.235 175.939 377.806 428.625> 595 179G<21.0606 59 284.375 335.278>
VStem: 14 64<129 266.573> 24 76<256.974 525> 425 75<-87.532 176.674>
LayerCount: 2
Fore
SplineSet
529 49 m 5x81
 585 81 l 5
 597 68 613 61 621 49 c 6
 640 15 l 6
 640 14 l 4
 642 10 644 4 644 -1 c 4
 642 -33 598 -74 578 -101 c 5
 522 -133 l 5
 503 -100 l 5
 523 -73 564 -34 568 -2 c 5
 562 2 553 9 548 15 c 6
 529 49 l 5x81
142 576 m 1xa1
 122 610 l 1
 263 762 l 1
 320 794 l 1
 430 650 l 1
 450 616 l 1
 393 584 l 1
 295 713 l 1
 198 609 l 1
 142 576 l 1xa1
-1 562 m 1
 55 595 l 1
 63 590 76 589 79 583 c 2
 99 549 l 2
 100 548 100 546 100 544 c 0xc3
 100 387 81 258 78 129 c 1
 104 166 151 217 186 238 c 2
 243 271 l 2
 244 272 l 0
 269 286 293 294 320 294 c 0
 382 294 422 269 447 226 c 2
 467 193 l 2
 491 153 500 95 500 21 c 0
 500 -106 394 -214 269 -286 c 2
 212 -318 l 2
 166 -344 120 -366 73 -382 c 1
 53 -349 l 1
 109 -316 l 1
 146 -303 183 -288 221 -268 c 1
 331 -198 425 -96 425 22 c 0
 425 85 417 136 400 176 c 1
 375 208 337 226 283 226 c 0
 267 226 249 223 234 218 c 1
 167 164 115 67 90 -12 c 1
 34 -44 l 1
 14 -11 l 1xc5
 17 199 24 320 24 525 c 0xc3
 23 525 19 528 18 529 c 2
 -1 562 l 1
EndSplineSet
Validated: 1
Ligature2: "'liga' Standard Ligatures in Latin lookup 0-1" t o
EndChar

StartChar: Drvo
Encoding: 371 -1 145
Width: 786
VWidth: 0
Flags: W
HStem: 585 21G<238.824 284.545 486.496 537> 796 21G<83.4848 114 238.824 284.545 486.496 537> 880 20G<135.061 180.176 392.455 442.31>
VStem: 0 75<434.158 508.495> 112 75<73.2366 368 577.633 807>
LayerCount: 2
Fore
SplineSet
95 796 m 1
 76 829 l 1
 90 843 99 853 113 867 c 1
 169 900 l 1
 188 866 l 1
 192 631 197 688 197 453 c 0
 197 442 194 430 186 420 c 1
 186 411 187 403 187 394 c 0
 189 292 195 213 195 94 c 0
 195 86 197 78 198 73 c 0
 236 35 311 28 373 34 c 0
 410 38 444 46 471 58 c 1
 506 83 532 114 555 145 c 1
 611 178 l 1
 630 144 l 1
 602 105 569 68 521 40 c 2
 521 40 520 39 519 39 c 2
 463 6 l 2
 428 -14 387 -29 336 -34 c 0
 267 -42 179 -29 150 22 c 2
 130 55 l 2
 124 66 119 80 119 95 c 0
 119 203 114 279 112 368 c 1
 105 365 l 2
 104 364 l 0
 95 360 88 356 79 356 c 0
 62 356 46 372 35 390 c 2
 15 424 l 1
 15 425 14 425 14 426 c 0
 5 442 0 462 0 477 c 0
 0 494 26 522 50 535 c 2
 106 568 l 2
 107 568 107 568 107 568 c 0
 112 571 117 573 121 574 c 1
 120 722 117 648 114 807 c 1
 95 796 l 1
581 49 m 1
 637 81 l 1
 649 68 665 61 673 49 c 2
 692 15 l 2
 692 14 l 0
 694 10 696 4 696 -1 c 0
 694 -33 650 -74 630 -101 c 1
 574 -133 l 1
 555 -100 l 1
 575 -73 616 -34 620 -2 c 1
 614 2 605 9 600 15 c 2
 581 49 l 1
250 585 m 1
 231 619 l 1
 370 771 l 1
 427 804 l 1
 538 659 l 1
 558 625 l 1
 502 593 l 1
 402 722 l 1
 307 618 l 1
 250 585 l 1
110 424 m 1
 110 444 109 463 109 486 c 0
 109 490 108 498 107 503 c 0
 104 506 98 508 94 509 c 1
 83 498 75 486 75 476 c 0
 75 465 78 453 82 441 c 0
 90 432 99 426 110 424 c 1
EndSplineSet
Validated: 33
LCarets2: 1 0
Ligature2: "'liga' Standard Ligatures in Latin lookup 0-1" v o
EndChar

StartChar: Drxo
Encoding: 372 -1 146
Width: 592
VWidth: 0
Flags: W
HStem: -13 67<118.745 276.19> 470 66<153.875 277.508> 550 21G<57.8235 103.545 305.651 356> 550 21G<57.8235 103.545 305.651 356> 748 20G<212 262.417>
VStem: 0 76<97.3193 389.23>
LayerCount: 2
Fore
SplineSet
387 49 m 5xcc
 443 81 l 5
 455 68 471 61 479 49 c 6
 498 15 l 6
 498 14 l 4
 500 10 502 4 502 -1 c 4
 500 -33 457 -74 437 -101 c 5
 380 -133 l 5
 361 -100 l 5
 381 -73 422 -34 426 -2 c 5
 420 2 411 9 406 15 c 6
 387 49 l 5xcc
69 550 m 1xec
 50 584 l 1
 191 736 l 1
 247 768 l 1
 358 624 l 1
 377 590 l 1
 321 558 l 1
 222 687 l 1
 126 583 l 1
 69 550 l 1xec
398 414 m 1
 341 381 l 1
 291 436 256 470 186 470 c 0
 178 470 169 469 161 467 c 1
 111 423 76 345 76 270 c 0
 76 213 80 148 101 101 c 1
 124 72 155 54 204 54 c 0
 233 54 259 58 280 66 c 1
 297 80 312 95 326 116 c 1
 382 148 l 1
 402 115 l 1
 380 85 357 62 329 46 c 2
 329 46 329 46 328 46 c 2
 272 13 l 2
 243 -4 209 -13 168 -13 c 0
 112 -13 75 12 53 50 c 2
 34 83 l 2
 5 133 0 206 0 271 c 0
 0 360 51 453 114 489 c 2
 170 521 l 2
 187 531 206 536 223 536 c 0
 293 536 328 502 378 447 c 1
 398 414 l 1
EndSplineSet
Validated: 1
Ligature2: "'liga' Standard Ligatures in Latin lookup 0-1" x o
EndChar

StartChar: Drzo
Encoding: 373 -1 147
Width: 695
VWidth: 0
Flags: W
HStem: -18 66<150.133 293.904> 517 20G<20 67.1212> 537 223G<20 67.1212 247.375 298.417> 561 21G<95.1429 139.939 342.375 393> 561 21G<95.1429 139.939 342.375 393>
VStem: -1 76<218.355 504> 378 76<-175.1 74 213.001 498>
LayerCount: 2
Fore
SplineSet
503 49 m 5x86
 559 81 l 5
 571 68 587 61 595 49 c 6
 614 15 l 6
 614 14 l 4
 616 10 618 4 618 -1 c 4
 616 -33 572 -74 552 -101 c 5
 496 -133 l 5
 477 -100 l 5
 497 -73 538 -34 542 -2 c 5
 536 2 527 9 522 15 c 6
 503 49 l 5x86
106 561 m 1x96
 87 596 l 1
 226 748 l 1
 283 780 l 1
 394 636 l 1
 414 602 l 1
 358 570 l 1
 258 698 l 1
 162 594 l 1
 106 561 l 1x96
55 537 m 1xc6
 75 504 l 1
 75 375 69 211 116 110 c 1
 144 71 185 48 243 48 c 0
 259 48 276 50 288 53 c 1
 374 139 355 345 378 499 c 1
 434 532 l 1
 454 498 l 1
 453 262 464 123 451 -106 c 0
 448 -170 393 -229 326 -268 c 2
 270 -300 l 2
 269 -300 l 2
 187 -347 86 -365 29 -327 c 1
 10 -294 l 1
 66 -261 l 1
 117 -295 201 -284 277 -248 c 1
 330 -211 372 -160 375 -105 c 0
 379 -40 380 18 381 74 c 1
 369 57 355 42 338 32 c 2
 282 0 l 2
 261 -12 236 -18 206 -18 c 0
 140 -18 97 12 69 60 c 2
 50 93 l 2
 -7 193 -1 369 -1 505 c 1
 55 537 l 1xc6
EndSplineSet
Validated: 33
Ligature2: "'liga' Standard Ligatures in Latin lookup 0-1" z o
EndChar

StartChar: DrAu
Encoding: 374 -1 148
Width: 833
VWidth: 0
Flags: W
HStem: -337 66<129.856 374.803> 469 66<55 361.07> 479 68<156.983 395> 680 66<169 422>
VStem: 521 76<-112 37.0304>
LayerCount: 2
Fore
SplineSet
113 714 m 5x98
 169 746 l 5
 459 750 l 5
 479 716 l 5
 422 684 l 5
 132 680 l 5
 113 714 l 5x98
666 49 m 1
 723 81 l 1
 735 68 750 61 758 49 c 2
 778 15 l 2
 778 14 l 0
 780 10 781 4 781 -1 c 0
 779 -33 736 -74 716 -101 c 1
 660 -133 l 1
 640 -100 l 1
 660 -73 701 -34 705 -2 c 1
 699 2 691 9 686 15 c 2
 666 49 l 1
-1 503 m 1
 55 535 l 1xd8
 477 547 l 1
 496 512 l 1
 209 113 l 1
 233 127 l 2
 294 162 358 184 437 166 c 0
 487 154 522 123 545 84 c 2
 564 51 l 2
 564 50 l 2
 586 11 597 -34 597 -83 c 0
 597 -98 595 -114 592 -128 c 1
 612 -132 630 -136 651 -139 c 1
 671 -172 l 1
 614 -205 l 1
 596 -202 577 -198 559 -195 c 1
 542 -217 519 -234 494 -248 c 2
 438 -281 l 2
 361 -325 253 -340 157 -337 c 0
 118 -336 79 -303 57 -266 c 2
 38 -232 l 1
 38 -231 37 -232 37 -231 c 0
 17 -197 14 -160 41 -145 c 2
 98 -113 l 2
 99 -112 101 -110 103 -109 c 0
 248 -46 366 -78 519 -112 c 1
 520 -102 521 -92 521 -82 c 0
 521 -40 513 -1 497 35 c 1
 475 65 442 90 400 100 c 0
 333 116 276 101 222 74 c 0
 198 59 171 40 145 24 c 2
 89 -9 l 1
 69 25 l 1
 395 479 l 1xb8
 18 469 l 1xd8
 -1 503 l 1
493 -181 m 1
 348 -149 235 -118 102 -162 c 1
 96 -176 96 -196 105 -217 c 1
 127 -246 160 -270 194 -271 c 0
 278 -274 371 -262 445 -230 c 1
 462 -217 481 -199 493 -181 c 1
EndSplineSet
Validated: 33
Ligature2: "'liga' Standard Ligatures in Latin lookup 0-1" a w
Ligature2: "'liga' Standard Ligatures in Latin lookup 0-1" A w
Ligature2: "'liga' Standard Ligatures in Latin lookup 0-1" A u
EndChar

